SplineFontDB: 3.2
FontName: YoungSerif-Regular
FullName: Young Serif
FamilyName: Young Serif
Weight: Regular
Copyright: Copyright 2023 The Young Serif Project Authors \\(https://github.com/noirblancrouge/YoungSerif\\)
Version: 005.002
ItalicAngle: 0
UnderlinePosition: -125
UnderlineWidth: 50
Ascent: 800
Descent: 200
InvalidEm: 0
sfntRevision: 0x00050083
LayerCount: 2
Layer: 0 0 "Back" 1
Layer: 1 0 "Fore" 0
XUID: [1021 735 254010608 5079]
StyleMap: 0x0040
FSType: 0
OS2Version: 4
OS2_WeightWidthSlopeOnly: 0
OS2_UseTypoMetrics: 1
CreationTime: 1750244485
ModificationTime: 1752514950
PfmFamily: 17
TTFWeight: 400
TTFWidth: 5
LineGap: 0
VLineGap: 0
Panose: 2 2 7 4 4 4 6 0 2 3
OS2TypoAscent: 930
OS2TypoAOffset: 0
OS2TypoDescent: -275
OS2TypoDOffset: 0
OS2TypoLinegap: 0
OS2WinAscent: 1150
OS2WinAOffset: 0
OS2WinDescent: 275
OS2WinDOffset: 0
HheadAscent: 930
HheadAOffset: 0
HheadDescent: -275
HheadDOffset: 0
OS2SubXSize: 650
OS2SubYSize: 600
OS2SubXOff: 0
OS2SubYOff: 75
OS2SupXSize: 650
OS2SupYSize: 600
OS2SupXOff: 0
OS2SupYOff: 350
OS2StrikeYSize: 44
OS2StrikeYPos: 300
OS2CapHeight: 660
OS2XHeight: 440
OS2Vendor: 'NBR '
OS2CodePages: 00000001.00000000
OS2UnicodeRanges: 00000003.00000000.00000000.00000000
Lookup: 3 0 0 "'aalt' Access All Alternates in Latin lookup 0" { "'aalt' Access All Alternates in Latin lookup 0 subtable"  } ['aalt' ('DFLT' <'dflt' > 'latn' <'AZE ' 'CAT ' 'CRT ' 'KAZ ' 'MAH ' 'MOL ' 'NLD ' 'ROM ' 'TAT ' 'TRK ' 'dflt' > ) ]
Lookup: 1 0 0 "'smcp' Lowercase to Small Capitals in Latin lookup 1" { "'smcp' Lowercase to Small Capitals in Latin lookup 1 subtable"  } ['smcp' ('DFLT' <'dflt' > 'latn' <'AZE ' 'CAT ' 'CRT ' 'KAZ ' 'MAH ' 'MOL ' 'NLD ' 'ROM ' 'TAT ' 'TRK ' 'dflt' > ) ]
Lookup: 1 0 0 "'sinf' Scientific Inferiors in Latin lookup 2" { "'sinf' Scientific Inferiors in Latin lookup 2 subtable"  } ['sinf' ('DFLT' <'dflt' > 'latn' <'AZE ' 'CAT ' 'CRT ' 'KAZ ' 'MAH ' 'MOL ' 'NLD ' 'ROM ' 'TAT ' 'TRK ' 'dflt' > ) ]

StartChar: .notdef
Encoding: 1114112 -1 0
Width: 440
GlyphClass: 1
Flags: MW
HStem: 0 24.03 0 121 272 72 495 121 496 120 591.97 24.03
VStem: 0 30.69 0 62 189 62 378 62 409.31 30.69
LayerCount: 2
Fore
SplineSet
0 603 m 2x8620
 0 610 6 616 13 616 c 2
 427 616 l 2
 434 616 440 610 440 603 c 2
 440 13 l 2
 440 6 434 0 427 0 c 2
 13 0 l 2
 6 0 0 6 0 13 c 2
 0 603 l 2x8620
374.080078125 561.620117188 m 2xa540
 383.41015625 575.620117188 375.259765625 591.969726562 357.759765625 591.969726562 c 2
 82.259765625 591.969726562 l 2
 64.75 591.969726562 56.580078125 575.620117188 65.91015625 561.620117188 c 2
 204.8203125 352.66015625 l 2
 211.830078125 340.990234375 228.16015625 340.990234375 235.169921875 352.66015625 c 2
 374.080078125 561.620117188 l 2xa540
366.299804688 131.610351562 m 2x52a0
 379.189453125 111.169921875 409.309570312 121.931640625 409.309570312 145.591796875 c 2
 409.309570312 470.421875 l 2
 409.309570312 494.091796875 379.189453125 504.841796875 366.299804688 484.401367188 c 2
 253.359375 315.53125 l 2
 250.12890625 312.30078125 250.12890625 303.7109375 253.359375 300.48046875 c 2
 366.299804688 131.610351562 l 2x52a0
357.76953125 24.0419921875 m 2xa540
 375.26953125 24.0419921875 383.419921875 40.3916015625 374.08984375 54.3916015625 c 2
 235.1796875 263.3515625 l 2
 228.169921875 275.021484375 211.83984375 275.021484375 204.830078125 263.3515625 c 2
 65.919921875 54.3916015625 l 2
 56.58984375 40.3916015625 64.759765625 24.0419921875 82.26953125 24.0419921875 c 2
 357.76953125 24.0419921875 l 2xa540
30.6904296875 145.591796875 m 2x4aa0
 30.6904296875 121.931640625 60.810546875 111.169921875 73.7001953125 131.610351562 c 2
 186.640625 300.48046875 l 2
 189.860351562 303.7109375 189.860351562 312.30078125 186.640625 315.53125 c 2
 73.7001953125 484.401367188 l 2
 60.810546875 504.841796875 30.6904296875 495.162109375 30.6904296875 471.51171875 c 2
 30.6904296875 145.591796875 l 2x4aa0
EndSplineSet
EndChar

StartChar: A
Encoding: 65 65 4
Width: 655
GlyphClass: 2
Flags: MW
HStem: 640 20G<289 357.5 357.5 361>
AnchorPoint: "Anchor-6" 636 0 basechar 0
AnchorPoint: "Anchor-5" 322 660 basechar 0
AnchorPoint: "Anchor-4" 297 0 basechar 0
LayerCount: 2
Fore
SplineSet
584.75 97.75 m 2
 597 65.5 603.5 38 635.5 38 c 0
 647.5 38 648.5 33 648.5 25 c 2
 648.5 13 l 2
 648.5 4 644.5 0 635.5 0 c 2
 418 0 l 2
 410 0 405 4 405 13 c 2
 405 25 l 2
 405 33 406 38 418 38 c 0
 472 38 492.75 63.25 476 110.5 c 2
 435.08984375 226 l 1
 163.41015625 226 l 1
 118.75 104.5 l 2
 103 62 136.75 38 185.5 38 c 0
 197.5 38 198.5 33 198.5 25 c 2
 198.5 13 l 2
 198.5 4 193.5 0 185.5 0 c 2
 18 0 l 2
 10 0 5 4 5 13 c 2
 5 25 l 2
 5 33 6 38 18 38 c 0
 46.5 38 58.25 64 72 102.25 c 2
 274 649 l 2
 276 656 281 660 289 660 c 2
 357.5 660 l 2
 364.5 660 369.5 656 372.5 649 c 2
 584.75 97.75 l 2
179.889648438 273 m 1
 417.689453125 273 l 1
 297.9296875 595.73046875 l 1
 179.889648438 273 l 1
EndSplineSet
Substitution2: "Single Substitution lookup 36 subtable" ordfeminine
Substitution2: "'ss04' Style Set 4 in Latin lookup 33 subtable" u1F150
Substitution2: "'ss03' Style Set 3 in Latin lookup 31 subtable" uni24B6
Substitution2: "'c2sc' Capitals to Small Capitals in Latin lookup 11 subtable" A.sc
AlternateSubs2: "'aalt' Access All Alternates in Latin lookup 0 subtable" ordfeminine A.sc uni24B6 u1F150
Position2: "'cpsp' Capital Spacing in Latin lookup 0 subtable" dx=5 dy=0 dh=10 dv=0
EndChar

StartChar: Aacute
Encoding: 193 193 5
Width: 655
GlyphClass: 2
Flags: MW
HStem: 640 20G<289 357.5 357.5 361> 717 161
VStem: 260 156
AnchorPoint: "Anchor-6" 636 0 basechar 0
AnchorPoint: "Anchor-5" 354 899 basechar 0
AnchorPoint: "Anchor-4" 297 0 basechar 0
LayerCount: 2
Fore
SplineSet
584.75 97.75 m 2
 597 65.5 603.5 38 635.5 38 c 0
 647.5 38 648.5 33 648.5 25 c 2
 648.5 13 l 2
 648.5 4 644.5 0 635.5 0 c 2
 418 0 l 2
 410 0 405 4 405 13 c 2
 405 25 l 2
 405 33 406 38 418 38 c 0
 472 38 492.75 63.25 476 110.5 c 2
 435.08984375 226 l 1
 163.41015625 226 l 1
 118.75 104.5 l 2
 103 62 136.75 38 185.5 38 c 0
 197.5 38 198.5 33 198.5 25 c 2
 198.5 13 l 2
 198.5 4 193.5 0 185.5 0 c 2
 18 0 l 2
 10 0 5 4 5 13 c 2
 5 25 l 2
 5 33 6 38 18 38 c 0
 46.5 38 58.25 64 72 102.25 c 2
 274 649 l 2
 276 656 281 660 289 660 c 2
 357.5 660 l 2
 364.5 660 369.5 656 372.5 649 c 2
 584.75 97.75 l 2
259.490234375 729.150390625 m 1
 311.140625 793.55078125 323.388671875 815.62109375 345.499023438 865.87109375 c 0
 350.048828125 875.87109375 360.329101562 878.361328125 371.388671875 878.361328125 c 0
 400.418945312 878.361328125 415.138671875 864.041015625 415.138671875 838.831054688 c 0
 415.138671875 785.161132812 347.768554688 748.840820312 298.708984375 719.860351562 c 0
 295.159179688 717.860351562 291.479492188 716.30078125 288.349609375 716.500976562 c 0
 285.309570312 716.750976562 280.799804688 718.630859375 275.330078125 721.350585938 c 2
 259.490234375 729.150390625 l 1
179.888671875 273.020507812 m 1
 417.688476562 273.020507812 l 1
 297.928710938 595.750976562 l 1
 179.888671875 273.020507812 l 1
EndSplineSet
Substitution2: "'c2sc' Capitals to Small Capitals in Latin lookup 11 subtable" Aacute.sc
AlternateSubs2: "'aalt' Access All Alternates in Latin lookup 0 subtable" Aacute.sc
Position2: "'cpsp' Capital Spacing in Latin lookup 0 subtable" dx=5 dy=0 dh=10 dv=0
EndChar

StartChar: Abreve
Encoding: 258 258 6
Width: 655
GlyphClass: 2
Flags: MW
HStem: 640 20G<289 357.5 357.5 361>
VStem: 194 256
AnchorPoint: "Anchor-6" 636 0 basechar 0
AnchorPoint: "Anchor-5" 322 820 basechar 0
AnchorPoint: "Anchor-4" 297 0 basechar 0
LayerCount: 2
Fore
SplineSet
584.75 97.75 m 2
 597 65.5 603.5 38 635.5 38 c 0
 647.5 38 648.5 33 648.5 25 c 2
 648.5 13 l 2
 648.5 4 644.5 0 635.5 0 c 2
 418 0 l 2
 410 0 405 4 405 13 c 2
 405 25 l 2
 405 33 406 38 418 38 c 0
 472 38 492.75 63.25 476 110.5 c 2
 435.08984375 226 l 1
 163.41015625 226 l 1
 118.75 104.5 l 2
 103 62 136.75 38 185.5 38 c 0
 197.5 38 198.5 33 198.5 25 c 2
 198.5 13 l 2
 198.5 4 193.5 0 185.5 0 c 2
 18 0 l 2
 10 0 5 4 5 13 c 2
 5 25 l 2
 5 33 6 38 18 38 c 0
 46.5 38 58.25 64 72 102.25 c 2
 274 649 l 2
 276 656 281 660 289 660 c 2
 357.5 660 l 2
 364.5 660 369.5 656 372.5 649 c 2
 584.75 97.75 l 2
321.5 711 m 0
 230.75 711 193.356445312 780.78125 193.356445312 816.630859375 c 0
 193.356445312 826.630859375 198.576171875 830.470703125 208.356445312 831.630859375 c 0
 215.88671875 832.48046875 231.1171875 833.80078125 238.77734375 834.3203125 c 0
 250.586914062 835.3203125 254.407226562 831.950195312 255.336914062 818.990234375 c 0
 258.447265625 782.370117188 282.137695312 759.370117188 321.498046875 759.370117188 c 0
 361.108398438 759.370117188 384.798828125 782.370117188 387.909179688 818.990234375 c 0
 388.588867188 831.950195312 392.659179688 835.3203125 404.46875 834.3203125 c 0
 411.87890625 833.799804688 427.359375 832.479492188 434.639648438 831.629882812 c 0
 444.419921875 830.469726562 449.639648438 826.629882812 449.639648438 816.629882812 c 0
 449.639648438 780.780273438 412.5 711 321.5 711 c 0
179.885742188 273.000976562 m 1
 417.685546875 273 l 1
 297.92578125 595.73046875 l 1
 179.885742188 273.000976562 l 1
EndSplineSet
Substitution2: "'c2sc' Capitals to Small Capitals in Latin lookup 11 subtable" Abreve.sc
AlternateSubs2: "'aalt' Access All Alternates in Latin lookup 0 subtable" Abreve.sc
Position2: "'cpsp' Capital Spacing in Latin lookup 0 subtable" dx=5 dy=0 dh=10 dv=0
EndChar

StartChar: uni1EAE
Encoding: 7854 7854 7
Width: 655
GlyphClass: 2
Flags: MW
HStem: 640 20G<289 357.5 357.5 361> 877 161
VStem: 194 256 260 156
AnchorPoint: "Anchor-6" 636 0 basechar 0
AnchorPoint: "Anchor-5" 354 1059 basechar 0
AnchorPoint: "Anchor-4" 297 0 basechar 0
LayerCount: 2
Fore
SplineSet
584.75 97.75 m 2xd0
 597 65.5 603.5 38 635.5 38 c 0
 647.5 38 648.5 33 648.5 25 c 2
 648.5 13 l 2
 648.5 4 644.5 0 635.5 0 c 2
 418 0 l 2
 410 0 405 4 405 13 c 2
 405 25 l 2
 405 33 406 38 418 38 c 0
 472 38 492.75 63.25 476 110.5 c 2
 435.08984375 226 l 1
 163.41015625 226 l 1
 118.75 104.5 l 2
 103 62 136.75 38 185.5 38 c 0
 197.5 38 198.5 33 198.5 25 c 2
 198.5 13 l 2
 198.5 4 193.5 0 185.5 0 c 2
 18 0 l 2
 10 0 5 4 5 13 c 2
 5 25 l 2
 5 33 6 38 18 38 c 0
 46.5 38 58.25 64 72 102.25 c 2
 274 649 l 2
 276 656 281 660 289 660 c 2
 357.5 660 l 2
 364.5 660 369.5 656 372.5 649 c 2
 584.75 97.75 l 2xd0
321.5 711 m 0
 230.75 711 193.356445312 780.78125 193.356445312 816.630859375 c 0
 193.356445312 826.630859375 198.576171875 830.470703125 208.356445312 831.630859375 c 0
 215.88671875 832.48046875 231.1171875 833.80078125 238.77734375 834.3203125 c 0
 250.586914062 835.3203125 254.407226562 831.950195312 255.336914062 818.990234375 c 0
 258.447265625 782.370117188 282.137695312 759.370117188 321.498046875 759.370117188 c 0
 361.108398438 759.370117188 384.798828125 782.370117188 387.909179688 818.990234375 c 0
 388.588867188 831.950195312 392.659179688 835.3203125 404.46875 834.3203125 c 0
 411.87890625 833.799804688 427.359375 832.479492188 434.639648438 831.629882812 c 0
 444.419921875 830.469726562 449.639648438 826.629882812 449.639648438 816.629882812 c 0xe0
 449.639648438 780.780273438 412.5 711 321.5 711 c 0
259.49609375 888.810546875 m 1xd0
 311.146484375 953.220703125 323.39453125 975.279296875 345.504882812 1025.52929688 c 0
 350.0546875 1035.52929688 360.334960938 1038.01953125 371.39453125 1038.01953125 c 0
 400.424804688 1038.01953125 415.14453125 1023.69921875 415.14453125 998.489257812 c 0
 415.14453125 944.809570312 347.774414062 908.5 298.71484375 879.520507812 c 0
 295.165039062 877.520507812 291.485351562 875.9609375 288.35546875 876.170898438 c 0
 285.315429688 876.420898438 280.805664062 878.30078125 275.3359375 881.020507812 c 2
 259.49609375 888.810546875 l 1xd0
179.89453125 273.009765625 m 1
 417.694335938 273.009765625 l 1
 297.934570312 595.740234375 l 1
 179.89453125 273.009765625 l 1
EndSplineSet
Substitution2: "'c2sc' Capitals to Small Capitals in Latin lookup 11 subtable" uni1EAE.sc
AlternateSubs2: "'aalt' Access All Alternates in Latin lookup 0 subtable" uni1EAE.sc
Position2: "'cpsp' Capital Spacing in Latin lookup 0 subtable" dx=5 dy=0 dh=10 dv=0
EndChar

StartChar: uni1EB6
Encoding: 7862 7862 8
Width: 655
GlyphClass: 2
Flags: MW
HStem: -181 127 640 20G<289 357.5 357.5 361>
VStem: 194 256 233 128
AnchorPoint: "Anchor-6" 636 0 basechar 0
AnchorPoint: "Anchor-5" 322 820 basechar 0
AnchorPoint: "Anchor-4" 297 0 basechar 0
LayerCount: 2
Fore
SplineSet
584.75 97.75 m 2xd0
 597 65.5 603.5 38 635.5 38 c 0
 647.5 38 648.5 33 648.5 25 c 2
 648.5 13 l 2
 648.5 4 644.5 0 635.5 0 c 2
 418 0 l 2
 410 0 405 4 405 13 c 2
 405 25 l 2
 405 33 406 38 418 38 c 0
 472 38 492.75 63.25 476 110.5 c 2
 435.08984375 226 l 1
 163.41015625 226 l 1
 118.75 104.5 l 2
 103 62 136.75 38 185.5 38 c 0
 197.5 38 198.5 33 198.5 25 c 2
 198.5 13 l 2
 198.5 4 193.5 0 185.5 0 c 2
 18 0 l 2
 10 0 5 4 5 13 c 2
 5 25 l 2
 5 33 6 38 18 38 c 0
 46.5 38 58.25 64 72 102.25 c 2
 274 649 l 2
 276 656 281 660 289 660 c 2
 357.5 660 l 2
 364.5 660 369.5 656 372.5 649 c 2
 584.75 97.75 l 2xd0
296.76953125 -54.650390625 m 0
 312.109375 -54.650390625 324.579101562 -60.400390625 339.918945312 -75.740234375 c 0
 355.258789062 -91.080078125 361.018554688 -102.58984375 361.018554688 -117.9296875 c 0
 361.018554688 -133.26953125 354.298828125 -145.739257812 339.918945312 -160.119140625 c 0
 324.579101562 -175.46875 312.109375 -181.21875 296.76953125 -181.21875 c 0
 282.389648438 -181.21875 270.879882812 -175.46875 254.580078125 -160.119140625 c 0
 239.240234375 -145.739257812 233.48046875 -133.26953125 233.48046875 -117.9296875 c 0
 233.48046875 -102.58984375 239.240234375 -91.080078125 254.580078125 -75.740234375 c 0
 269.919921875 -60.400390625 282.389648438 -54.650390625 296.76953125 -54.650390625 c 0
321.5 711 m 0
 230.75 711 193.356445312 780.78125 193.356445312 816.630859375 c 0
 193.356445312 826.630859375 198.576171875 830.470703125 208.356445312 831.630859375 c 0
 215.88671875 832.48046875 231.1171875 833.80078125 238.77734375 834.3203125 c 0
 250.586914062 835.3203125 254.407226562 831.950195312 255.336914062 818.990234375 c 0
 258.447265625 782.370117188 282.137695312 759.370117188 321.498046875 759.370117188 c 0
 361.108398438 759.370117188 384.798828125 782.370117188 387.909179688 818.990234375 c 0
 388.588867188 831.950195312 392.659179688 835.3203125 404.46875 834.3203125 c 0
 411.87890625 833.799804688 427.359375 832.479492188 434.639648438 831.629882812 c 0
 444.419921875 830.469726562 449.639648438 826.629882812 449.639648438 816.629882812 c 0xe0
 449.639648438 780.780273438 412.5 711 321.5 711 c 0
179.885742188 273.000976562 m 1
 417.685546875 273 l 1
 297.92578125 595.73046875 l 1
 179.885742188 273.000976562 l 1
EndSplineSet
Substitution2: "'c2sc' Capitals to Small Capitals in Latin lookup 11 subtable" uni1EB6.sc
AlternateSubs2: "'aalt' Access All Alternates in Latin lookup 0 subtable" uni1EB6.sc
Position2: "'cpsp' Capital Spacing in Latin lookup 0 subtable" dx=5 dy=0 dh=10 dv=0
EndChar

StartChar: uni1EB0
Encoding: 7856 7856 9
Width: 655
GlyphClass: 2
Flags: MW
HStem: 640 20G<289 357.5 357.5 361> 877 161
VStem: 194 256 235 156
AnchorPoint: "Anchor-6" 636 0 basechar 0
AnchorPoint: "Anchor-5" 297 1059 basechar 0
AnchorPoint: "Anchor-4" 297 0 basechar 0
LayerCount: 2
Fore
SplineSet
584.75 97.75 m 2xd0
 597 65.5 603.5 38 635.5 38 c 0
 647.5 38 648.5 33 648.5 25 c 2
 648.5 13 l 2
 648.5 4 644.5 0 635.5 0 c 2
 418 0 l 2
 410 0 405 4 405 13 c 2
 405 25 l 2
 405 33 406 38 418 38 c 0
 472 38 492.75 63.25 476 110.5 c 2
 435.08984375 226 l 1
 163.41015625 226 l 1
 118.75 104.5 l 2
 103 62 136.75 38 185.5 38 c 0
 197.5 38 198.5 33 198.5 25 c 2
 198.5 13 l 2
 198.5 4 193.5 0 185.5 0 c 2
 18 0 l 2
 10 0 5 4 5 13 c 2
 5 25 l 2
 5 33 6 38 18 38 c 0
 46.5 38 58.25 64 72 102.25 c 2
 274 649 l 2
 276 656 281 660 289 660 c 2
 357.5 660 l 2
 364.5 660 369.5 656 372.5 649 c 2
 584.75 97.75 l 2xd0
321.5 711 m 0
 230.75 711 193.356445312 780.78125 193.356445312 816.630859375 c 0
 193.356445312 826.630859375 198.576171875 830.470703125 208.356445312 831.630859375 c 0
 215.88671875 832.48046875 231.1171875 833.80078125 238.77734375 834.3203125 c 0
 250.586914062 835.3203125 254.407226562 831.950195312 255.336914062 818.990234375 c 0
 258.447265625 782.370117188 282.137695312 759.370117188 321.498046875 759.370117188 c 0
 361.108398438 759.370117188 384.798828125 782.370117188 387.909179688 818.990234375 c 0
 388.588867188 831.950195312 392.659179688 835.3203125 404.46875 834.3203125 c 0
 411.87890625 833.799804688 427.359375 832.479492188 434.639648438 831.629882812 c 0
 444.419921875 830.469726562 449.639648438 826.629882812 449.639648438 816.629882812 c 0xe0
 449.639648438 780.780273438 412.5 711 321.5 711 c 0
374.666015625 881.021484375 m 2
 369.206054688 878.301757812 364.684570312 876.412109375 361.64453125 876.162109375 c 0
 358.514648438 875.952148438 354.834960938 877.51171875 351.28515625 879.51171875 c 0
 302.225585938 908.4921875 234.85546875 944.801757812 234.85546875 998.481445312 c 0
 234.85546875 1023.69140625 249.575195312 1038.01171875 278.60546875 1038.01171875 c 0
 289.665039062 1038.01171875 299.9453125 1035.52148438 304.495117188 1025.52148438 c 0
 326.60546875 975.271484375 338.85546875 953.221679688 390.515625 888.811523438 c 1xd0
 374.666015625 881.021484375 l 2
179.883789062 272.9921875 m 1
 417.68359375 272.9921875 l 1
 297.923828125 595.72265625 l 1
 179.883789062 272.9921875 l 1
EndSplineSet
Substitution2: "'c2sc' Capitals to Small Capitals in Latin lookup 11 subtable" uni1EB0.sc
AlternateSubs2: "'aalt' Access All Alternates in Latin lookup 0 subtable" uni1EB0.sc
Position2: "'cpsp' Capital Spacing in Latin lookup 0 subtable" dx=5 dy=0 dh=10 dv=0
EndChar

StartChar: uni1EB2
Encoding: 7858 7858 10
Width: 655
GlyphClass: 2
Flags: MW
HStem: 640 20G<289 357.5 357.5 361> 978 62
VStem: 194 256 334 53
AnchorPoint: "Anchor-6" 636 0 basechar 0
AnchorPoint: "Anchor-5" 322 1106 basechar 0
AnchorPoint: "Anchor-4" 297 0 basechar 0
LayerCount: 2
Fore
SplineSet
584.75 97.75 m 2xd0
 597 65.5 603.5 38 635.5 38 c 0
 647.5 38 648.5 33 648.5 25 c 2
 648.5 13 l 2
 648.5 4 644.5 0 635.5 0 c 2
 418 0 l 2
 410 0 405 4 405 13 c 2
 405 25 l 2
 405 33 406 38 418 38 c 0
 472 38 492.75 63.25 476 110.5 c 2
 435.08984375 226 l 1
 163.41015625 226 l 1
 118.75 104.5 l 2
 103 62 136.75 38 185.5 38 c 0
 197.5 38 198.5 33 198.5 25 c 2
 198.5 13 l 2
 198.5 4 193.5 0 185.5 0 c 2
 18 0 l 2
 10 0 5 4 5 13 c 2
 5 25 l 2
 5 33 6 38 18 38 c 0
 46.5 38 58.25 64 72 102.25 c 2
 274 649 l 2
 276 656 281 660 289 660 c 2
 357.5 660 l 2
 364.5 660 369.5 656 372.5 649 c 2
 584.75 97.75 l 2xd0
321.5 711 m 0
 230.75 711 193.356445312 780.78125 193.356445312 816.630859375 c 0
 193.356445312 826.630859375 198.576171875 830.470703125 208.356445312 831.630859375 c 0
 215.88671875 832.48046875 231.1171875 833.80078125 238.77734375 834.3203125 c 0
 250.586914062 835.3203125 254.407226562 831.950195312 255.336914062 818.990234375 c 0
 258.447265625 782.370117188 282.137695312 759.370117188 321.498046875 759.370117188 c 0
 361.108398438 759.370117188 384.798828125 782.370117188 387.909179688 818.990234375 c 0
 388.588867188 831.950195312 392.659179688 835.3203125 404.46875 834.3203125 c 0
 411.87890625 833.799804688 427.359375 832.479492188 434.639648438 831.629882812 c 0
 444.419921875 830.469726562 449.639648438 826.629882812 449.639648438 816.629882812 c 0xe0
 449.639648438 780.780273438 412.5 711 321.5 711 c 0
349.375976562 879.560546875 m 0
 341.17578125 868.850585938 306.026367188 890.837890625 311.545898438 899.318359375 c 0
 320.99609375 914.55859375 333.776367188 928.96875 333.776367188 949.708984375 c 0
 333.776367188 970.869140625 320.916015625 977.979492188 306.875976562 977.979492188 c 0
 287.776367188 977.979492188 274.526367188 961.08984375 269.646484375 969.3203125 c 0
 261.936523438 982.419921875 251.616210938 996.879882812 253.65625 1012.75976562 c 0
 254.755859375 1022.83007812 284.755859375 1040.41992188 315.49609375 1040.41992188 c 0
 369.276367188 1040.41992188 386.74609375 998.650390625 386.74609375 966.669921875 c 0xd0
 386.74609375 939.830078125 372.875976562 909.650390625 349.375976562 879.560546875 c 0
179.88671875 272.98828125 m 1
 417.686523438 272.98828125 l 1
 297.926757812 595.71875 l 1
 179.88671875 272.98828125 l 1
EndSplineSet
Substitution2: "'c2sc' Capitals to Small Capitals in Latin lookup 11 subtable" uni1EB2.sc
AlternateSubs2: "'aalt' Access All Alternates in Latin lookup 0 subtable" uni1EB2.sc
Position2: "'cpsp' Capital Spacing in Latin lookup 0 subtable" dx=5 dy=0 dh=10 dv=0
EndChar

StartChar: uni1EB4
Encoding: 7860 7860 11
Width: 655
GlyphClass: 2
Flags: MW
HStem: 640 20G<289 357.5 357.5 361> 884 51 968 50
VStem: 180 55 194 256 408 55
AnchorPoint: "Anchor-6" 636 0 basechar 0
AnchorPoint: "Anchor-5" 322 1005 basechar 0
AnchorPoint: "Anchor-4" 297 0 basechar 0
LayerCount: 2
Fore
SplineSet
584.75 97.75 m 2xf0
 597 65.5 603.5 38 635.5 38 c 0
 647.5 38 648.5 33 648.5 25 c 2
 648.5 13 l 2
 648.5 4 644.5 0 635.5 0 c 2
 418 0 l 2
 410 0 405 4 405 13 c 2
 405 25 l 2
 405 33 406 38 418 38 c 0
 472 38 492.75 63.25 476 110.5 c 2
 435.08984375 226 l 1
 163.41015625 226 l 1
 118.75 104.5 l 2
 103 62 136.75 38 185.5 38 c 0
 197.5 38 198.5 33 198.5 25 c 2
 198.5 13 l 2
 198.5 4 193.5 0 185.5 0 c 2
 18 0 l 2
 10 0 5 4 5 13 c 2
 5 25 l 2
 5 33 6 38 18 38 c 0
 46.5 38 58.25 64 72 102.25 c 2
 274 649 l 2
 276 656 281 660 289 660 c 2
 357.5 660 l 2
 364.5 660 369.5 656 372.5 649 c 2
 584.75 97.75 l 2xf0
321.5 711 m 0
 230.75 711 193.356445312 780.78125 193.356445312 816.630859375 c 0
 193.356445312 826.630859375 198.576171875 830.470703125 208.356445312 831.630859375 c 0
 215.88671875 832.48046875 231.1171875 833.80078125 238.77734375 834.3203125 c 0
 250.586914062 835.3203125 254.407226562 831.950195312 255.336914062 818.990234375 c 0
 258.447265625 782.370117188 282.137695312 759.370117188 321.498046875 759.370117188 c 0
 361.108398438 759.370117188 384.798828125 782.370117188 387.909179688 818.990234375 c 0
 388.588867188 831.950195312 392.659179688 835.3203125 404.46875 834.3203125 c 0
 411.87890625 833.799804688 427.359375 832.479492188 434.639648438 831.629882812 c 0
 444.419921875 830.469726562 449.639648438 826.629882812 449.639648438 816.629882812 c 0xe8
 449.639648438 780.780273438 412.5 711 321.5 711 c 0
339.65625 964.9609375 m 0
 353.956054688 942.840820312 365.4375 934.930664062 379.487304688 934.930664062 c 0
 397.487304688 934.930664062 408.237304688 949.220703125 408.237304688 967.680664062 c 0
 408.237304688 978.740234375 405.876953125 990.48046875 398.836914062 1002.62011719 c 1
 407.577148438 1010.46972656 420.287109375 1018.9296875 431.487304688 1018.9296875 c 0
 445.1875 1018.9296875 462.737304688 993.259765625 462.737304688 963.6796875 c 0xf4
 462.737304688 914.299804688 427.217773438 884.4296875 389.487304688 884.4296875 c 0
 335.836914062 884.4296875 317.247070312 913.540039062 303.567382812 936.98046875 c 0
 290.586914062 960.350585938 278.537109375 968.430664062 264.487304688 968.430664062 c 0
 246.487304688 968.430664062 234.737304688 952.23046875 234.737304688 934.680664062 c 0
 234.737304688 923.310546875 237.876953125 911.590820312 245.037109375 899.661132812 c 1
 236.256835938 891.840820312 223.436523438 883.430664062 211.486328125 883.430664062 c 0
 198.505859375 883.430664062 180.236328125 909.081054688 180.236328125 937.680664062 c 0xf0
 180.236328125 987.9609375 216.666015625 1017.93066406 254.486328125 1017.93066406 c 0
 307.24609375 1017.93066406 326.65625 986.930664062 339.65625 964.9609375 c 0
179.877929688 273.010742188 m 1
 417.677734375 273.009765625 l 1
 297.91796875 595.740234375 l 1
 179.877929688 273.010742188 l 1
EndSplineSet
Substitution2: "'c2sc' Capitals to Small Capitals in Latin lookup 11 subtable" uni1EB4.sc
AlternateSubs2: "'aalt' Access All Alternates in Latin lookup 0 subtable" uni1EB4.sc
Position2: "'cpsp' Capital Spacing in Latin lookup 0 subtable" dx=5 dy=0 dh=10 dv=0
EndChar

StartChar: uni01CD
Encoding: 461 461 12
Width: 655
GlyphClass: 2
Flags: MW
HStem: 640 20G<289 357.5 357.5 361> 722 146
VStem: 190 264
AnchorPoint: "Anchor-6" 636 0 basechar 0
AnchorPoint: "Anchor-5" 322 845 basechar 0
AnchorPoint: "Anchor-4" 297 0 basechar 0
LayerCount: 2
Fore
SplineSet
584.75 97.75 m 2
 597 65.5 603.5 38 635.5 38 c 0
 647.5 38 648.5 33 648.5 25 c 2
 648.5 13 l 2
 648.5 4 644.5 0 635.5 0 c 2
 418 0 l 2
 410 0 405 4 405 13 c 2
 405 25 l 2
 405 33 406 38 418 38 c 0
 472 38 492.75 63.25 476 110.5 c 2
 435.08984375 226 l 1
 163.41015625 226 l 1
 118.75 104.5 l 2
 103 62 136.75 38 185.5 38 c 0
 197.5 38 198.5 33 198.5 25 c 2
 198.5 13 l 2
 198.5 4 193.5 0 185.5 0 c 2
 18 0 l 2
 10 0 5 4 5 13 c 2
 5 25 l 2
 5 33 6 38 18 38 c 0
 46.5 38 58.25 64 72 102.25 c 2
 274 649 l 2
 276 656 281 660 289 660 c 2
 357.5 660 l 2
 364.5 660 369.5 656 372.5 649 c 2
 584.75 97.75 l 2
321.5 787.059570312 m 1
 341.549804688 824.83984375 375.481445312 867.250976562 419.431640625 867.250976562 c 0
 442.571289062 867.250976562 453.361328125 844.890625 453.361328125 819.440429688 c 0
 453.361328125 807.880859375 452.591796875 797.850585938 444.111328125 794.000976562 c 0
 399.380859375 777.03125 376.250976562 765.470703125 321.500976562 721.510742188 c 1
 266.750976562 765.470703125 243.62109375 777.030273438 198.890625 794 c 0
 190.41015625 797.849609375 189.640625 807.879882812 189.640625 819.439453125 c 0
 189.640625 844.889648438 200.430664062 867.25 223.5703125 867.25 c 0
 267.520507812 867.25 301.450195312 824.83984375 321.5 787.059570312 c 1
179.891601562 273.000976562 m 1
 417.69140625 273 l 1
 297.931640625 595.73046875 l 1
 179.891601562 273.000976562 l 1
EndSplineSet
Substitution2: "'c2sc' Capitals to Small Capitals in Latin lookup 11 subtable" uni01CD.sc
AlternateSubs2: "'aalt' Access All Alternates in Latin lookup 0 subtable" uni01CD.sc
Position2: "'cpsp' Capital Spacing in Latin lookup 0 subtable" dx=5 dy=0 dh=10 dv=0
EndChar

StartChar: Acircumflex
Encoding: 194 194 13
Width: 655
GlyphClass: 2
Flags: MW
HStem: 640 20G<289 357.5 357.5 361> 715 146
VStem: 190 264
AnchorPoint: "Anchor-7" 322 759 basechar 0
AnchorPoint: "Anchor-6" 636 0 basechar 0
AnchorPoint: "Anchor-5" 322 816 basechar 0
AnchorPoint: "Anchor-4" 297 0 basechar 0
LayerCount: 2
Fore
SplineSet
584.75 97.75 m 2
 597 65.5 603.5 38 635.5 38 c 0
 647.5 38 648.5 33 648.5 25 c 2
 648.5 13 l 2
 648.5 4 644.5 0 635.5 0 c 2
 418 0 l 2
 410 0 405 4 405 13 c 2
 405 25 l 2
 405 33 406 38 418 38 c 0
 472 38 492.75 63.25 476 110.5 c 2
 435.08984375 226 l 1
 163.41015625 226 l 1
 118.75 104.5 l 2
 103 62 136.75 38 185.5 38 c 0
 197.5 38 198.5 33 198.5 25 c 2
 198.5 13 l 2
 198.5 4 193.5 0 185.5 0 c 2
 18 0 l 2
 10 0 5 4 5 13 c 2
 5 25 l 2
 5 33 6 38 18 38 c 0
 46.5 38 58.25 64 72 102.25 c 2
 274 649 l 2
 276 656 281 660 289 660 c 2
 357.5 660 l 2
 364.5 660 369.5 656 372.5 649 c 2
 584.75 97.75 l 2
321.5 795.440429688 m 1
 301.450195312 757.66015625 267.518554688 715.249023438 223.568359375 715.249023438 c 0
 200.428710938 715.249023438 189.638671875 737.609375 189.638671875 763.059570312 c 0
 189.638671875 774.619140625 190.408203125 784.649414062 198.888671875 788.499023438 c 0
 243.619140625 805.46875 266.749023438 817.029296875 321.499023438 860.989257812 c 1
 376.249023438 817.029296875 399.37890625 805.469726562 444.109375 788.5 c 0
 452.58984375 784.650390625 453.359375 774.620117188 453.359375 763.060546875 c 0
 453.359375 737.610351562 442.569335938 715.25 419.4296875 715.25 c 0
 375.479492188 715.25 341.549804688 757.66015625 321.5 795.440429688 c 1
179.887695312 272.999023438 m 1
 417.6875 272.998046875 l 1
 297.927734375 595.728515625 l 1
 179.887695312 272.999023438 l 1
EndSplineSet
Substitution2: "'c2sc' Capitals to Small Capitals in Latin lookup 11 subtable" Acircumflex.sc
AlternateSubs2: "'aalt' Access All Alternates in Latin lookup 0 subtable" Acircumflex.sc
Position2: "'cpsp' Capital Spacing in Latin lookup 0 subtable" dx=5 dy=0 dh=10 dv=0
EndChar

StartChar: uni1EA4
Encoding: 7844 7844 14
Width: 655
GlyphClass: 2
Flags: MW
HStem: 640 20G<289 357.5 357.5 361> 715 146 824 161
VStem: 190 264 403 156
AnchorPoint: "Anchor-7" 497 1006 basechar 0
AnchorPoint: "Anchor-6" 636 0 basechar 0
AnchorPoint: "Anchor-5" 322 816 basechar 0
AnchorPoint: "Anchor-4" 297 0 basechar 0
LayerCount: 2
Fore
SplineSet
584.75 97.75 m 2xc8
 597 65.5 603.5 38 635.5 38 c 0
 647.5 38 648.5 33 648.5 25 c 2
 648.5 13 l 2
 648.5 4 644.5 0 635.5 0 c 2
 418 0 l 2
 410 0 405 4 405 13 c 2
 405 25 l 2
 405 33 406 38 418 38 c 0
 472 38 492.75 63.25 476 110.5 c 2
 435.08984375 226 l 1
 163.41015625 226 l 1
 118.75 104.5 l 2
 103 62 136.75 38 185.5 38 c 0
 197.5 38 198.5 33 198.5 25 c 2
 198.5 13 l 2
 198.5 4 193.5 0 185.5 0 c 2
 18 0 l 2
 10 0 5 4 5 13 c 2
 5 25 l 2
 5 33 6 38 18 38 c 0
 46.5 38 58.25 64 72 102.25 c 2
 274 649 l 2
 276 656 281 660 289 660 c 2
 357.5 660 l 2
 364.5 660 369.5 656 372.5 649 c 2
 584.75 97.75 l 2xc8
321.5 795.440429688 m 1
 301.450195312 757.66015625 267.518554688 715.249023438 223.568359375 715.249023438 c 0
 200.428710938 715.249023438 189.638671875 737.609375 189.638671875 763.059570312 c 0
 189.638671875 774.619140625 190.408203125 784.649414062 198.888671875 788.499023438 c 0
 243.619140625 805.46875 266.749023438 817.029296875 321.499023438 860.989257812 c 1
 376.249023438 817.029296875 399.37890625 805.469726562 444.109375 788.5 c 0
 452.58984375 784.650390625 453.359375 774.620117188 453.359375 763.060546875 c 0xd0
 453.359375 737.610351562 442.569335938 715.25 419.4296875 715.25 c 0
 375.479492188 715.25 341.549804688 757.66015625 321.5 795.440429688 c 1
402.767578125 835.799804688 m 1xc8
 454.427734375 900.209960938 466.66796875 922.258789062 488.788085938 972.508789062 c 0
 493.337890625 982.508789062 503.607421875 984.999023438 514.666992188 984.999023438 c 0
 543.70703125 984.999023438 558.426757812 970.689453125 558.426757812 945.479492188 c 0
 558.426757812 891.799804688 491.056640625 855.490234375 441.986328125 826.509765625 c 0
 438.436523438 824.509765625 434.756835938 822.950195312 431.63671875 823.16015625 c 0xa8
 428.586914062 823.41015625 424.077148438 825.280273438 418.6171875 828 c 2
 402.767578125 835.799804688 l 1xc8
179.887695312 272.999023438 m 1
 417.6875 272.998046875 l 1
 297.927734375 595.728515625 l 1
 179.887695312 272.999023438 l 1
EndSplineSet
Substitution2: "'c2sc' Capitals to Small Capitals in Latin lookup 11 subtable" uni1EA4.sc
AlternateSubs2: "'aalt' Access All Alternates in Latin lookup 0 subtable" uni1EA4.sc
Position2: "'cpsp' Capital Spacing in Latin lookup 0 subtable" dx=5 dy=0 dh=10 dv=0
EndChar

StartChar: uni1EAC
Encoding: 7852 7852 15
Width: 655
GlyphClass: 2
Flags: MW
HStem: -181 127 640 20G<289 357.5 357.5 361> 715 146
VStem: 190 264 233 128
AnchorPoint: "Anchor-7" 322 759 basechar 0
AnchorPoint: "Anchor-6" 636 0 basechar 0
AnchorPoint: "Anchor-5" 322 816 basechar 0
AnchorPoint: "Anchor-4" 297 0 basechar 0
LayerCount: 2
Fore
SplineSet
584.75 97.75 m 2xe8
 597 65.5 603.5 38 635.5 38 c 0
 647.5 38 648.5 33 648.5 25 c 2
 648.5 13 l 2
 648.5 4 644.5 0 635.5 0 c 2
 418 0 l 2
 410 0 405 4 405 13 c 2
 405 25 l 2
 405 33 406 38 418 38 c 0
 472 38 492.75 63.25 476 110.5 c 2
 435.08984375 226 l 1
 163.41015625 226 l 1
 118.75 104.5 l 2
 103 62 136.75 38 185.5 38 c 0
 197.5 38 198.5 33 198.5 25 c 2
 198.5 13 l 2
 198.5 4 193.5 0 185.5 0 c 2
 18 0 l 2
 10 0 5 4 5 13 c 2
 5 25 l 2
 5 33 6 38 18 38 c 0
 46.5 38 58.25 64 72 102.25 c 2
 274 649 l 2
 276 656 281 660 289 660 c 2
 357.5 660 l 2
 364.5 660 369.5 656 372.5 649 c 2
 584.75 97.75 l 2xe8
296.76953125 -54.650390625 m 0
 312.109375 -54.650390625 324.579101562 -60.400390625 339.918945312 -75.740234375 c 0
 355.258789062 -91.080078125 361.018554688 -102.58984375 361.018554688 -117.9296875 c 0
 361.018554688 -133.26953125 354.298828125 -145.739257812 339.918945312 -160.119140625 c 0
 324.579101562 -175.46875 312.109375 -181.21875 296.76953125 -181.21875 c 0
 282.389648438 -181.21875 270.879882812 -175.46875 254.580078125 -160.119140625 c 0
 239.240234375 -145.739257812 233.48046875 -133.26953125 233.48046875 -117.9296875 c 0
 233.48046875 -102.58984375 239.240234375 -91.080078125 254.580078125 -75.740234375 c 0
 269.919921875 -60.400390625 282.389648438 -54.650390625 296.76953125 -54.650390625 c 0
321.5 795.439453125 m 1
 301.450195312 757.659179688 267.518554688 715.249023438 223.568359375 715.249023438 c 0
 200.428710938 715.249023438 189.638671875 737.609375 189.638671875 763.059570312 c 0
 189.638671875 774.619140625 190.408203125 784.649414062 198.888671875 788.499023438 c 0
 243.619140625 805.46875 266.749023438 817.029296875 321.499023438 860.989257812 c 1
 376.249023438 817.029296875 399.37890625 805.46875 444.109375 788.499023438 c 0
 452.58984375 784.649414062 453.359375 774.619140625 453.359375 763.059570312 c 0xf0
 453.359375 737.609375 442.569335938 715.249023438 419.4296875 715.249023438 c 0
 375.479492188 715.249023438 341.549804688 757.659179688 321.5 795.439453125 c 1
179.887695312 272.999023438 m 1
 417.6875 272.998046875 l 1
 297.927734375 595.728515625 l 1
 179.887695312 272.999023438 l 1
EndSplineSet
Substitution2: "'c2sc' Capitals to Small Capitals in Latin lookup 11 subtable" uni1EAC.sc
AlternateSubs2: "'aalt' Access All Alternates in Latin lookup 0 subtable" uni1EAC.sc
Position2: "'cpsp' Capital Spacing in Latin lookup 0 subtable" dx=5 dy=0 dh=10 dv=0
EndChar

StartChar: uni1EA6
Encoding: 7846 7846 16
Width: 655
GlyphClass: 2
Flags: MW
HStem: 640 20G<289 357.5 357.5 361> 715 146 824 161
VStem: 91 156 190 264
AnchorPoint: "Anchor-7" 153 1006 basechar 0
AnchorPoint: "Anchor-6" 636 0 basechar 0
AnchorPoint: "Anchor-5" 322 816 basechar 0
AnchorPoint: "Anchor-4" 297 0 basechar 0
LayerCount: 2
Fore
SplineSet
584.75 97.75 m 2xc8
 597 65.5 603.5 38 635.5 38 c 0
 647.5 38 648.5 33 648.5 25 c 2
 648.5 13 l 2
 648.5 4 644.5 0 635.5 0 c 2
 418 0 l 2
 410 0 405 4 405 13 c 2
 405 25 l 2
 405 33 406 38 418 38 c 0
 472 38 492.75 63.25 476 110.5 c 2
 435.08984375 226 l 1
 163.41015625 226 l 1
 118.75 104.5 l 2
 103 62 136.75 38 185.5 38 c 0
 197.5 38 198.5 33 198.5 25 c 2
 198.5 13 l 2
 198.5 4 193.5 0 185.5 0 c 2
 18 0 l 2
 10 0 5 4 5 13 c 2
 5 25 l 2
 5 33 6 38 18 38 c 0
 46.5 38 58.25 64 72 102.25 c 2
 274 649 l 2
 276 656 281 660 289 660 c 2
 357.5 660 l 2
 364.5 660 369.5 656 372.5 649 c 2
 584.75 97.75 l 2xc8
321.5 795.440429688 m 1
 301.450195312 757.66015625 267.518554688 715.249023438 223.568359375 715.249023438 c 0
 200.428710938 715.249023438 189.638671875 737.609375 189.638671875 763.059570312 c 0
 189.638671875 774.619140625 190.408203125 784.649414062 198.888671875 788.499023438 c 0
 243.619140625 805.46875 266.749023438 817.029296875 321.499023438 860.989257812 c 1
 376.249023438 817.029296875 399.37890625 805.469726562 444.109375 788.5 c 0
 452.58984375 784.650390625 453.359375 774.620117188 453.359375 763.060546875 c 0
 453.359375 737.610351562 442.569335938 715.25 419.4296875 715.25 c 0
 375.479492188 715.25 341.549804688 757.66015625 321.5 795.440429688 c 1
231.047851562 827.999023438 m 2
 225.587890625 825.279296875 221.078125 823.41015625 218.028320312 823.16015625 c 0
 214.908203125 822.950195312 211.228515625 824.509765625 207.678710938 826.509765625 c 0
 158.608398438 855.490234375 91.23828125 891.799804688 91.23828125 945.479492188 c 0
 91.23828125 970.689453125 105.958007812 984.999023438 134.998046875 984.999023438 c 0xb0
 146.057617188 984.999023438 156.327148438 982.508789062 160.876953125 972.508789062 c 0
 182.997070312 922.258789062 195.237304688 900.208984375 246.897460938 835.798828125 c 1xd0
 231.047851562 827.999023438 l 2
179.887695312 273 m 1
 417.6875 273 l 1
 297.927734375 595.73046875 l 1
 179.887695312 273 l 1
EndSplineSet
Substitution2: "'c2sc' Capitals to Small Capitals in Latin lookup 11 subtable" uni1EA6.sc
AlternateSubs2: "'aalt' Access All Alternates in Latin lookup 0 subtable" uni1EA6.sc
Position2: "'cpsp' Capital Spacing in Latin lookup 0 subtable" dx=5 dy=0 dh=10 dv=0
EndChar

StartChar: uni1EA8
Encoding: 7848 7848 17
Width: 655
GlyphClass: 2
Flags: MW
HStem: 640 20G<289 357.5 357.5 361> 715 146 925 62
VStem: 190 264 427 53
AnchorPoint: "Anchor-7" 415 1053 basechar 0
AnchorPoint: "Anchor-6" 636 0 basechar 0
AnchorPoint: "Anchor-5" 322 816 basechar 0
AnchorPoint: "Anchor-4" 297 0 basechar 0
LayerCount: 2
Fore
SplineSet
584.75 97.75 m 2xe8
 597 65.5 603.5 38 635.5 38 c 0
 647.5 38 648.5 33 648.5 25 c 2
 648.5 13 l 2
 648.5 4 644.5 0 635.5 0 c 2
 418 0 l 2
 410 0 405 4 405 13 c 2
 405 25 l 2
 405 33 406 38 418 38 c 0
 472 38 492.75 63.25 476 110.5 c 2
 435.08984375 226 l 1
 163.41015625 226 l 1
 118.75 104.5 l 2
 103 62 136.75 38 185.5 38 c 0
 197.5 38 198.5 33 198.5 25 c 2
 198.5 13 l 2
 198.5 4 193.5 0 185.5 0 c 2
 18 0 l 2
 10 0 5 4 5 13 c 2
 5 25 l 2
 5 33 6 38 18 38 c 0
 46.5 38 58.25 64 72 102.25 c 2
 274 649 l 2
 276 656 281 660 289 660 c 2
 357.5 660 l 2
 364.5 660 369.5 656 372.5 649 c 2
 584.75 97.75 l 2xe8
321.5 795.440429688 m 1
 301.450195312 757.66015625 267.518554688 715.249023438 223.568359375 715.249023438 c 0
 200.428710938 715.249023438 189.638671875 737.609375 189.638671875 763.059570312 c 0
 189.638671875 774.619140625 190.408203125 784.649414062 198.888671875 788.499023438 c 0
 243.619140625 805.46875 266.749023438 817.029296875 321.499023438 860.989257812 c 1
 376.249023438 817.029296875 399.37890625 805.469726562 444.109375 788.5 c 0
 452.58984375 784.650390625 453.359375 774.620117188 453.359375 763.060546875 c 0xf0
 453.359375 737.610351562 442.569335938 715.25 419.4296875 715.25 c 0
 375.479492188 715.25 341.549804688 757.66015625 321.5 795.440429688 c 1
442.877929688 826.549804688 m 0
 434.677734375 815.83984375 399.528320312 837.8203125 405.047851562 846.30078125 c 0
 414.498046875 861.55078125 427.278320312 875.9609375 427.278320312 896.69140625 c 0
 427.278320312 917.861328125 414.41796875 924.971679688 400.377929688 924.971679688 c 0
 381.278320312 924.971679688 368.028320312 908.08203125 363.1484375 916.311523438 c 0
 355.438476562 929.411132812 345.118164062 943.861328125 347.158203125 959.750976562 c 0
 348.2578125 969.810546875 378.2578125 987.400390625 408.998046875 987.400390625 c 0
 462.778320312 987.400390625 480.248046875 945.630859375 480.248046875 913.650390625 c 0xe8
 480.248046875 886.8203125 466.377929688 856.629882812 442.877929688 826.549804688 c 0
179.87890625 273 m 1
 417.678710938 273 l 1
 297.918945312 595.73046875 l 1
 179.87890625 273 l 1
EndSplineSet
Substitution2: "'c2sc' Capitals to Small Capitals in Latin lookup 11 subtable" uni1EA8.sc
AlternateSubs2: "'aalt' Access All Alternates in Latin lookup 0 subtable" uni1EA8.sc
Position2: "'cpsp' Capital Spacing in Latin lookup 0 subtable" dx=5 dy=0 dh=10 dv=0
EndChar

StartChar: uni1EAA
Encoding: 7850 7850 18
Width: 655
GlyphClass: 2
Flags: MW
HStem: 640 20G<289 357.5 357.5 361> 715 146 881 51 965 50
VStem: 180 55 190 264 408 55
AnchorPoint: "Anchor-7" 322 759 basechar 0
AnchorPoint: "Anchor-6" 636 0 basechar 0
AnchorPoint: "Anchor-5" 322 1001 basechar 0
AnchorPoint: "Anchor-4" 297 0 basechar 0
LayerCount: 2
Fore
SplineSet
584.75 97.75 m 2xf8
 597 65.5 603.5 38 635.5 38 c 0
 647.5 38 648.5 33 648.5 25 c 2
 648.5 13 l 2
 648.5 4 644.5 0 635.5 0 c 2
 418 0 l 2
 410 0 405 4 405 13 c 2
 405 25 l 2
 405 33 406 38 418 38 c 0
 472 38 492.75 63.25 476 110.5 c 2
 435.08984375 226 l 1
 163.41015625 226 l 1
 118.75 104.5 l 2
 103 62 136.75 38 185.5 38 c 0
 197.5 38 198.5 33 198.5 25 c 2
 198.5 13 l 2
 198.5 4 193.5 0 185.5 0 c 2
 18 0 l 2
 10 0 5 4 5 13 c 2
 5 25 l 2
 5 33 6 38 18 38 c 0
 46.5 38 58.25 64 72 102.25 c 2
 274 649 l 2
 276 656 281 660 289 660 c 2
 357.5 660 l 2
 364.5 660 369.5 656 372.5 649 c 2
 584.75 97.75 l 2xf8
321.5 795.440429688 m 1
 301.450195312 757.66015625 267.518554688 715.249023438 223.568359375 715.249023438 c 0
 200.428710938 715.249023438 189.638671875 737.609375 189.638671875 763.059570312 c 0
 189.638671875 774.619140625 190.408203125 784.649414062 198.888671875 788.499023438 c 0
 243.619140625 805.46875 266.749023438 817.029296875 321.499023438 860.989257812 c 1
 376.249023438 817.029296875 399.37890625 805.469726562 444.109375 788.5 c 0
 452.58984375 784.650390625 453.359375 774.620117188 453.359375 763.060546875 c 0xf4
 453.359375 737.610351562 442.569335938 715.25 419.4296875 715.25 c 0
 375.479492188 715.25 341.549804688 757.66015625 321.5 795.440429688 c 1
339.658203125 961.619140625 m 0
 353.958007812 939.508789062 365.439453125 931.587890625 379.489257812 931.587890625 c 0
 397.489257812 931.587890625 408.239257812 945.877929688 408.239257812 964.337890625 c 0
 408.239257812 975.397460938 405.87890625 987.137695312 398.838867188 999.288085938 c 1
 407.579101562 1007.13769531 420.2890625 1015.58789062 431.489257812 1015.58789062 c 0
 445.189453125 1015.58789062 462.739257812 989.91796875 462.739257812 960.337890625 c 0xfa
 462.739257812 910.958007812 427.219726562 881.087890625 389.489257812 881.087890625 c 0
 335.838867188 881.087890625 317.249023438 910.208007812 303.569335938 933.6484375 c 0
 290.588867188 957.008789062 278.5390625 965.088867188 264.489257812 965.088867188 c 0
 246.489257812 965.088867188 234.739257812 948.888671875 234.739257812 931.338867188 c 0
 234.739257812 919.96875 237.87890625 908.249023438 245.0390625 896.329101562 c 1
 236.258789062 888.508789062 223.438476562 880.088867188 211.48828125 880.088867188 c 0
 198.5078125 880.088867188 180.23828125 905.749023438 180.23828125 934.338867188 c 0xf8
 180.23828125 984.62890625 216.66796875 1014.58886719 254.48828125 1014.58886719 c 0
 307.248046875 1014.58886719 326.658203125 983.588867188 339.658203125 961.619140625 c 0
179.879882812 273.0078125 m 1
 417.6796875 273.0078125 l 1
 297.919921875 595.73828125 l 1
 179.879882812 273.0078125 l 1
EndSplineSet
Substitution2: "'c2sc' Capitals to Small Capitals in Latin lookup 11 subtable" uni1EAA.sc
AlternateSubs2: "'aalt' Access All Alternates in Latin lookup 0 subtable" uni1EAA.sc
Position2: "'cpsp' Capital Spacing in Latin lookup 0 subtable" dx=5 dy=0 dh=10 dv=0
EndChar

StartChar: uni0200
Encoding: 512 512 19
Width: 655
GlyphClass: 2
Flags: MW
HStem: 640 20G<289 357.5 357.5 361> 717 161
VStem: 173 156 346 156
AnchorPoint: "Anchor-6" 636 0 basechar 0
AnchorPoint: "Anchor-5" 322 899 basechar 0
AnchorPoint: "Anchor-4" 297 0 basechar 0
LayerCount: 2
Fore
SplineSet
584.75 97.75 m 2
 597 65.5 603.5 38 635.5 38 c 0
 647.5 38 648.5 33 648.5 25 c 2
 648.5 13 l 2
 648.5 4 644.5 0 635.5 0 c 2
 418 0 l 2
 410 0 405 4 405 13 c 2
 405 25 l 2
 405 33 406 38 418 38 c 0
 472 38 492.75 63.25 476 110.5 c 2
 435.08984375 226 l 1
 163.41015625 226 l 1
 118.75 104.5 l 2
 103 62 136.75 38 185.5 38 c 0
 197.5 38 198.5 33 198.5 25 c 2
 198.5 13 l 2
 198.5 4 193.5 0 185.5 0 c 2
 18 0 l 2
 10 0 5 4 5 13 c 2
 5 25 l 2
 5 33 6 38 18 38 c 0
 46.5 38 58.25 64 72 102.25 c 2
 274 649 l 2
 276 656 281 660 289 660 c 2
 357.5 660 l 2
 364.5 660 369.5 656 372.5 649 c 2
 584.75 97.75 l 2
486.01953125 721.349609375 m 2
 480.549804688 718.629882812 476.0390625 716.73046875 472.999023438 716.48046875 c 0
 469.869140625 716.280273438 466.189453125 717.83984375 462.639648438 719.83984375 c 0
 413.580078125 748.819335938 346.209960938 785.139648438 346.209960938 838.809570312 c 0
 346.209960938 864.01953125 360.9296875 878.33984375 389.959960938 878.33984375 c 0
 401.01953125 878.33984375 411.2890625 875.849609375 415.838867188 865.849609375 c 0
 437.958984375 815.599609375 450.208984375 793.549804688 501.859375 729.149414062 c 1
 486.01953125 721.349609375 l 2
313.3984375 721.330078125 m 2
 307.938476562 718.610351562 303.427734375 716.7109375 300.377929688 716.4609375 c 0
 297.2578125 716.260742188 293.578125 717.8203125 290.028320312 719.8203125 c 0
 240.958007812 748.799804688 173.587890625 785.120117188 173.587890625 838.790039062 c 0
 173.587890625 864 188.307617188 878.3203125 217.337890625 878.3203125 c 0
 228.408203125 878.3203125 238.677734375 875.830078125 243.227539062 865.830078125 c 0
 265.34765625 815.580078125 277.587890625 793.530273438 329.248046875 729.129882812 c 1
 313.3984375 721.330078125 l 2
179.887695312 272.9609375 m 1
 417.6875 272.9609375 l 1
 297.927734375 595.69140625 l 1
 179.887695312 272.9609375 l 1
EndSplineSet
Substitution2: "'c2sc' Capitals to Small Capitals in Latin lookup 11 subtable" uni0200.sc
AlternateSubs2: "'aalt' Access All Alternates in Latin lookup 0 subtable" uni0200.sc
Position2: "'cpsp' Capital Spacing in Latin lookup 0 subtable" dx=5 dy=0 dh=10 dv=0
EndChar

StartChar: Adieresis
Encoding: 196 196 20
Width: 655
GlyphClass: 2
Flags: MW
HStem: 640 20G<289 357.5 357.5 361> 722 127
VStem: 156 128 361 128
AnchorPoint: "Anchor-6" 636 0 basechar 0
AnchorPoint: "Anchor-5" 322 845 basechar 0
AnchorPoint: "Anchor-4" 297 0 basechar 0
LayerCount: 2
Fore
SplineSet
584.75 97.75 m 2
 597 65.5 603.5 38 635.5 38 c 0
 647.5 38 648.5 33 648.5 25 c 2
 648.5 13 l 2
 648.5 4 644.5 0 635.5 0 c 2
 418 0 l 2
 410 0 405 4 405 13 c 2
 405 25 l 2
 405 33 406 38 418 38 c 0
 472 38 492.75 63.25 476 110.5 c 2
 435.08984375 226 l 1
 163.41015625 226 l 1
 118.75 104.5 l 2
 103 62 136.75 38 185.5 38 c 0
 197.5 38 198.5 33 198.5 25 c 2
 198.5 13 l 2
 198.5 4 193.5 0 185.5 0 c 2
 18 0 l 2
 10 0 5 4 5 13 c 2
 5 25 l 2
 5 33 6 38 18 38 c 0
 46.5 38 58.25 64 72 102.25 c 2
 274 649 l 2
 276 656 281 660 289 660 c 2
 357.5 660 l 2
 364.5 660 369.5 656 372.5 649 c 2
 584.75 97.75 l 2
218.919921875 848.290039062 m 0
 234.259765625 848.290039062 246.729492188 842.530273438 262.069335938 827.190429688 c 0
 277.409179688 811.850585938 283.168945312 800.340820312 283.168945312 785.000976562 c 0
 283.168945312 769.661132812 276.44921875 757.19140625 262.069335938 742.811523438 c 0
 246.729492188 727.471679688 234.259765625 721.711914062 218.919921875 721.711914062 c 0
 204.540039062 721.711914062 193.030273438 727.471679688 176.73046875 742.811523438 c 0
 161.390625 757.19140625 155.640625 769.661132812 155.640625 785.000976562 c 0
 155.640625 800.340820312 161.390625 811.850585938 176.73046875 827.190429688 c 0
 192.0703125 842.530273438 204.540039062 848.290039062 218.919921875 848.290039062 c 0
423.919921875 848.290039062 m 0
 439.259765625 848.290039062 451.729492188 842.530273438 467.069335938 827.190429688 c 0
 482.409179688 811.850585938 488.168945312 800.340820312 488.168945312 785.000976562 c 0
 488.168945312 769.661132812 481.44921875 757.19140625 467.069335938 742.811523438 c 0
 451.729492188 727.471679688 439.259765625 721.711914062 423.919921875 721.711914062 c 0
 409.540039062 721.711914062 398.030273438 727.471679688 381.73046875 742.811523438 c 0
 366.390625 757.19140625 360.640625 769.661132812 360.640625 785.000976562 c 0
 360.640625 800.340820312 366.390625 811.850585938 381.73046875 827.190429688 c 0
 397.0703125 842.530273438 409.540039062 848.290039062 423.919921875 848.290039062 c 0
179.889648438 273 m 1
 417.689453125 273 l 1
 297.9296875 595.73046875 l 1
 179.889648438 273 l 1
EndSplineSet
Substitution2: "'c2sc' Capitals to Small Capitals in Latin lookup 11 subtable" Adieresis.sc
AlternateSubs2: "'aalt' Access All Alternates in Latin lookup 0 subtable" Adieresis.sc
Position2: "'cpsp' Capital Spacing in Latin lookup 0 subtable" dx=5 dy=0 dh=10 dv=0
EndChar

StartChar: uni1EA0
Encoding: 7840 7840 21
Width: 655
GlyphClass: 2
Flags: MW
HStem: -181 127 640 20G<289 357.5 357.5 361>
VStem: 233 128
AnchorPoint: "Anchor-6" 636 0 basechar 0
AnchorPoint: "Anchor-5" 322 660 basechar 0
AnchorPoint: "Anchor-4" 297 0 basechar 0
LayerCount: 2
Fore
SplineSet
584.75 97.75 m 2
 597 65.5 603.5 38 635.5 38 c 0
 647.5 38 648.5 33 648.5 25 c 2
 648.5 13 l 2
 648.5 4 644.5 0 635.5 0 c 2
 418 0 l 2
 410 0 405 4 405 13 c 2
 405 25 l 2
 405 33 406 38 418 38 c 0
 472 38 492.75 63.25 476 110.5 c 2
 435.08984375 226 l 1
 163.41015625 226 l 1
 118.75 104.5 l 2
 103 62 136.75 38 185.5 38 c 0
 197.5 38 198.5 33 198.5 25 c 2
 198.5 13 l 2
 198.5 4 193.5 0 185.5 0 c 2
 18 0 l 2
 10 0 5 4 5 13 c 2
 5 25 l 2
 5 33 6 38 18 38 c 0
 46.5 38 58.25 64 72 102.25 c 2
 274 649 l 2
 276 656 281 660 289 660 c 2
 357.5 660 l 2
 364.5 660 369.5 656 372.5 649 c 2
 584.75 97.75 l 2
296.76953125 -54.650390625 m 0
 312.109375 -54.650390625 324.579101562 -60.400390625 339.918945312 -75.740234375 c 0
 355.258789062 -91.080078125 361.018554688 -102.58984375 361.018554688 -117.9296875 c 0
 361.018554688 -133.26953125 354.298828125 -145.739257812 339.918945312 -160.119140625 c 0
 324.579101562 -175.46875 312.109375 -181.21875 296.76953125 -181.21875 c 0
 282.389648438 -181.21875 270.879882812 -175.46875 254.580078125 -160.119140625 c 0
 239.240234375 -145.739257812 233.48046875 -133.26953125 233.48046875 -117.9296875 c 0
 233.48046875 -102.58984375 239.240234375 -91.080078125 254.580078125 -75.740234375 c 0
 269.919921875 -60.400390625 282.389648438 -54.650390625 296.76953125 -54.650390625 c 0
179.889648438 273 m 1
 417.689453125 273 l 1
 297.9296875 595.73046875 l 1
 179.889648438 273 l 1
EndSplineSet
Substitution2: "'c2sc' Capitals to Small Capitals in Latin lookup 11 subtable" uni1EA0.sc
AlternateSubs2: "'aalt' Access All Alternates in Latin lookup 0 subtable" uni1EA0.sc
Position2: "'cpsp' Capital Spacing in Latin lookup 0 subtable" dx=5 dy=0 dh=10 dv=0
EndChar

StartChar: Agrave
Encoding: 192 192 22
Width: 655
GlyphClass: 2
Flags: MW
HStem: 640 20G<289 357.5 357.5 361> 717 161
VStem: 235 156
AnchorPoint: "Anchor-6" 636 0 basechar 0
AnchorPoint: "Anchor-5" 297 899 basechar 0
AnchorPoint: "Anchor-4" 297 0 basechar 0
LayerCount: 2
Fore
SplineSet
584.75 97.75 m 2
 597 65.5 603.5 38 635.5 38 c 0
 647.5 38 648.5 33 648.5 25 c 2
 648.5 13 l 2
 648.5 4 644.5 0 635.5 0 c 2
 418 0 l 2
 410 0 405 4 405 13 c 2
 405 25 l 2
 405 33 406 38 418 38 c 0
 472 38 492.75 63.25 476 110.5 c 2
 435.08984375 226 l 1
 163.41015625 226 l 1
 118.75 104.5 l 2
 103 62 136.75 38 185.5 38 c 0
 197.5 38 198.5 33 198.5 25 c 2
 198.5 13 l 2
 198.5 4 193.5 0 185.5 0 c 2
 18 0 l 2
 10 0 5 4 5 13 c 2
 5 25 l 2
 5 33 6 38 18 38 c 0
 46.5 38 58.25 64 72 102.25 c 2
 274 649 l 2
 276 656 281 660 289 660 c 2
 357.5 660 l 2
 364.5 660 369.5 656 372.5 649 c 2
 584.75 97.75 l 2
374.669921875 721.349609375 m 2
 369.209960938 718.629882812 364.688476562 716.73046875 361.6484375 716.48046875 c 0
 358.518554688 716.280273438 354.838867188 717.83984375 351.2890625 719.83984375 c 0
 302.229492188 748.819335938 234.859375 785.139648438 234.859375 838.809570312 c 0
 234.859375 864.01953125 249.579101562 878.33984375 278.609375 878.33984375 c 0
 289.668945312 878.33984375 299.94921875 875.849609375 304.499023438 865.849609375 c 0
 326.609375 815.599609375 338.859375 793.549804688 390.51953125 729.149414062 c 1
 374.669921875 721.349609375 l 2
179.887695312 272.98046875 m 1
 417.6875 272.98046875 l 1
 297.927734375 595.7109375 l 1
 179.887695312 272.98046875 l 1
EndSplineSet
Substitution2: "'c2sc' Capitals to Small Capitals in Latin lookup 11 subtable" Agrave.sc
AlternateSubs2: "'aalt' Access All Alternates in Latin lookup 0 subtable" Agrave.sc
Position2: "'cpsp' Capital Spacing in Latin lookup 0 subtable" dx=5 dy=0 dh=10 dv=0
EndChar

StartChar: uni1EA2
Encoding: 7842 7842 23
Width: 655
GlyphClass: 2
Flags: MW
HStem: 640 20G<289 357.5 357.5 361> 818 62
VStem: 334 53
AnchorPoint: "Anchor-6" 636 0 basechar 0
AnchorPoint: "Anchor-5" 322 946 basechar 0
AnchorPoint: "Anchor-4" 297 0 basechar 0
LayerCount: 2
Fore
SplineSet
584.75 97.75 m 2
 597 65.5 603.5 38 635.5 38 c 0
 647.5 38 648.5 33 648.5 25 c 2
 648.5 13 l 2
 648.5 4 644.5 0 635.5 0 c 2
 418 0 l 2
 410 0 405 4 405 13 c 2
 405 25 l 2
 405 33 406 38 418 38 c 0
 472 38 492.75 63.25 476 110.5 c 2
 435.08984375 226 l 1
 163.41015625 226 l 1
 118.75 104.5 l 2
 103 62 136.75 38 185.5 38 c 0
 197.5 38 198.5 33 198.5 25 c 2
 198.5 13 l 2
 198.5 4 193.5 0 185.5 0 c 2
 18 0 l 2
 10 0 5 4 5 13 c 2
 5 25 l 2
 5 33 6 38 18 38 c 0
 46.5 38 58.25 64 72 102.25 c 2
 274 649 l 2
 276 656 281 660 289 660 c 2
 357.5 660 l 2
 364.5 660 369.5 656 372.5 649 c 2
 584.75 97.75 l 2
349.379882812 719.900390625 m 0
 341.1796875 709.190429688 306.030273438 731.169921875 311.549804688 739.650390625 c 0
 321 754.900390625 333.780273438 769.310546875 333.780273438 790.040039062 c 0
 333.780273438 811.200195312 320.919921875 818.3203125 306.879882812 818.3203125 c 0
 287.780273438 818.3203125 274.530273438 801.430664062 269.650390625 809.650390625 c 0
 261.940429688 822.760742188 251.620117188 837.2109375 253.66015625 853.100585938 c 0
 254.759765625 863.16015625 284.759765625 880.75 315.5 880.75 c 0
 369.280273438 880.75 386.75 838.98046875 386.75 807.000976562 c 0
 386.75 780.170898438 372.879882812 749.98046875 349.379882812 719.900390625 c 0
179.890625 272.999023438 m 1
 417.690429688 272.998046875 l 1
 297.930664062 595.728515625 l 1
 179.890625 272.999023438 l 1
EndSplineSet
Substitution2: "'c2sc' Capitals to Small Capitals in Latin lookup 11 subtable" uni1EA2.sc
AlternateSubs2: "'aalt' Access All Alternates in Latin lookup 0 subtable" uni1EA2.sc
Position2: "'cpsp' Capital Spacing in Latin lookup 0 subtable" dx=5 dy=0 dh=10 dv=0
EndChar

StartChar: uni0202
Encoding: 514 514 24
Width: 655
GlyphClass: 2
Flags: MW
HStem: 640 20G<289 357.5 357.5 361> 825 48
VStem: 196 256
AnchorPoint: "Anchor-6" 636 0 basechar 0
AnchorPoint: "Anchor-5" 322 899 basechar 0
AnchorPoint: "Anchor-4" 297 0 basechar 0
LayerCount: 2
Fore
SplineSet
584.75 97.75 m 2
 597 65.5 603.5 38 635.5 38 c 0
 647.5 38 648.5 33 648.5 25 c 2
 648.5 13 l 2
 648.5 4 644.5 0 635.5 0 c 2
 418 0 l 2
 410 0 405 4 405 13 c 2
 405 25 l 2
 405 33 406 38 418 38 c 0
 472 38 492.75 63.25 476 110.5 c 2
 435.08984375 226 l 1
 163.41015625 226 l 1
 118.75 104.5 l 2
 103 62 136.75 38 185.5 38 c 0
 197.5 38 198.5 33 198.5 25 c 2
 198.5 13 l 2
 198.5 4 193.5 0 185.5 0 c 2
 18 0 l 2
 10 0 5 4 5 13 c 2
 5 25 l 2
 5 33 6 38 18 38 c 0
 46.5 38 58.25 64 72 102.25 c 2
 274 649 l 2
 276 656 281 660 289 660 c 2
 357.5 660 l 2
 364.5 660 369.5 656 372.5 649 c 2
 584.75 97.75 l 2
323.5 873 m 0
 414.5 873 451.643554688 803.229492188 451.643554688 767.369140625 c 0
 451.643554688 757.369140625 446.423828125 753.529296875 436.643554688 752.369140625 c 0
 429.36328125 751.51953125 413.8828125 750.19921875 406.47265625 749.6796875 c 0
 394.663085938 748.6796875 390.592773438 752.049804688 389.913085938 765.009765625 c 0
 386.802734375 801.629882812 363.112304688 824.629882812 323.501953125 824.629882812 c 0
 284.141601562 824.629882812 260.451171875 801.629882812 257.340820312 765.009765625 c 0
 256.411132812 752.049804688 252.590820312 748.6796875 240.78125 749.6796875 c 0
 233.12109375 750.200195312 217.890625 751.520507812 210.360351562 752.370117188 c 0
 200.580078125 753.530273438 195.360351562 757.370117188 195.360351562 767.370117188 c 0
 195.360351562 803.23046875 232.75 873 323.5 873 c 0
179.893554688 273 m 1
 417.693359375 273 l 1
 297.93359375 595.73046875 l 1
 179.893554688 273 l 1
EndSplineSet
Substitution2: "'c2sc' Capitals to Small Capitals in Latin lookup 11 subtable" uni0202.sc
AlternateSubs2: "'aalt' Access All Alternates in Latin lookup 0 subtable" uni0202.sc
Position2: "'cpsp' Capital Spacing in Latin lookup 0 subtable" dx=5 dy=0 dh=10 dv=0
EndChar

StartChar: Amacron
Encoding: 256 256 25
Width: 655
GlyphClass: 2
Flags: MW
HStem: 640 20G<289 357.5 357.5 361>
VStem: 199 247
AnchorPoint: "Anchor-6" 636 0 basechar 0
AnchorPoint: "Anchor-5" 322 752 basechar 0
AnchorPoint: "Anchor-4" 297 0 basechar 0
LayerCount: 2
Fore
SplineSet
584.75 97.75 m 2
 597 65.5 603.5 38 635.5 38 c 0
 647.5 38 648.5 33 648.5 25 c 2
 648.5 13 l 2
 648.5 4 644.5 0 635.5 0 c 2
 418 0 l 2
 410 0 405 4 405 13 c 2
 405 25 l 2
 405 33 406 38 418 38 c 0
 472 38 492.75 63.25 476 110.5 c 2
 435.08984375 226 l 1
 163.41015625 226 l 1
 118.75 104.5 l 2
 103 62 136.75 38 185.5 38 c 0
 197.5 38 198.5 33 198.5 25 c 2
 198.5 13 l 2
 198.5 4 193.5 0 185.5 0 c 2
 18 0 l 2
 10 0 5 4 5 13 c 2
 5 25 l 2
 5 33 6 38 18 38 c 0
 46.5 38 58.25 64 72 102.25 c 2
 274 649 l 2
 276 656 281 660 289 660 c 2
 357.5 660 l 2
 364.5 660 369.5 656 372.5 649 c 2
 584.75 97.75 l 2
445 734 m 2
 445 726 441 721 432 721 c 2
 211 721 l 2
 202 721 198 726 198 734 c 2
 198 764.5 l 2
 198 773.5 202 777.5 211 777.5 c 2
 432 777.5 l 2
 441 777.5 445 773.5 445 764.5 c 2
 445 734 l 2
179.889648438 273 m 1
 417.689453125 273 l 1
 297.9296875 595.73046875 l 1
 179.889648438 273 l 1
EndSplineSet
Substitution2: "'c2sc' Capitals to Small Capitals in Latin lookup 11 subtable" Amacron.sc
AlternateSubs2: "'aalt' Access All Alternates in Latin lookup 0 subtable" Amacron.sc
Position2: "'cpsp' Capital Spacing in Latin lookup 0 subtable" dx=5 dy=0 dh=10 dv=0
EndChar

StartChar: Aogonek
Encoding: 260 260 26
Width: 655
GlyphClass: 2
Flags: MW
HStem: 640 20G<289 357.5 357.5 361>
AnchorPoint: "Anchor-6" 636 0 basechar 0
AnchorPoint: "Anchor-5" 322 660 basechar 0
AnchorPoint: "Anchor-4" 297 0 basechar 0
LayerCount: 2
Fore
SplineSet
584.75 97.75 m 2
 597 65.5 603.501953125 38 635.501953125 38 c 0
 647.501953125 38 648.501953125 33 648.501953125 25 c 2
 648.501953125 13 l 2
 648.501953125 8.7099609375 647.591796875 5.5595703125 645.671875 3.4296875 c 0
 644.671875 2.0595703125 642.841796875 1.099609375 640.561523438 0.5498046875 c 0
 639.1015625 0.1796875 637.411132812 0 635.500976562 0 c 0
 624.500976562 -0 522.060546875 -13.900390625 522.060546875 -97.0205078125 c 0
 522.060546875 -149.4609375 554.030273438 -174.100585938 611.580078125 -174.100585938 c 0
 652.5 -174.100585938 688.5 -147.000976562 697.5 -147.000976562 c 0
 701.5 -147.000976562 705.5 -151.000976562 705.5 -158.000976562 c 2
 705.5 -178.000976562 l 2
 705.5 -184.000976562 703.5 -189.000976562 698.5 -192.000976562 c 0
 665.5 -212.000976562 632.5 -223.000976562 602.5 -223.000976562 c 0
 506.5 -223.000976562 463.5 -161.000976562 463.5 -107.000976562 c 0
 463.5 -55.060546875 494.950195312 -21.150390625 530.299804688 0 c 1
 418 0 l 2
 410 0 405 4 405 13 c 2
 405 25 l 2
 405 33 406 38 418 38 c 0
 472 38 492.75 63.25 476 110.5 c 2
 435.08984375 226 l 1
 163.41015625 226 l 1
 118.75 104.5 l 2
 103 62 136.75 38 185.5 38 c 0
 197.5 38 198.5 33 198.5 25 c 2
 198.5 13 l 2
 198.5 4 193.5 0 185.5 0 c 2
 18 0 l 2
 10 0 5 4 5 13 c 2
 5 25 l 2
 5 33 6 38 18 38 c 0
 46.5 38 58.25 64 72 102.25 c 2
 274 649 l 2
 276 656 281 660 289 660 c 2
 357.5 660 l 2
 364.5 660 369.5 656 372.5 649 c 2
 584.75 97.75 l 2
179.891601562 273 m 1
 417.69140625 273 l 1
 297.931640625 595.73046875 l 1
 179.891601562 273 l 1
EndSplineSet
Substitution2: "'c2sc' Capitals to Small Capitals in Latin lookup 11 subtable" Aogonek.sc
AlternateSubs2: "'aalt' Access All Alternates in Latin lookup 0 subtable" Aogonek.sc
Position2: "'cpsp' Capital Spacing in Latin lookup 0 subtable" dx=5 dy=0 dh=10 dv=0
EndChar

StartChar: Aring
Encoding: 197 197 27
Width: 655
GlyphClass: 2
Flags: MW
HStem: 640 20G 687 20G 763 49
VStem: 361 54
AnchorPoint: "Anchor-6" 636 0 basechar 0
AnchorPoint: "Anchor-5" 318 772 basechar 0
AnchorPoint: "Anchor-4" 297 0 basechar 0
LayerCount: 2
Fore
SplineSet
584.75 97.75 m 2
 597 65.5 603.500976562 37.9892578125 635.500976562 37.9892578125 c 0
 647.500976562 37.9892578125 648.500976562 32.9892578125 648.500976562 24.9892578125 c 2
 648.500976562 12.9892578125 l 2
 648.500976562 3.9892578125 644.500976562 -0.0107421875 635.500976562 -0.0107421875 c 2
 418.000976562 -0.0107421875 l 2
 410.000976562 -0.0107421875 405.000976562 3.9892578125 405.000976562 12.9892578125 c 2
 405.000976562 24.9892578125 l 2
 405.000976562 32.9892578125 406.000976562 37.9892578125 418.000976562 37.9892578125 c 0
 472.000976562 37.9892578125 492.750976562 63.2392578125 476.000976562 110.489257812 c 2
 435.090820312 225.989257812 l 1
 163.411132812 225.989257812 l 1
 118.750976562 104.489257812 l 2
 103.000976562 61.9892578125 136.750976562 37.9892578125 185.500976562 37.9892578125 c 0
 197.500976562 37.9892578125 198.500976562 32.9892578125 198.500976562 24.9892578125 c 2
 198.500976562 12.9892578125 l 2
 198.500976562 3.9892578125 193.500976562 -0.0107421875 185.500976562 -0.0107421875 c 2
 18.0009765625 -0.0107421875 l 2
 10.0009765625 -0.0107421875 5.0009765625 3.9892578125 5.0009765625 12.9892578125 c 2
 5.0009765625 24.9892578125 l 2
 5.0009765625 32.9892578125 6.0009765625 37.9892578125 18.0009765625 37.9892578125 c 0
 46.5009765625 37.9892578125 58.2509765625 63.9892578125 72.0009765625 102.239257812 c 2
 271.130859375 641.239257812 l 1
 241.100585938 656.708984375 221.000976562 686.569335938 221.000976562 720.889648438 c 0
 221.000976562 771.909179688 264.05078125 812.569335938 318.270507812 812.569335938 c 0
 371.680664062 812.569335938 414.73046875 771.909179688 414.73046875 720.889648438 c 0
 414.73046875 690.009765625 398.470703125 662.759765625 373.530273438 646.330078125 c 1
 584.75 97.75 l 2
275.2109375 720.87890625 m 0
 275.2109375 696.159179688 291.9609375 679.418945312 318.270507812 679.418945312 c 0
 343.780273438 679.418945312 360.520507812 696.159179688 360.520507812 720.87890625 c 0
 360.520507812 746.388671875 343.780273438 763.12890625 318.270507812 763.12890625 c 0
 291.9609375 763.12890625 275.2109375 746.388671875 275.2109375 720.87890625 c 0
179.890625 272.989257812 m 1
 417.690429688 272.98828125 l 1
 297.930664062 595.71875 l 1
 179.890625 272.989257812 l 1
EndSplineSet
Substitution2: "'c2sc' Capitals to Small Capitals in Latin lookup 11 subtable" Aring.sc
AlternateSubs2: "'aalt' Access All Alternates in Latin lookup 0 subtable" Aring.sc
Position2: "'cpsp' Capital Spacing in Latin lookup 0 subtable" dx=5 dy=0 dh=10 dv=0
EndChar

StartChar: Aringacute
Encoding: 506 506 28
Width: 655
GlyphClass: 2
Flags: MW
HStem: 640 20G 687 20G 763 49 829 161
VStem: 256 156 361 54
AnchorPoint: "Anchor-6" 636 0 basechar 0
AnchorPoint: "Anchor-5" 350 1011 basechar 0
AnchorPoint: "Anchor-4" 297 0 basechar 0
LayerCount: 2
Fore
SplineSet
584.75 97.75 m 2xf4
 597 65.5 603.500976562 37.9892578125 635.500976562 37.9892578125 c 0
 647.500976562 37.9892578125 648.500976562 32.9892578125 648.500976562 24.9892578125 c 2
 648.500976562 12.9892578125 l 2
 648.500976562 3.9892578125 644.500976562 -0.0107421875 635.500976562 -0.0107421875 c 2
 418.000976562 -0.0107421875 l 2
 410.000976562 -0.0107421875 405.000976562 3.9892578125 405.000976562 12.9892578125 c 2
 405.000976562 24.9892578125 l 2
 405.000976562 32.9892578125 406.000976562 37.9892578125 418.000976562 37.9892578125 c 0
 472.000976562 37.9892578125 492.750976562 63.2392578125 476.000976562 110.489257812 c 2
 435.090820312 225.989257812 l 1
 163.411132812 225.989257812 l 1
 118.750976562 104.489257812 l 2
 103.000976562 61.9892578125 136.750976562 37.9892578125 185.500976562 37.9892578125 c 0
 197.500976562 37.9892578125 198.500976562 32.9892578125 198.500976562 24.9892578125 c 2
 198.500976562 12.9892578125 l 2
 198.500976562 3.9892578125 193.500976562 -0.0107421875 185.500976562 -0.0107421875 c 2
 18.0009765625 -0.0107421875 l 2
 10.0009765625 -0.0107421875 5.0009765625 3.9892578125 5.0009765625 12.9892578125 c 2
 5.0009765625 24.9892578125 l 2
 5.0009765625 32.9892578125 6.0009765625 37.9892578125 18.0009765625 37.9892578125 c 0
 46.5009765625 37.9892578125 58.2509765625 63.9892578125 72.0009765625 102.239257812 c 2
 271.130859375 641.239257812 l 1
 241.100585938 656.708984375 221.000976562 686.569335938 221.000976562 720.889648438 c 0
 221.000976562 771.909179688 264.05078125 812.569335938 318.270507812 812.569335938 c 0
 371.680664062 812.569335938 414.73046875 771.909179688 414.73046875 720.889648438 c 0
 414.73046875 690.009765625 398.470703125 662.759765625 373.530273438 646.330078125 c 1
 584.75 97.75 l 2xf4
275.2109375 720.87890625 m 0
 275.2109375 696.159179688 291.9609375 679.418945312 318.270507812 679.418945312 c 0
 343.780273438 679.418945312 360.520507812 696.159179688 360.520507812 720.87890625 c 0
 360.520507812 746.388671875 343.780273438 763.12890625 318.270507812 763.12890625 c 0
 291.9609375 763.12890625 275.2109375 746.388671875 275.2109375 720.87890625 c 0
255.750976562 841.029296875 m 1xf8
 307.411132812 905.439453125 319.650390625 927.498046875 341.770507812 977.748046875 c 0
 346.3203125 987.748046875 356.58984375 990.228515625 367.66015625 990.228515625 c 0
 396.690429688 990.228515625 411.41015625 975.918945312 411.41015625 950.708984375 c 0
 411.41015625 897.029296875 344.040039062 860.71875 294.969726562 831.739257812 c 0
 291.419921875 829.739257812 287.740234375 828.1796875 284.620117188 828.389648438 c 0
 281.5703125 828.639648438 277.060546875 830.509765625 271.600585938 833.229492188 c 2
 255.750976562 841.029296875 l 1xf8
179.889648438 272.998046875 m 1
 417.689453125 272.998046875 l 1
 297.9296875 595.728515625 l 1
 179.889648438 272.998046875 l 1
EndSplineSet
Substitution2: "'c2sc' Capitals to Small Capitals in Latin lookup 11 subtable" Aringacute.sc
AlternateSubs2: "'aalt' Access All Alternates in Latin lookup 0 subtable" Aringacute.sc
Position2: "'cpsp' Capital Spacing in Latin lookup 0 subtable" dx=5 dy=0 dh=10 dv=0
EndChar

StartChar: Atilde
Encoding: 195 195 29
Width: 655
GlyphClass: 2
Flags: MW
HStem: 640 20G<289 357.5 357.5 361> 725 51 809 50
VStem: 180 55 408 55
AnchorPoint: "Anchor-6" 636 0 basechar 0
AnchorPoint: "Anchor-5" 322 845 basechar 0
AnchorPoint: "Anchor-4" 297 0 basechar 0
LayerCount: 2
Fore
SplineSet
584.75 97.75 m 2
 597 65.5 603.5 38 635.5 38 c 0
 647.5 38 648.5 33 648.5 25 c 2
 648.5 13 l 2
 648.5 4 644.5 0 635.5 0 c 2
 418 0 l 2
 410 0 405 4 405 13 c 2
 405 25 l 2
 405 33 406 38 418 38 c 0
 472 38 492.75 63.25 476 110.5 c 2
 435.08984375 226 l 1
 163.41015625 226 l 1
 118.75 104.5 l 2
 103 62 136.75 38 185.5 38 c 0
 197.5 38 198.5 33 198.5 25 c 2
 198.5 13 l 2
 198.5 4 193.5 0 185.5 0 c 2
 18 0 l 2
 10 0 5 4 5 13 c 2
 5 25 l 2
 5 33 6 38 18 38 c 0
 46.5 38 58.25 64 72 102.25 c 2
 274 649 l 2
 276 656 281 660 289 660 c 2
 357.5 660 l 2
 364.5 660 369.5 656 372.5 649 c 2
 584.75 97.75 l 2
339.66015625 805.290039062 m 0
 353.959960938 783.1796875 365.44140625 775.258789062 379.491210938 775.258789062 c 0
 397.491210938 775.258789062 408.241210938 789.548828125 408.241210938 808.008789062 c 0
 408.241210938 819.068359375 405.880859375 830.80859375 398.840820312 842.958984375 c 1
 407.581054688 850.80859375 420.291015625 859.258789062 431.491210938 859.258789062 c 0
 445.19140625 859.258789062 462.741210938 833.588867188 462.741210938 804.008789062 c 0
 462.741210938 754.62890625 427.221679688 724.758789062 389.491210938 724.758789062 c 0
 335.840820312 724.758789062 317.250976562 753.87890625 303.571289062 777.319335938 c 0
 290.590820312 800.6796875 278.541015625 808.759765625 264.491210938 808.759765625 c 0
 246.491210938 808.759765625 234.741210938 792.559570312 234.741210938 775.009765625 c 0
 234.741210938 763.639648438 237.880859375 751.919921875 245.041015625 740 c 1
 236.260742188 732.1796875 223.440429688 723.759765625 211.490234375 723.759765625 c 0
 198.509765625 723.759765625 180.240234375 749.419921875 180.240234375 778.009765625 c 0
 180.240234375 828.299804688 216.669921875 858.259765625 254.490234375 858.259765625 c 0
 307.25 858.259765625 326.66015625 827.259765625 339.66015625 805.290039062 c 0
179.881835938 273.008789062 m 1
 417.681640625 273.0078125 l 1
 297.921875 595.73828125 l 1
 179.881835938 273.008789062 l 1
EndSplineSet
Substitution2: "'c2sc' Capitals to Small Capitals in Latin lookup 11 subtable" Atilde.sc
AlternateSubs2: "'aalt' Access All Alternates in Latin lookup 0 subtable" Atilde.sc
Position2: "'cpsp' Capital Spacing in Latin lookup 0 subtable" dx=5 dy=0 dh=10 dv=0
EndChar

StartChar: AE
Encoding: 198 198 30
Width: 960
GlyphClass: 2
Flags: MW
HStem: -11.85 21G 0 39 0.149994 39.75 0.149994 47 225.75 47 327.65 48.5 613.15 47 621.15 39 651.15 20G
VStem: 5 140 382 146.22 430.97 97.25 701.97 37 898.72 43.28
AnchorPoint: "Anchor-6" 830 0 basechar 0
AnchorPoint: "Anchor-5" 593 660 basechar 0
AnchorPoint: "Anchor-4" 638 0 basechar 0
LayerCount: 2
Fore
SplineSet
846.959960938 -11.83984375 m 0x8e5c
 843.959960938 -11.83984375 841.19921875 -11.66796875 838.94921875 -8.8681640625 c 2
 834.94921875 -3.8681640625 l 2
 831.829101562 0.0322265625 827.958984375 0.1123046875 816.958984375 0.1123046875 c 2
 366.208984375 0.1123046875 l 2
 357.458984375 0.1123046875 352.458984375 4.1123046875 352.458984375 13.1123046875 c 2x1e5c
 352.458984375 26.8623046875 l 2
 352.458984375 34.8623046875 357.708984375 39.8623046875 366.208984375 39.8623046875 c 0
 407.958984375 39.8623046875 430.958984375 66.6123046875 430.958984375 121.112304688 c 2
 430.958984375 225.711914062 l 1x2e5c
 230.298828125 225.711914062 l 1
 163.7890625 104.461914062 l 2
 133.46875 49.7919921875 139.088867188 38.9716796875 185.499023438 38.9716796875 c 0
 197.749023438 38.9716796875 198.499023438 33.9716796875 198.499023438 25.9716796875 c 2
 198.499023438 12.9716796875 l 2
 198.499023438 3.9716796875 193.499023438 -0.0283203125 185.499023438 -0.0283203125 c 2
 18.2490234375 -0.0283203125 l 2
 9.9990234375 -0.0283203125 4.9990234375 3.9716796875 4.9990234375 12.9716796875 c 2
 4.9990234375 25.9716796875 l 2
 4.9990234375 33.9716796875 6.4990234375 38.9716796875 18.2490234375 38.9716796875 c 0
 50.2490234375 38.9716796875 79.2294921875 51.6513671875 107.599609375 102.2109375 c 2
 374.75 581.4609375 l 2
 393.25 614.62109375 375.1796875 621.1015625 350.950195312 621.1015625 c 0x4d6c
 342.700195312 621.1015625 336.950195312 627.1015625 336.950195312 635.1015625 c 2
 336.950195312 646.1015625 l 2
 336.950195312 655.1015625 341.950195312 660.1015625 350.950195312 660.1015625 c 2
 775.950195312 660.1015625 l 2x1e6c
 784.950195312 660.1015625 789.049804688 660.971679688 792.939453125 664.091796875 c 2
 797.939453125 669.091796875 l 2
 799.939453125 671.091796875 802.939453125 671.091796875 805.939453125 671.091796875 c 0
 809.939453125 671.091796875 813.94921875 669.1015625 816.928710938 664.1015625 c 2x1cdc
 885.928710938 545.1015625 l 2
 887.869140625 542.071289062 888.918945312 539.111328125 888.918945312 537.111328125 c 0
 888.918945312 532.111328125 886.018554688 528.971679688 881.928710938 526.122070312 c 2
 861.928710938 514.622070312 l 2
 856.8984375 511.681640625 854.938476562 510.631835938 851.938476562 510.631835938 c 0
 847.938476562 510.631835938 844.87890625 513.731445312 841.94921875 518.62109375 c 2
 838.94921875 523.62109375 l 2
 796.19921875 594.12109375 765.94921875 613.12109375 697.94921875 613.12109375 c 2
 528.19921875 613.12109375 l 1
 528.19921875 376.12109375 l 1
 632.94921875 376.12109375 l 2
 678.44921875 376.12109375 701.94921875 396.12109375 701.94921875 435.12109375 c 2
 701.94921875 441.12109375 l 2
 701.94921875 450.12109375 705.94921875 454.12109375 714.94921875 454.12109375 c 2
 725.94921875 454.12109375 l 2
 734.94921875 454.12109375 738.94921875 450.12109375 738.94921875 441.12109375 c 2
 738.94921875 263.62109375 l 2
 738.94921875 254.62109375 734.94921875 250.62109375 725.94921875 250.62109375 c 2
 714.94921875 250.62109375 l 2
 705.94921875 250.62109375 701.94921875 254.62109375 701.94921875 263.62109375 c 2
 701.94921875 268.62109375 l 2
 701.94921875 308.62109375 679.44921875 327.62109375 632.94921875 327.62109375 c 2
 528.19921875 327.62109375 l 1
 528.19921875 131.12109375 l 2
 528.19921875 77.12109375 556.69921875 47.12109375 595.69921875 47.12109375 c 2
 666.44921875 47.12109375 l 2x1e5c
 795.44921875 47.12109375 839.94921875 74.37109375 895.69921875 186.62109375 c 2
 898.69921875 192.62109375 l 2
 901.69921875 199.37109375 908.94921875 202.37109375 917.44921875 197.62109375 c 2
 934.94921875 188.37109375 l 2
 943.9296875 184.090820312 943.950195312 179.010742188 939.950195312 170.140625 c 2
 856.950195312 -3.849609375 l 2
 854.240234375 -9.5595703125 850.959960938 -11.83984375 846.959960938 -11.83984375 c 0x8e5c
256.639648438 272.731445312 m 1x1e5c
 430.94921875 272.731445312 l 1
 430.94921875 587.831054688 l 1
 256.639648438 272.731445312 l 1x1e5c
EndSplineSet
Substitution2: "'c2sc' Capitals to Small Capitals in Latin lookup 11 subtable" AE.sc
AlternateSubs2: "'aalt' Access All Alternates in Latin lookup 0 subtable" AE.sc
Position2: "'cpsp' Capital Spacing in Latin lookup 0 subtable" dx=5 dy=0 dh=10 dv=0
EndChar

StartChar: AEacute
Encoding: 508 508 31
Width: 960
GlyphClass: 2
Flags: MW
HStem: -11.85 21G 0 39 0.149994 39.75 0.149994 47 225.75 47 327.65 48.5 613.15 47 621.15 39 651.15 20G
VStem: 5 140 382 146.22 430.97 97.25 701.97 37 898.72 43.28
AnchorPoint: "Anchor-6" 830 0 basechar 0
AnchorPoint: "Anchor-5" 625 899 basechar 0
AnchorPoint: "Anchor-4" 638 0 basechar 0
LayerCount: 2
Fore
SplineSet
846.959960938 -11.83984375 m 0x8e5c
 843.959960938 -11.83984375 841.19921875 -11.66796875 838.94921875 -8.8681640625 c 2
 834.94921875 -3.8681640625 l 2
 831.829101562 0.0322265625 827.958984375 0.1123046875 816.958984375 0.1123046875 c 2
 366.208984375 0.1123046875 l 2
 357.458984375 0.1123046875 352.458984375 4.1123046875 352.458984375 13.1123046875 c 2x1e5c
 352.458984375 26.8623046875 l 2
 352.458984375 34.8623046875 357.708984375 39.8623046875 366.208984375 39.8623046875 c 0
 407.958984375 39.8623046875 430.958984375 66.6123046875 430.958984375 121.112304688 c 2
 430.958984375 225.711914062 l 1x2e5c
 230.298828125 225.711914062 l 1
 163.7890625 104.461914062 l 2
 133.46875 49.7919921875 139.088867188 38.9716796875 185.499023438 38.9716796875 c 0
 197.749023438 38.9716796875 198.499023438 33.9716796875 198.499023438 25.9716796875 c 2
 198.499023438 12.9716796875 l 2
 198.499023438 3.9716796875 193.499023438 -0.0283203125 185.499023438 -0.0283203125 c 2
 18.2490234375 -0.0283203125 l 2
 9.9990234375 -0.0283203125 4.9990234375 3.9716796875 4.9990234375 12.9716796875 c 2
 4.9990234375 25.9716796875 l 2
 4.9990234375 33.9716796875 6.4990234375 38.9716796875 18.2490234375 38.9716796875 c 0
 50.2490234375 38.9716796875 79.2294921875 51.6513671875 107.599609375 102.2109375 c 2
 374.75 581.4609375 l 2
 393.25 614.62109375 375.1796875 621.1015625 350.950195312 621.1015625 c 0x4d6c
 342.700195312 621.1015625 336.950195312 627.1015625 336.950195312 635.1015625 c 2
 336.950195312 646.1015625 l 2
 336.950195312 655.1015625 341.950195312 660.1015625 350.950195312 660.1015625 c 2
 775.950195312 660.1015625 l 2x1e6c
 784.950195312 660.1015625 789.049804688 660.971679688 792.939453125 664.091796875 c 2
 797.939453125 669.091796875 l 2
 799.939453125 671.091796875 802.939453125 671.091796875 805.939453125 671.091796875 c 0
 809.939453125 671.091796875 813.94921875 669.1015625 816.928710938 664.1015625 c 2x1cdc
 885.928710938 545.1015625 l 2
 887.869140625 542.071289062 888.918945312 539.111328125 888.918945312 537.111328125 c 0
 888.918945312 532.111328125 886.018554688 528.971679688 881.928710938 526.122070312 c 2
 861.928710938 514.622070312 l 2
 856.8984375 511.681640625 854.938476562 510.631835938 851.938476562 510.631835938 c 0
 847.938476562 510.631835938 844.87890625 513.731445312 841.94921875 518.62109375 c 2
 838.94921875 523.62109375 l 2
 796.19921875 594.12109375 765.94921875 613.12109375 697.94921875 613.12109375 c 2
 528.19921875 613.12109375 l 1
 528.19921875 376.12109375 l 1
 632.94921875 376.12109375 l 2
 678.44921875 376.12109375 701.94921875 396.12109375 701.94921875 435.12109375 c 2
 701.94921875 441.12109375 l 2
 701.94921875 450.12109375 705.94921875 454.12109375 714.94921875 454.12109375 c 2
 725.94921875 454.12109375 l 2
 734.94921875 454.12109375 738.94921875 450.12109375 738.94921875 441.12109375 c 2
 738.94921875 263.62109375 l 2
 738.94921875 254.62109375 734.94921875 250.62109375 725.94921875 250.62109375 c 2
 714.94921875 250.62109375 l 2
 705.94921875 250.62109375 701.94921875 254.62109375 701.94921875 263.62109375 c 2
 701.94921875 268.62109375 l 2
 701.94921875 308.62109375 679.44921875 327.62109375 632.94921875 327.62109375 c 2
 528.19921875 327.62109375 l 1
 528.19921875 131.12109375 l 2
 528.19921875 77.12109375 556.69921875 47.12109375 595.69921875 47.12109375 c 2
 666.44921875 47.12109375 l 2x1e5c
 795.44921875 47.12109375 839.94921875 74.37109375 895.69921875 186.62109375 c 2
 898.69921875 192.62109375 l 2
 901.69921875 199.37109375 908.94921875 202.37109375 917.44921875 197.62109375 c 2
 934.94921875 188.37109375 l 2
 943.9296875 184.090820312 943.950195312 179.010742188 939.950195312 170.140625 c 2
 856.950195312 -3.849609375 l 2
 854.240234375 -9.5595703125 850.959960938 -11.83984375 846.959960938 -11.83984375 c 0x8e5c
256.639648438 272.731445312 m 1x1e5c
 430.94921875 272.731445312 l 1
 430.94921875 587.831054688 l 1
 256.639648438 272.731445312 l 1x1e5c
530.94921875 729.12109375 m 1
 582.588867188 793.510742188 594.83984375 815.58203125 616.959960938 865.83203125 c 0
 621.509765625 875.841796875 631.76953125 878.321289062 642.819335938 878.321289062 c 0
 671.849609375 878.321289062 686.569335938 864.000976562 686.569335938 838.791015625 c 0
 686.569335938 785.130859375 619.19921875 748.810546875 570.12890625 719.831054688 c 0
 566.579101562 717.850585938 562.909179688 716.291015625 559.798828125 716.500976562 c 0
 556.749023438 716.741210938 552.239257812 718.611328125 546.779296875 721.321289062 c 2
 530.94921875 729.12109375 l 1
EndSplineSet
Substitution2: "'c2sc' Capitals to Small Capitals in Latin lookup 11 subtable" AEacute.sc
AlternateSubs2: "'aalt' Access All Alternates in Latin lookup 0 subtable" AEacute.sc
Position2: "'cpsp' Capital Spacing in Latin lookup 0 subtable" dx=5 dy=0 dh=10 dv=0
EndChar

StartChar: B
Encoding: 66 66 32
Width: 633
GlyphClass: 2
Flags: MW
HStem: 0 32.75<303 325 325 363> 0 38<58 62.5 62.5 84 58 363> 341.75 40.25 622 38<62.5 84> 627.25 32.75
VStem: 127.5 97.25 438.75 101.25 496.75 101.25
AnchorPoint: "Anchor-5" 317 660 basechar 0
AnchorPoint: "Anchor-4" 317 0 basechar 0
LayerCount: 2
Fore
SplineSet
62.5 0 m 2xad
 53.5 0 48.5 4 48.5 13 c 2xad
 48.5 25 l 2
 48.5 33 53.5 38 62.5 38 c 0
 105.5 38 127.5 66 127.5 121 c 2
 127.5 539 l 2
 127.5 594 105.5 622 62.5 622 c 0
 53.5 622 48.5 627 48.5 635 c 2x75
 48.5 647 l 2
 48.5 656 53.5 660 62.5 660 c 2
 323 660 l 2
 445 660 540 590 540 501 c 0xae
 540 450 509 407 451 378 c 1
 543 351 598 282 598 194 c 0
 598 80 501 0 363 0 c 2
 62.5 0 l 2xad
325 32.75 m 2
 435.75 32.75 496.759765625 92.4794921875 496.759765625 188.729492188 c 0
 496.759765625 289.229492188 432.509765625 341.729492188 296.009765625 341.729492188 c 2
 224.759765625 341.729492188 l 1
 224.759765625 123.01953125 l 2
 224.759765625 62.349609375 260.450195312 32.75 303 32.75 c 2
 325 32.75 l 2
295.009765625 381.979492188 m 2xae
 388.759765625 381.979492188 438.759765625 429.479492188 438.759765625 504.729492188 c 0
 438.759765625 580.729492188 389.759765625 627.229492188 298.009765625 627.229492188 c 2
 224.759765625 627.229492188 l 1
 224.759765625 381.979492188 l 1
 295.009765625 381.979492188 l 2xae
EndSplineSet
Substitution2: "'ss04' Style Set 4 in Latin lookup 33 subtable" u1F151
Substitution2: "'ss03' Style Set 3 in Latin lookup 31 subtable" uni24B7
Substitution2: "'c2sc' Capitals to Small Capitals in Latin lookup 11 subtable" B.sc
AlternateSubs2: "'aalt' Access All Alternates in Latin lookup 0 subtable" B.sc uni24B7 u1F151
Position2: "'cpsp' Capital Spacing in Latin lookup 0 subtable" dx=5 dy=0 dh=10 dv=0
EndChar

StartChar: uni1E04
Encoding: 7684 7684 33
Width: 633
GlyphClass: 2
Flags: MW
HStem: -181.21 126.57 0 32.75<303 325 325 363> 0 38<58 62.5 62.5 84 58 363> 341.75 40.25 622 38<62.5 84> 627.25 32.75
VStem: 127.5 97.25 253.74 127.53 438.75 101.25 496.75 101.25
AnchorPoint: "Anchor-5" 317 660 basechar 0
AnchorPoint: "Anchor-4" 317 0 basechar 0
LayerCount: 2
Fore
SplineSet
62.5 0 m 2x5640
 53.5 0 48.5 4 48.5 13 c 2x5640
 48.5 25 l 2
 48.5 33 53.5 38 62.5 38 c 0
 105.5 38 127.5 66 127.5 121 c 2
 127.5 539 l 2
 127.5 594 105.5 622 62.5 622 c 0
 53.5 622 48.5 627 48.5 635 c 2x3a40
 48.5 647 l 2
 48.5 656 53.5 660 62.5 660 c 2
 323 660 l 2
 445 660 540 590 540 501 c 0x5680
 540 450 509 407 451 378 c 1
 543 351 598 282 598 194 c 0
 598 80 501 0 363 0 c 2
 62.5 0 l 2x5640
325 32.75 m 2
 435.75 32.75 496.759765625 92.4794921875 496.759765625 188.729492188 c 0
 496.759765625 289.229492188 432.509765625 341.729492188 296.009765625 341.729492188 c 2
 224.759765625 341.729492188 l 1
 224.759765625 123.01953125 l 2
 224.759765625 62.349609375 260.450195312 32.75 303 32.75 c 2
 325 32.75 l 2
295.009765625 381.979492188 m 2x5680
 388.759765625 381.979492188 438.759765625 429.479492188 438.759765625 504.729492188 c 0
 438.759765625 580.729492188 389.759765625 627.229492188 298.009765625 627.229492188 c 2
 224.759765625 627.229492188 l 1
 224.759765625 381.979492188 l 1
 295.009765625 381.979492188 l 2x5680
317.01953125 -54.66015625 m 0xd740
 332.349609375 -54.66015625 344.819335938 -60.41015625 360.149414062 -75.740234375 c 0
 375.479492188 -91.0703125 381.239257812 -102.580078125 381.239257812 -117.91015625 c 0
 381.239257812 -133.240234375 374.51953125 -145.700195312 360.149414062 -160.0703125 c 0
 344.819335938 -175.419921875 332.359375 -181.169921875 317.029296875 -181.169921875 c 0
 302.649414062 -181.169921875 291.149414062 -175.419921875 274.849609375 -160.0703125 c 0
 259.51953125 -145.700195312 253.76953125 -133.240234375 253.76953125 -117.91015625 c 0
 253.76953125 -102.580078125 259.51953125 -91.0703125 274.849609375 -75.740234375 c 0
 290.1796875 -60.41015625 302.639648438 -54.66015625 317.01953125 -54.66015625 c 0xd740
EndSplineSet
Substitution2: "'c2sc' Capitals to Small Capitals in Latin lookup 11 subtable" uni1E04.sc
AlternateSubs2: "'aalt' Access All Alternates in Latin lookup 0 subtable" uni1E04.sc
Position2: "'cpsp' Capital Spacing in Latin lookup 0 subtable" dx=5 dy=0 dh=10 dv=0
EndChar

StartChar: C
Encoding: 67 67 34
Width: 644
GlyphClass: 2
Flags: MW
HStem: -11 43.75<290.75 431.375 290.75 431.75> 631 40<280.625 411.25>
VStem: 31 113.25<262.625 396.5> 513.25 96.75<475 499.5 475 513.375>
AnchorPoint: "Anchor-5" 346 660 basechar 0
AnchorPoint: "Anchor-4" 351 0 basechar 0
LayerCount: 2
Fore
SplineSet
627 208.75 m 2
 632.75 206.75 634.75 203.75 632 197.5 c 0
 597 95.75 513 -11 350.5 -11 c 0
 147 -11 31 134 31 323 c 0
 31 470 109.5 671 356 671 c 0
 547.25 671 610 519 610 480 c 0
 610 470 607.25 466.75 599.5 464.5 c 2
 530.5 441 l 2
 515.5 436.25 511.25 440 511.25 447.25 c 0
 511.25 452.75 513.25 463.5 513.25 477.75 c 0
 513.25 549 468.5 631 354 631 c 0
 207.25 631 144.25 470.5 144.25 359.75 c 0
 144.25 165.5 220 32.75 361.5 32.75 c 0
 501.25 32.75 566.75 121.75 596.25 208.75 c 0
 599.5 216.75 603.25 217.75 609 215.25 c 2
 627 208.75 l 2
EndSplineSet
Substitution2: "'ss04' Style Set 4 in Latin lookup 33 subtable" u1F152
Substitution2: "'ss03' Style Set 3 in Latin lookup 31 subtable" uni24B8
Substitution2: "'c2sc' Capitals to Small Capitals in Latin lookup 11 subtable" C.sc
AlternateSubs2: "'aalt' Access All Alternates in Latin lookup 0 subtable" C.sc uni24B8 u1F152
Position2: "'cpsp' Capital Spacing in Latin lookup 0 subtable" dx=5 dy=0 dh=10 dv=0
EndChar

StartChar: Cacute
Encoding: 262 262 35
Width: 644
GlyphClass: 2
Flags: MW
HStem: -11 43.75<290.75 431.375 290.75 431.75> 631 40<280.625 411.25>
VStem: 31 113.25<262.625 396.5> 513.25 96.75<475 499.5 475 513.375>
AnchorPoint: "Anchor-5" 378 899 basechar 0
AnchorPoint: "Anchor-4" 351 0 basechar 0
LayerCount: 2
Fore
SplineSet
627 208.75 m 2
 632.75 206.75 634.75 203.75 632 197.5 c 0
 597 95.75 513 -11 350.5 -11 c 0
 147 -11 31 134 31 323 c 0
 31 470 109.5 671 356 671 c 0
 547.25 671 610 519 610 480 c 0
 610 470 607.25 466.75 599.5 464.5 c 2
 530.5 441 l 2
 515.5 436.25 511.25 440 511.25 447.25 c 0
 511.25 452.75 513.25 463.5 513.25 477.75 c 0
 513.25 549 468.5 631 354 631 c 0
 207.25 631 144.25 470.5 144.25 359.75 c 0
 144.25 165.5 220 32.75 361.5 32.75 c 0
 501.25 32.75 566.75 121.75 596.25 208.75 c 0
 599.5 216.75 603.25 217.75 609 215.25 c 2
 627 208.75 l 2
283.48046875 729.139648438 m 1
 335.140625 793.529296875 347.369140625 815.600585938 369.479492188 865.850585938 c 0
 374.01953125 875.860351562 384.299804688 878.340820312 395.349609375 878.340820312 c 0
 424.379882812 878.340820312 439.08984375 864.020507812 439.08984375 838.810546875 c 0
 439.08984375 785.150390625 371.729492188 748.830078125 322.669921875 719.849609375 c 0
 319.120117188 717.869140625 315.450195312 716.309570312 312.330078125 716.51953125 c 0
 309.299804688 716.759765625 304.790039062 718.629882812 299.330078125 721.33984375 c 2
 283.48046875 729.139648438 l 1
EndSplineSet
Substitution2: "'c2sc' Capitals to Small Capitals in Latin lookup 11 subtable" Cacute.sc
AlternateSubs2: "'aalt' Access All Alternates in Latin lookup 0 subtable" Cacute.sc
Position2: "'cpsp' Capital Spacing in Latin lookup 0 subtable" dx=5 dy=0 dh=10 dv=0
EndChar

StartChar: Ccaron
Encoding: 268 268 36
Width: 644
GlyphClass: 2
Flags: MW
HStem: -11 43.75<290.75 431.375 290.75 431.75> 631 40<280.625 411.25>
VStem: 31 113.25<262.625 396.5> 513.25 96.75<475 499.5 475 513.375>
AnchorPoint: "Anchor-5" 346 845 basechar 0
AnchorPoint: "Anchor-4" 351 0 basechar 0
LayerCount: 2
Fore
SplineSet
627 208.75 m 2
 632.75 206.75 634.75 203.75 632 197.5 c 0
 597 95.75 513 -11 350.5 -11 c 0
 147 -11 31 134 31 323 c 0
 31 470 109.5 671 356 671 c 0
 547.25 671 610 519 610 480 c 0
 610 470 607.25 466.75 599.5 464.5 c 2
 530.5 441 l 2
 515.5 436.25 511.25 440 511.25 447.25 c 0
 511.25 452.75 513.25 463.5 513.25 477.75 c 0
 513.25 549 468.5 631 354 631 c 0
 207.25 631 144.25 470.5 144.25 359.75 c 0
 144.25 165.5 220 32.75 361.5 32.75 c 0
 501.25 32.75 566.75 121.75 596.25 208.75 c 0
 599.5 216.75 603.25 217.75 609 215.25 c 2
 627 208.75 l 2
345.5 787.049804688 m 1
 365.540039062 824.830078125 399.481445312 867.240234375 443.431640625 867.240234375 c 0
 466.561523438 867.240234375 477.3515625 844.879882812 477.3515625 819.439453125 c 0
 477.3515625 807.889648438 476.591796875 797.859375 468.111328125 794.01953125 c 0
 423.380859375 777.049804688 400.260742188 765.5 345.510742188 721.540039062 c 1
 290.760742188 765.5 267.630859375 777.049804688 222.900390625 794.01953125 c 0
 214.419921875 797.859375 213.66015625 807.889648438 213.66015625 819.439453125 c 0
 213.66015625 844.879882812 224.459960938 867.240234375 247.580078125 867.240234375 c 0
 291.530273438 867.240234375 325.450195312 824.830078125 345.5 787.049804688 c 1
EndSplineSet
Substitution2: "'c2sc' Capitals to Small Capitals in Latin lookup 11 subtable" Ccaron.sc
AlternateSubs2: "'aalt' Access All Alternates in Latin lookup 0 subtable" Ccaron.sc
Position2: "'cpsp' Capital Spacing in Latin lookup 0 subtable" dx=5 dy=0 dh=10 dv=0
EndChar

StartChar: Ccedilla
Encoding: 199 199 37
Width: 644
GlyphClass: 2
Flags: MW
HStem: -6 21G
AnchorPoint: "Anchor-5" 346 660 basechar 0
AnchorPoint: "Anchor-4" 351 0 basechar 0
LayerCount: 2
Fore
SplineSet
627 208.75 m 2
 632.75 206.75 634.73828125 203.739257812 631.98828125 197.489257812 c 0
 597.758789062 97.9794921875 516.668945312 -6.310546875 361.109375 -10.8603515625 c 1
 325.489257812 -53.0107421875 l 1
 338.489257812 -48.0107421875 352.489257812 -46.0107421875 366.489257812 -46.0107421875 c 0
 412.489257812 -46.0107421875 465.489257812 -72.0107421875 465.489257812 -135.010742188 c 0
 465.489257812 -187.010742188 419.489257812 -225.010742188 351.489257812 -225.010742188 c 0
 324.489257812 -225.010742188 294.489257812 -220.010742188 263.489257812 -207.010742188 c 0
 246.489257812 -200.010742188 245.489257812 -193.060546875 245.489257812 -171.840820312 c 0
 245.489257812 -164.350585938 247.989257812 -159.350585938 252.989257812 -159.350585938 c 0
 256.739257812 -159.350585938 260.359375 -160.890625 262.979492188 -161.850585938 c 0
 289.189453125 -170.590820312 317.899414062 -179.331054688 349.109375 -179.331054688 c 0
 386.569335938 -179.331054688 409.0390625 -163.090820312 409.0390625 -136.87109375 c 0
 409.0390625 -99.4208984375 374.079101562 -84.4404296875 325.399414062 -84.4404296875 c 0
 310.4296875 -84.4404296875 289.200195312 -88.1904296875 276.73046875 -88.1904296875 c 0
 270.490234375 -88.1904296875 266.740234375 -84.4404296875 266.740234375 -79.4404296875 c 0
 266.740234375 -75.6904296875 266.330078125 -72.8701171875 269.240234375 -69.4501953125 c 2
 317.299804688 -9.669921875 l 1
 134.4296875 5.2998046875 31 144.530273438 31 323 c 0
 31 470 109.5 671 356 671 c 0
 547.25 671 610 519 610 480 c 0
 610 470 607.25 466.75 599.5 464.5 c 2
 530.5 441 l 2
 515.5 436.25 511.25 440 511.25 447.25 c 0
 511.25 452.75 513.25 463.5 513.25 477.75 c 0
 513.25 549 468.5 631 354 631 c 0
 207.25 631 144.25 470.5 144.25 359.75 c 0
 144.25 165.5 220 32.75 361.5 32.75 c 0
 501.25 32.75 566.75 121.75 596.25 208.75 c 0
 599.5 216.75 603.25 217.75 609 215.25 c 2
 627 208.75 l 2
EndSplineSet
Substitution2: "'c2sc' Capitals to Small Capitals in Latin lookup 11 subtable" Ccedilla.sc
AlternateSubs2: "'aalt' Access All Alternates in Latin lookup 0 subtable" Ccedilla.sc
Position2: "'cpsp' Capital Spacing in Latin lookup 0 subtable" dx=5 dy=0 dh=10 dv=0
EndChar

StartChar: uni1E08
Encoding: 7688 7688 38
Width: 644
GlyphClass: 2
Flags: MW
HStem: -225 45.68 -84.42 38.43 -9.66002 42.42 631 40
VStem: 31 113.25<262.625 396.5> 409.04 56.46 513.25 96.75<475 499.5 475 513.375>
AnchorPoint: "Anchor-5" 378 899 basechar 0
AnchorPoint: "Anchor-4" 351 0 basechar 0
LayerCount: 2
Fore
SplineSet
627 208.75 m 2
 632.75 206.75 634.720703125 203.779296875 631.970703125 197.529296875 c 0
 597.740234375 98.01953125 516.66015625 -6.2607421875 361.100585938 -10.810546875 c 1
 325.490234375 -52.9609375 l 1
 338.490234375 -47.9609375 352.490234375 -45.9609375 366.490234375 -45.9609375 c 0
 412.490234375 -45.9609375 465.490234375 -71.9609375 465.490234375 -134.9609375 c 0
 465.490234375 -186.9609375 419.490234375 -224.9609375 351.490234375 -224.9609375 c 0
 324.490234375 -224.9609375 294.490234375 -219.9609375 263.490234375 -206.9609375 c 0
 246.490234375 -199.9609375 245.490234375 -193.010742188 245.490234375 -171.80078125 c 0
 245.490234375 -164.3203125 247.990234375 -159.3203125 252.970703125 -159.3203125 c 0
 256.720703125 -159.3203125 260.340820312 -160.850585938 262.951171875 -161.810546875 c 0
 289.161132812 -170.541015625 317.87109375 -179.271484375 349.081054688 -179.271484375 c 0
 386.53125 -179.271484375 409.000976562 -163.041015625 409.000976562 -136.831054688 c 0
 409.000976562 -99.380859375 374.041015625 -84.4111328125 325.37109375 -84.4111328125 c 0
 310.411132812 -84.4111328125 289.180664062 -88.1611328125 276.7109375 -88.1611328125 c 0
 270.48046875 -88.1611328125 266.73046875 -84.4111328125 266.73046875 -79.4208984375 c 0
 266.73046875 -75.6708984375 266.3203125 -72.8505859375 269.23046875 -69.4404296875 c 2
 317.280273438 -9.66015625 l 1
 134.419921875 5.2998046875 31 144.530273438 31 323 c 0
 31 470 109.5 671 356 671 c 0
 547.25 671 610 519 610 480 c 0
 610 470 607.25 466.75 599.5 464.5 c 2
 530.5 441 l 2
 515.5 436.25 511.25 440 511.25 447.25 c 0
 511.25 452.75 513.25 463.5 513.25 477.75 c 0
 513.25 549 468.5 631 354 631 c 0
 207.25 631 144.25 470.5 144.25 359.75 c 0
 144.25 165.5 220 32.75 361.5 32.75 c 0
 501.25 32.75 566.75 121.75 596.25 208.75 c 0
 599.5 216.75 603.25 217.75 609 215.25 c 2
 627 208.75 l 2
283.451171875 729.168945312 m 1
 335.111328125 793.55859375 347.33984375 815.630859375 369.450195312 865.880859375 c 0
 373.990234375 875.890625 384.270507812 878.370117188 395.3203125 878.370117188 c 0
 424.350585938 878.370117188 439.060546875 864.049804688 439.060546875 838.83984375 c 0
 439.060546875 785.1796875 371.700195312 748.859375 322.640625 719.87890625 c 0
 319.090820312 717.8984375 315.420898438 716.338867188 312.30078125 716.548828125 c 0
 309.270507812 716.7890625 304.760742188 718.659179688 299.30078125 721.369140625 c 2
 283.451171875 729.168945312 l 1
EndSplineSet
Substitution2: "'c2sc' Capitals to Small Capitals in Latin lookup 11 subtable" uni1E08.sc
AlternateSubs2: "'aalt' Access All Alternates in Latin lookup 0 subtable" uni1E08.sc
Position2: "'cpsp' Capital Spacing in Latin lookup 0 subtable" dx=5 dy=0 dh=10 dv=0
EndChar

StartChar: Ccircumflex
Encoding: 264 264 39
Width: 644
GlyphClass: 2
Flags: MW
HStem: -11 43.75<290.75 431.375 290.75 431.75> 631 40<280.625 411.25>
VStem: 31 113.25<262.625 396.5> 513.25 96.75<475 499.5 475 513.375>
AnchorPoint: "Anchor-7" 346 759 basechar 0
AnchorPoint: "Anchor-5" 346 816 basechar 0
AnchorPoint: "Anchor-4" 351 0 basechar 0
LayerCount: 2
Fore
SplineSet
627 208.75 m 2
 632.75 206.75 634.75 203.75 632 197.5 c 0
 597 95.75 513 -11 350.5 -11 c 0
 147 -11 31 134 31 323 c 0
 31 470 109.5 671 356 671 c 0
 547.25 671 610 519 610 480 c 0
 610 470 607.25 466.75 599.5 464.5 c 2
 530.5 441 l 2
 515.5 436.25 511.25 440 511.25 447.25 c 0
 511.25 452.75 513.25 463.5 513.25 477.75 c 0
 513.25 549 468.5 631 354 631 c 0
 207.25 631 144.25 470.5 144.25 359.75 c 0
 144.25 165.5 220 32.75 361.5 32.75 c 0
 501.25 32.75 566.75 121.75 596.25 208.75 c 0
 599.5 216.75 603.25 217.75 609 215.25 c 2
 627 208.75 l 2
345.5 795.4296875 m 1
 325.450195312 757.649414062 291.508789062 715.249023438 247.55859375 715.249023438 c 0
 224.438476562 715.249023438 213.638671875 737.598632812 213.638671875 763.0390625 c 0
 213.638671875 774.588867188 214.3984375 784.619140625 222.87890625 788.46875 c 0
 267.609375 805.428710938 290.739257812 816.978515625 345.489257812 860.938476562 c 1
 400.239257812 816.978515625 423.359375 805.428710938 468.08984375 788.46875 c 0
 476.5703125 784.619140625 477.330078125 774.588867188 477.330078125 763.0390625 c 0
 477.330078125 737.598632812 466.540039062 715.249023438 443.41015625 715.249023438 c 0
 399.459960938 715.249023438 365.540039062 757.649414062 345.5 795.4296875 c 1
EndSplineSet
Substitution2: "'c2sc' Capitals to Small Capitals in Latin lookup 11 subtable" Ccircumflex.sc
AlternateSubs2: "'aalt' Access All Alternates in Latin lookup 0 subtable" Ccircumflex.sc
Position2: "'cpsp' Capital Spacing in Latin lookup 0 subtable" dx=5 dy=0 dh=10 dv=0
EndChar

StartChar: Cdotaccent
Encoding: 266 266 40
Width: 644
GlyphClass: 2
Flags: MW
HStem: -11 43.75<290.75 431.375 290.75 431.75> 631 40<280.625 411.25> 721.71 126.58
VStem: 31 113.25<262.625 396.5> 282.23 127.54 513.25 96.75
AnchorPoint: "Anchor-5" 346 845 basechar 0
AnchorPoint: "Anchor-4" 351 0 basechar 0
LayerCount: 2
Fore
SplineSet
627 208.75 m 2
 632.75 206.75 634.75 203.75 632 197.5 c 0
 597 95.75 513 -11 350.5 -11 c 0
 147 -11 31 134 31 323 c 0
 31 470 109.5 671 356 671 c 0
 547.25 671 610 519 610 480 c 0
 610 470 607.25 466.75 599.5 464.5 c 2
 530.5 441 l 2
 515.5 436.25 511.25 440 511.25 447.25 c 0
 511.25 452.75 513.25 463.5 513.25 477.75 c 0
 513.25 549 468.5 631 354 631 c 0
 207.25 631 144.25 470.5 144.25 359.75 c 0
 144.25 165.5 220 32.75 361.5 32.75 c 0
 501.25 32.75 566.75 121.75 596.25 208.75 c 0
 599.5 216.75 603.25 217.75 609 215.25 c 2
 627 208.75 l 2
345.51953125 848.280273438 m 0
 360.849609375 848.280273438 373.319335938 842.520507812 388.649414062 827.190429688 c 0
 403.979492188 811.860351562 409.739257812 800.360351562 409.739257812 785.030273438 c 0
 409.739257812 769.690429688 403.01953125 757.23046875 388.649414062 742.860351562 c 0
 373.319335938 727.530273438 360.859375 721.770507812 345.529296875 721.770507812 c 0
 331.149414062 721.770507812 319.649414062 727.530273438 303.349609375 742.860351562 c 0
 288.01953125 757.23046875 282.259765625 769.690429688 282.259765625 785.030273438 c 0
 282.259765625 800.360351562 288.01953125 811.860351562 303.349609375 827.190429688 c 0
 318.6796875 842.520507812 331.139648438 848.280273438 345.51953125 848.280273438 c 0
EndSplineSet
Substitution2: "'c2sc' Capitals to Small Capitals in Latin lookup 11 subtable" Cdotaccent.sc
AlternateSubs2: "'aalt' Access All Alternates in Latin lookup 0 subtable" Cdotaccent.sc
Position2: "'cpsp' Capital Spacing in Latin lookup 0 subtable" dx=5 dy=0 dh=10 dv=0
EndChar

StartChar: D
Encoding: 68 68 41
Width: 643
GlyphClass: 2
Flags: MW
HStem: 0 38<35.5 46 40 46 46 65 40 282.5> 0 42<238.75 282.5> 622 38<40 61.5 202.25 202.25 202.25 243.25>
VStem: 105 97.25<121 539 539 566.5> 508.5 103<235.5 416>
AnchorPoint: "Anchor-5" 279 660 basechar 0
AnchorPoint: "Anchor-4" 291 0 basechar 0
LayerCount: 2
Fore
SplineSet
258.5 660 m 2x78
 468.5 660 611.5 535 611.5 331 c 0
 611.5 121 483.5 0 282.5 0 c 2
 40 0 l 2
 31 0 26 4 26 13 c 2x78
 26 25 l 2
 26 33 31 38 40 38 c 2
 46 38 l 2
 84 38 105 69 105 121 c 2xb8
 105 539 l 2
 105 594 83 622 40 622 c 0
 31 622 26 627 26 635 c 2
 26 647 l 2
 26 656 31 660 40 660 c 2
 258.5 660 l 2x78
202.25 117 m 2
 202.25 71 210.25 42 267.25 42 c 0
 414.75 42 508.5 140 508.5 331 c 0
 508.5 501 416.75 622 243.25 622 c 2
 202.25 622 l 1
 202.25 117 l 2
EndSplineSet
Substitution2: "'ss04' Style Set 4 in Latin lookup 33 subtable" u1F153
Substitution2: "'ss03' Style Set 3 in Latin lookup 31 subtable" uni24B9
Substitution2: "'c2sc' Capitals to Small Capitals in Latin lookup 11 subtable" D.sc
AlternateSubs2: "'aalt' Access All Alternates in Latin lookup 0 subtable" D.sc uni24B9 u1F153
Position2: "'cpsp' Capital Spacing in Latin lookup 0 subtable" dx=5 dy=0 dh=10 dv=0
EndChar

StartChar: uni01C4
Encoding: 452 452 42
Width: 1290
GlyphClass: 2
Flags: MW
HStem: -12 21G -3 21G 0 38<35.5 46 40 46 46 65 40 282.5> 0 42<238.75 282.5> 622 38<40 61.5 202.25 202.25 202.25 243.25> 722 146
VStem: 509 103 870 264
AnchorPoint: "Anchor-5" 1002 845 basechar 0
AnchorPoint: "Anchor-4" 934 0 basechar 0
LayerCount: 2
Fore
SplineSet
258.5 660 m 2x2f
 468.5 660 611.5 535 611.5 331 c 0
 611.5 121 483.5 0 282.5 0 c 2
 40 0 l 2
 31 0 26 4 26 13 c 2
 26 25 l 2
 26 33 31 38 40 38 c 2
 46 38 l 2
 84 38 105 69 105 121 c 2
 105 539 l 2
 105 594 83 622 40 622 c 0
 31 622 26 627 26 635 c 2
 26 647 l 2
 26 656 31 660 40 660 c 2
 258.5 660 l 2x2f
202.25 117 m 2
 202.25 71 210.25 42 267.25 42 c 0x1f
 414.75 42 508.5 140 508.5 331 c 0
 508.5 501 416.75 622 243.25 622 c 2
 202.25 622 l 1
 202.25 117 l 2
1265.5 151 m 2
 1271.5 147.25 1272.5 144 1272.5 141 c 0
 1272.5 138 1271.5 136 1269.5 133 c 2
 1199.5 -4 l 2x4f
 1196.5 -9 1193.5 -11 1188.5 -11 c 0x8f
 1186.5 -11 1183.5 -11 1180.5 -9 c 2
 1176.5 -4 l 2x4f
 1172.5 0 1165.5 0 1159.5 0 c 2
 659.5 0 l 2x2f
 651.5 0 646.5 4 646.5 13 c 2
 646.5 39.5 l 2
 646.5 45.5 648.75 51.5 652.5 56.5 c 2
 1098.75 611.5 l 1
 877 611.5 l 2
 797 611.5 761 576.75 719 525.75 c 2
 716 521.75 l 2
 712 516.75 709 513.75 705 513.75 c 0
 703 513.75 700 514 697 515.75 c 2
 682.5 524 l 2
 677.75 526.75 675.5 530 675.5 534 c 0
 675.5 537 676.5 539 678.5 542 c 2
 747.5 664 l 2
 750.5 670 754.5 671 759.5 671 c 0
 762.5 671 764.5 671 771.5 664 c 0
 776.5 660 782.5 660 788.5 660 c 2
 1244.5 660 l 2
 1248.5 660 1249.5 658 1249.5 656 c 2
 1249.5 651 l 2
 1249.5 648 1246.5 644 1244.5 641 c 2
 775 57.5 l 1
 945.5 57.5 l 2
 1109.5 57.5 1179.5 78.25 1223.75 151.25 c 2
 1226.75 156.25 l 2
 1229.75 161.25 1233.75 164.25 1237.75 164.25 c 0
 1240.75 164.25 1242.75 164 1245.75 162.25 c 2
 1265.5 151 l 2
1001.5 787.059570312 m 1
 1021.54980469 824.83984375 1055.48144531 867.250976562 1099.43164062 867.250976562 c 0
 1122.57128906 867.250976562 1133.36132812 844.890625 1133.36132812 819.440429688 c 0
 1133.36132812 807.880859375 1132.59179688 797.850585938 1124.11132812 794.000976562 c 0
 1079.38085938 777.03125 1056.25097656 765.470703125 1001.50097656 721.510742188 c 1
 946.750976562 765.470703125 923.62109375 777.030273438 878.890625 794 c 0
 870.41015625 797.849609375 869.640625 807.879882812 869.640625 819.439453125 c 0
 869.640625 844.889648438 880.430664062 867.25 903.5703125 867.25 c 0
 947.520507812 867.25 981.450195312 824.83984375 1001.5 787.059570312 c 1
EndSplineSet
Substitution2: "'c2sc' Capitals to Small Capitals in Latin lookup 11 subtable" uni01C4.sc
AlternateSubs2: "'aalt' Access All Alternates in Latin lookup 0 subtable" uni01C4.sc
Position2: "'cpsp' Capital Spacing in Latin lookup 0 subtable" dx=5 dy=0 dh=10 dv=0
EndChar

StartChar: Dcaron
Encoding: 270 270 43
Width: 643
GlyphClass: 2
Flags: MW
HStem: 0 38<35.5 46 40 46 46 65 40 282.5> 0 42<238.75 282.5> 622 38<40 61.5 202.25 202.25 202.25 243.25>
VStem: 105 97.25<121 539 539 566.5> 508.5 103<235.5 416>
AnchorPoint: "Anchor-5" 279 845 basechar 0
AnchorPoint: "Anchor-4" 291 0 basechar 0
LayerCount: 2
Fore
SplineSet
258.5 660 m 2x78
 468.5 660 611.5 535 611.5 331 c 0
 611.5 121 483.5 0 282.5 0 c 2
 40 0 l 2
 31 0 26 4 26 13 c 2x78
 26 25 l 2
 26 33 31 38 40 38 c 2
 46 38 l 2
 84 38 105 69 105 121 c 2xb8
 105 539 l 2
 105 594 83 622 40 622 c 0
 31 622 26 627 26 635 c 2
 26 647 l 2
 26 656 31 660 40 660 c 2
 258.5 660 l 2x78
202.25 117 m 2
 202.25 71 210.25 42 267.25 42 c 0
 414.75 42 508.5 140 508.5 331 c 0
 508.5 501 416.75 622 243.25 622 c 2
 202.25 622 l 1
 202.25 117 l 2
279 787.049804688 m 1
 299.040039062 824.830078125 332.981445312 867.240234375 376.931640625 867.240234375 c 0
 400.061523438 867.240234375 410.8515625 844.879882812 410.8515625 819.439453125 c 0
 410.8515625 807.889648438 410.091796875 797.859375 401.611328125 794.01953125 c 0
 356.880859375 777.049804688 333.760742188 765.5 279.010742188 721.540039062 c 1
 224.260742188 765.5 201.130859375 777.049804688 156.400390625 794.01953125 c 0
 147.919921875 797.859375 147.16015625 807.889648438 147.16015625 819.439453125 c 0
 147.16015625 844.879882812 157.959960938 867.240234375 181.080078125 867.240234375 c 0
 225.030273438 867.240234375 258.950195312 824.830078125 279 787.049804688 c 1
EndSplineSet
Substitution2: "'c2sc' Capitals to Small Capitals in Latin lookup 11 subtable" Dcaron.sc
AlternateSubs2: "'aalt' Access All Alternates in Latin lookup 0 subtable" Dcaron.sc
Position2: "'cpsp' Capital Spacing in Latin lookup 0 subtable" dx=5 dy=0 dh=10 dv=0
EndChar

StartChar: Dcroat
Encoding: 272 272 44
Width: 695
GlyphClass: 2
Flags: MW
HStem: 0 38<35.5 46 40 46 46 65 40 282.5> 0 42<238.75 282.5> 297 58<35.5 105 40 105 202.25 396> 622 38<40 61.5 202.25 202.25 202.25 243.25>
VStem: 105 97.25<121 297 355 539 539 566.5> 508.5 103<235.5 416>
AnchorPoint: "Anchor-5" 279 660 basechar 0
AnchorPoint: "Anchor-4" 291 0 basechar 0
LayerCount: 2
Fore
SplineSet
40 297 m 2x7c
 31 297 26 302 26 310 c 2
 26 341 l 2
 26 350 31 355 40 355 c 2
 105 355 l 1
 105 539 l 2
 105 594 83 622 40 622 c 0
 31 622 26 627 26 635 c 2
 26 647 l 2
 26 656 31 660 40 660 c 2
 258.5 660 l 2
 468.5 660 611.5 535 611.5 331 c 0
 611.5 121 483.5 0 282.5 0 c 2
 40 0 l 2
 31 0 26 4 26 13 c 2x7c
 26 25 l 2
 26 33 31 38 40 38 c 2
 46 38 l 2
 84 38 105 69 105 121 c 2xbc
 105 297 l 1
 40 297 l 2x7c
202.25 117 m 2
 202.25 71 210.25 42 267.25 42 c 0
 414.75 42 508.5 140 508.5 331 c 0
 508.5 501 416.75 622 243.25 622 c 2
 202.25 622 l 1
 202.25 355 l 1
 396 355 l 2
 405 355 409 350 409 341 c 2
 409 310 l 2
 409 302 405 297 396 297 c 2
 202.25 297 l 1
 202.25 117 l 2
EndSplineSet
Substitution2: "'c2sc' Capitals to Small Capitals in Latin lookup 11 subtable" Dcroat.sc
AlternateSubs2: "'aalt' Access All Alternates in Latin lookup 0 subtable" Dcroat.sc
Position2: "'cpsp' Capital Spacing in Latin lookup 0 subtable" dx=5 dy=0 dh=10 dv=0
EndChar

StartChar: uni1E0C
Encoding: 7692 7692 45
Width: 643
GlyphClass: 2
Flags: MW
HStem: -181.21 126.57 0 38<35.5 46 40 46 46 65 40 282.5> 0 42<238.75 282.5> 622 38<40 61.5 202.25 202.25 202.25 243.25>
VStem: 105 97.25<121 539 539 566.5> 227.74 127.53 508.5 103<235.5 416>
AnchorPoint: "Anchor-5" 279 660 basechar 0
AnchorPoint: "Anchor-4" 291 0 basechar 0
LayerCount: 2
Fore
SplineSet
258.5 660 m 2x3a
 468.5 660 611.5 535 611.5 331 c 0
 611.5 121 483.5 0 282.5 0 c 2
 40 0 l 2
 31 0 26 4 26 13 c 2x3a
 26 25 l 2
 26 33 31 38 40 38 c 2
 46 38 l 2
 84 38 105 69 105 121 c 2x5a
 105 539 l 2
 105 594 83 622 40 622 c 0
 31 622 26 627 26 635 c 2
 26 647 l 2
 26 656 31 660 40 660 c 2
 258.5 660 l 2x3a
202.25 117 m 2
 202.25 71 210.25 42 267.25 42 c 0
 414.75 42 508.5 140 508.5 331 c 0
 508.5 501 416.75 622 243.25 622 c 2
 202.25 622 l 1
 202.25 117 l 2
291.009765625 -54.6396484375 m 0xbe
 306.33984375 -54.6396484375 318.809570312 -60.3896484375 334.139648438 -75.7197265625 c 0
 349.469726562 -91.0498046875 355.229492188 -102.559570312 355.229492188 -117.889648438 c 0
 355.229492188 -133.219726562 348.509765625 -145.6796875 334.139648438 -160.049804688 c 0
 318.809570312 -175.399414062 306.349609375 -181.149414062 291.01953125 -181.149414062 c 0
 276.639648438 -181.149414062 265.139648438 -175.399414062 248.83984375 -160.049804688 c 0
 233.509765625 -145.6796875 227.759765625 -133.219726562 227.759765625 -117.889648438 c 0
 227.759765625 -102.559570312 233.509765625 -91.0498046875 248.83984375 -75.7197265625 c 0
 264.169921875 -60.3896484375 276.629882812 -54.6396484375 291.009765625 -54.6396484375 c 0xbe
EndSplineSet
Substitution2: "'c2sc' Capitals to Small Capitals in Latin lookup 11 subtable" uni1E0C.sc
AlternateSubs2: "'aalt' Access All Alternates in Latin lookup 0 subtable" uni1E0C.sc
Position2: "'cpsp' Capital Spacing in Latin lookup 0 subtable" dx=5 dy=0 dh=10 dv=0
EndChar

StartChar: uni1E0E
Encoding: 7694 7694 46
Width: 643
GlyphClass: 2
Flags: MW
HStem: -130.49 56.5 0 38<35.5 46 40 46 46 65 40 282.5> 0 42<238.75 282.5> 622 38<40 61.5 202.25 202.25 202.25 243.25>
VStem: 105 97.25<121 539 539 566.5> 508.5 103<235.5 416>
AnchorPoint: "Anchor-5" 279 660 basechar 0
AnchorPoint: "Anchor-4" 291 0 basechar 0
LayerCount: 2
Fore
SplineSet
258.5 660 m 2xbc
 468.5 660 611.5 535 611.5 331 c 0
 611.5 121 483.5 0 282.5 0 c 2
 40 0 l 2
 31 0 26 4 26 13 c 2xbc
 26 25 l 2
 26 33 31 38 40 38 c 2
 46 38 l 2
 84 38 105 69 105 121 c 2xdc
 105 539 l 2
 105 594 83 622 40 622 c 0
 31 622 26 627 26 635 c 2
 26 647 l 2
 26 656 31 660 40 660 c 2
 258.5 660 l 2xbc
202.25 117 m 2
 202.25 71 210.25 42 267.25 42 c 0
 414.75 42 508.5 140 508.5 331 c 0
 508.5 501 416.75 622 243.25 622 c 2
 202.25 622 l 1
 202.25 117 l 2
414.5 -117.5 m 2
 414.5 -125.5 410.5 -130.5 401.5 -130.5 c 2
 180.5 -130.5 l 2
 171.5 -130.5 167.5 -125.5 167.5 -117.5 c 2
 167.5 -87 l 2
 167.5 -78 171.5 -74 180.5 -74 c 2
 401.5 -74 l 2
 410.5 -74 414.5 -78 414.5 -87 c 2
 414.5 -117.5 l 2
EndSplineSet
Substitution2: "'c2sc' Capitals to Small Capitals in Latin lookup 11 subtable" uni1E0E.sc
AlternateSubs2: "'aalt' Access All Alternates in Latin lookup 0 subtable" uni1E0E.sc
Position2: "'cpsp' Capital Spacing in Latin lookup 0 subtable" dx=5 dy=0 dh=10 dv=0
EndChar

StartChar: uni01C5
Encoding: 453 453 47
Width: 1105
GlyphClass: 2
Flags: MW
HStem: -12 21G 0 38<35.5 46 40 46 46 65 40 282.5> 0 42<238.75 282.5> 431 20G 502 146 622 38<40 61.5 202.25 202.25 202.25 243.25>
VStem: 509 103 755 264
AnchorPoint: "Anchor-5" 887 625 basechar 0
AnchorPoint: "Anchor-4" 868 0 basechar 0
LayerCount: 2
Fore
SplineSet
258.5 660 m 2x37
 468.5 660 611.5 535 611.5 331 c 0
 611.5 121 483.5 0 282.5 0 c 2
 40 0 l 2x37
 31 0 26 4 26 13 c 2
 26 25 l 2
 26 33 31 38 40 38 c 2
 46 38 l 2x57
 84 38 105 69 105 121 c 2
 105 539 l 2
 105 594 83 622 40 622 c 0x37
 31 622 26 627 26 635 c 2
 26 647 l 2x3b
 26 656 31 660 40 660 c 2
 258.5 660 l 2x37
202.25 117 m 2
 202.25 71 210.25 42 267.25 42 c 0
 414.75 42 508.5 140 508.5 331 c 0
 508.5 501 416.75 622 243.25 622 c 2
 202.25 622 l 1
 202.25 117 l 2
1089 130 m 2
 1096.20996094 125.83984375 1098.20996094 119.202148438 1094 112.01171875 c 2
 1026 -3.98828125 l 2
 1023.04980469 -9.0185546875 1019 -10.98828125 1015 -10.98828125 c 0x97
 1011 -10.98828125 1011.12011719 -10.8583984375 1003 -3.98828125 c 0
 998.110351562 0.1513671875 993 0.01171875 987 0.01171875 c 2
 655.5 0.01171875 l 2
 646.5 0.01171875 642.5 4.01171875 642.5 13.01171875 c 2
 642.5 36.01171875 l 2
 642.5 40.01171875 642.400390625 43.6416015625 644.5 46.01171875 c 2
 952.5 394.01171875 l 1
 816.75 394.01171875 l 2
 759.5 394.01171875 722.759765625 368.151367188 692.969726562 316.03125 c 2
 688.969726562 309.03125 l 2
 683.299804688 299.1015625 680.76953125 298.151367188 670.969726562 304.03125 c 2
 661 310.01171875 l 2
 652.830078125 314.912109375 651.98046875 319.912109375 657 328.001953125 c 2
 729 444.001953125 l 2
 731.639648438 448.251953125 735 451.001953125 740 451.001953125 c 0
 743 451.001953125 744.799804688 450.822265625 751 444.001953125 c 0
 754.809570312 439.811523438 761 440.001953125 767 440.001953125 c 2
 1068.06054688 440.001953125 l 2
 1073.20996094 440.001953125 1074 437.131835938 1074 433.131835938 c 0
 1074 430.131835938 1072.79980469 427.19140625 1070 424.000976562 c 2
 738.5 46.0009765625 l 1
 887.419921875 46.0009765625 l 2
 948.419921875 46.0009765625 1013.65039062 53.390625 1057.5 126.48046875 c 2
 1060.5 131.48046875 l 2
 1068.06054688 144.080078125 1077.16015625 136.830078125 1079.5 135.48046875 c 2
 1089 130 l 2
886.5 567.072265625 m 1
 906.549804688 604.852539062 940.481445312 647.262695312 984.431640625 647.262695312 c 0
 1007.57128906 647.262695312 1018.36132812 624.90234375 1018.36132812 599.452148438 c 0
 1018.36132812 587.892578125 1017.59179688 577.862304688 1009.11132812 574.012695312 c 0
 964.380859375 557.04296875 941.250976562 545.483398438 886.500976562 501.5234375 c 1
 831.750976562 545.483398438 808.62109375 557.04296875 763.890625 574.012695312 c 0
 755.41015625 577.862304688 754.640625 587.892578125 754.640625 599.452148438 c 0
 754.640625 624.90234375 765.430664062 647.262695312 788.5703125 647.262695312 c 0x3b
 832.520507812 647.262695312 866.450195312 604.852539062 886.5 567.072265625 c 1
EndSplineSet
Substitution2: "'c2sc' Capitals to Small Capitals in Latin lookup 11 subtable" uni01C5.sc
AlternateSubs2: "'aalt' Access All Alternates in Latin lookup 0 subtable" uni01C5.sc
Position2: "'cpsp' Capital Spacing in Latin lookup 0 subtable" dx=5 dy=0 dh=10 dv=0
EndChar

StartChar: Eth
Encoding: 208 208 48
Width: 695
GlyphClass: 2
Flags: MW
HStem: 0 38<35.5 46 40 46 46 65 40 282.5> 0 42<238.75 282.5> 297 58<35.5 105 40 105 202.25 396> 622 38<40 61.5 202.25 202.25 202.25 243.25>
VStem: 105 97.25<121 297 355 539 539 566.5> 508.5 103<235.5 416>
AnchorPoint: "Anchor-5" 279 660 basechar 0
AnchorPoint: "Anchor-4" 291 0 basechar 0
LayerCount: 2
Fore
SplineSet
40 297 m 2x7c
 31 297 26 302 26 310 c 2
 26 341 l 2
 26 350 31 355 40 355 c 2
 105 355 l 1
 105 539 l 2
 105 594 83 622 40 622 c 0
 31 622 26 627 26 635 c 2
 26 647 l 2
 26 656 31 660 40 660 c 2
 258.5 660 l 2
 468.5 660 611.5 535 611.5 331 c 0
 611.5 121 483.5 0 282.5 0 c 2
 40 0 l 2
 31 0 26 4 26 13 c 2x7c
 26 25 l 2
 26 33 31 38 40 38 c 2
 46 38 l 2
 84 38 105 69 105 121 c 2xbc
 105 297 l 1
 40 297 l 2x7c
202.25 117 m 2
 202.25 71 210.25 42 267.25 42 c 0
 414.75 42 508.5 140 508.5 331 c 0
 508.5 501 416.75 622 243.25 622 c 2
 202.25 622 l 1
 202.25 355 l 1
 396 355 l 2
 405 355 409 350 409 341 c 2
 409 310 l 2
 409 302 405 297 396 297 c 2
 202.25 297 l 1
 202.25 117 l 2
EndSplineSet
Substitution2: "'c2sc' Capitals to Small Capitals in Latin lookup 11 subtable" Eth.sc
AlternateSubs2: "'aalt' Access All Alternates in Latin lookup 0 subtable" Eth.sc
Position2: "'cpsp' Capital Spacing in Latin lookup 0 subtable" dx=5 dy=0 dh=10 dv=0
EndChar

StartChar: E
Encoding: 69 69 49
Width: 634
GlyphClass: 2
Flags: MW
HStem: 0 38<35.5 41 40 41 41 62.5 40 491> 0 47<269.75 340.5 340.5 405> 327.5 48.5<202.25 307 202.25 307> 613 47<202.25 372 202.25 202.25> 621 39<40 62> 651 20G<478.5 482>
VStem: 105 97.25<121 131 131 327.5 376 538 538 565.5> 376 37<263.5 268.5 268.5 288.5 435 441>
AnchorPoint: "Anchor-6" 506 0 basechar 0
AnchorPoint: "Anchor-5" 306 660 basechar 0
AnchorPoint: "Anchor-4" 314 0 basechar 0
LayerCount: 2
Fore
SplineSet
609 188.25 m 2x73
 618 184 618 179 614 170 c 2
 531 -4 l 2
 528.75 -10 525 -12 521 -12 c 0
 518 -12 515.75 -11.25 513 -9 c 2
 509 -4 l 2
 505.25 -0.75 502 0 491 0 c 2
 40 0 l 2
 31 0 26 4 26 13 c 2x73
 26 25 l 2
 26 33 32 38 40 38 c 2
 41 38 l 2
 84 38 105 65 105 121 c 2
 105 538 l 2
 105 593 84 621 40 621 c 0xab
 32 621 26 627 26 635 c 2
 26 646 l 2
 26 655 31 660 40 660 c 2
 450 660 l 2x73
 459 660 463 660.75 467 664 c 2
 472 669 l 2
 474 671 477 671 480 671 c 0
 484 671 488 669 491 664 c 2x67
 560 545 l 2
 562 542 563 539 563 537 c 0
 563 532 560 528.75 556 526 c 2
 536 514.5 l 2
 531 511.5 529 510.5 526 510.5 c 0
 522 510.5 519 513.5 516 518.5 c 2
 513 523.5 l 2
 470.25 594 440 613 372 613 c 2
 202.25 613 l 1
 202.25 376 l 1
 307 376 l 2
 352.5 376 376 396 376 435 c 2
 376 441 l 2
 376 450 380 454 389 454 c 2
 400 454 l 2
 409 454 413 450 413 441 c 2
 413 263.5 l 2
 413 254.5 409 250.5 400 250.5 c 2
 389 250.5 l 2
 380 250.5 376 254.5 376 263.5 c 2
 376 268.5 l 2
 376 308.5 353.5 327.5 307 327.5 c 2
 202.25 327.5 l 1
 202.25 131 l 2
 202.25 77 230.75 47 269.75 47 c 2
 340.5 47 l 2
 469.5 47 514 74.25 569.75 186.5 c 2
 572.75 192.5 l 2
 575.75 199.25 583 202.25 591.5 197.5 c 2
 609 188.25 l 2x73
EndSplineSet
Substitution2: "'ss04' Style Set 4 in Latin lookup 33 subtable" u1F154
Substitution2: "'ss03' Style Set 3 in Latin lookup 31 subtable" uni24BA
Substitution2: "'c2sc' Capitals to Small Capitals in Latin lookup 11 subtable" E.sc
AlternateSubs2: "'aalt' Access All Alternates in Latin lookup 0 subtable" E.sc uni24BA u1F154
Position2: "'cpsp' Capital Spacing in Latin lookup 0 subtable" dx=5 dy=0 dh=10 dv=0
EndChar

StartChar: Eacute
Encoding: 201 201 50
Width: 634
GlyphClass: 2
Flags: MW
HStem: 0 38<35.5 41 40 41 41 62.5 40 491> 0 47<269.75 340.5 340.5 405> 327.5 48.5<202.25 307 202.25 307> 613 47<202.25 372 202.25 202.25> 621 39<40 62> 651 20G<478.5 482>
VStem: 105 97.25<121 131 131 327.5 376 538 538 565.5> 376 37<263.5 268.5 268.5 288.5 435 441>
AnchorPoint: "Anchor-6" 506 0 basechar 0
AnchorPoint: "Anchor-5" 338 899 basechar 0
AnchorPoint: "Anchor-4" 314 0 basechar 0
LayerCount: 2
Fore
SplineSet
609 188.25 m 2x73
 618 184 618 179 614 170 c 2
 531 -4 l 2
 528.75 -10 525 -12 521 -12 c 0
 518 -12 515.75 -11.25 513 -9 c 2
 509 -4 l 2
 505.25 -0.75 502 0 491 0 c 2
 40 0 l 2
 31 0 26 4 26 13 c 2x73
 26 25 l 2
 26 33 32 38 40 38 c 2
 41 38 l 2
 84 38 105 65 105 121 c 2
 105 538 l 2
 105 593 84 621 40 621 c 0xab
 32 621 26 627 26 635 c 2
 26 646 l 2
 26 655 31 660 40 660 c 2
 450 660 l 2x73
 459 660 463 660.75 467 664 c 2
 472 669 l 2
 474 671 477 671 480 671 c 0
 484 671 488 669 491 664 c 2x67
 560 545 l 2
 562 542 563 539 563 537 c 0
 563 532 560 528.75 556 526 c 2
 536 514.5 l 2
 531 511.5 529 510.5 526 510.5 c 0
 522 510.5 519 513.5 516 518.5 c 2
 513 523.5 l 2
 470.25 594 440 613 372 613 c 2
 202.25 613 l 1
 202.25 376 l 1
 307 376 l 2
 352.5 376 376 396 376 435 c 2
 376 441 l 2
 376 450 380 454 389 454 c 2
 400 454 l 2
 409 454 413 450 413 441 c 2
 413 263.5 l 2
 413 254.5 409 250.5 400 250.5 c 2
 389 250.5 l 2
 380 250.5 376 254.5 376 263.5 c 2
 376 268.5 l 2
 376 308.5 353.5 327.5 307 327.5 c 2
 202.25 327.5 l 1
 202.25 131 l 2
 202.25 77 230.75 47 269.75 47 c 2
 340.5 47 l 2
 469.5 47 514 74.25 569.75 186.5 c 2
 572.75 192.5 l 2
 575.75 199.25 583 202.25 591.5 197.5 c 2
 609 188.25 l 2x73
243.990234375 729.139648438 m 1
 295.629882812 793.529296875 307.859375 815.600585938 329.969726562 865.850585938 c 0
 334.509765625 875.860351562 344.790039062 878.340820312 355.83984375 878.340820312 c 0
 384.870117188 878.340820312 399.580078125 864.020507812 399.580078125 838.810546875 c 0
 399.580078125 785.150390625 332.219726562 748.830078125 283.16015625 719.849609375 c 0
 279.610351562 717.869140625 275.940429688 716.309570312 272.8203125 716.51953125 c 0
 269.790039062 716.759765625 265.280273438 718.629882812 259.8203125 721.33984375 c 2
 243.990234375 729.139648438 l 1
EndSplineSet
Substitution2: "'c2sc' Capitals to Small Capitals in Latin lookup 11 subtable" Eacute.sc
AlternateSubs2: "'aalt' Access All Alternates in Latin lookup 0 subtable" Eacute.sc
Position2: "'cpsp' Capital Spacing in Latin lookup 0 subtable" dx=5 dy=0 dh=10 dv=0
EndChar

StartChar: Ebreve
Encoding: 276 276 51
Width: 634
GlyphClass: 2
Flags: MW
HStem: 0 38<35.5 41 40 41 41 62.5 40 491> 0 47<269.75 340.5 340.5 405> 327.5 48.5<202.25 307 202.25 307> 613 47<202.25 372 202.25 202.25> 621 39<40 62> 651 20G<478.5 482> 711 48.36
VStem: 105 97.25<121 131 131 327.5 376 538 538 565.5> 376 37<263.5 268.5 268.5 288.5 435 441>
AnchorPoint: "Anchor-6" 506 0 basechar 0
AnchorPoint: "Anchor-5" 306 820 basechar 0
AnchorPoint: "Anchor-4" 314 0 basechar 0
LayerCount: 2
Fore
SplineSet
609 188.25 m 2x7380
 618 184 618 179 614 170 c 2
 531 -4 l 2
 528.75 -10 525 -12 521 -12 c 0
 518 -12 515.75 -11.25 513 -9 c 2
 509 -4 l 2
 505.25 -0.75 502 0 491 0 c 2
 40 0 l 2
 31 0 26 4 26 13 c 2x7380
 26 25 l 2
 26 33 32 38 40 38 c 2
 41 38 l 2
 84 38 105 65 105 121 c 2
 105 538 l 2
 105 593 84 621 40 621 c 0xab80
 32 621 26 627 26 635 c 2
 26 646 l 2
 26 655 31 660 40 660 c 2
 450 660 l 2x7380
 459 660 463 660.75 467 664 c 2
 472 669 l 2
 474 671 477 671 480 671 c 0
 484 671 488 669 491 664 c 2x6780
 560 545 l 2
 562 542 563 539 563 537 c 0
 563 532 560 528.75 556 526 c 2
 536 514.5 l 2
 531 511.5 529 510.5 526 510.5 c 0
 522 510.5 519 513.5 516 518.5 c 2
 513 523.5 l 2
 470.25 594 440 613 372 613 c 2
 202.25 613 l 1
 202.25 376 l 1
 307 376 l 2
 352.5 376 376 396 376 435 c 2
 376 441 l 2
 376 450 380 454 389 454 c 2
 400 454 l 2
 409 454 413 450 413 441 c 2
 413 263.5 l 2
 413 254.5 409 250.5 400 250.5 c 2
 389 250.5 l 2
 380 250.5 376 254.5 376 263.5 c 2
 376 268.5 l 2
 376 308.5 353.5 327.5 307 327.5 c 2
 202.25 327.5 l 1
 202.25 131 l 2
 202.25 77 230.75 47 269.75 47 c 2
 340.5 47 l 2
 469.5 47 514 74.25 569.75 186.5 c 2
 572.75 192.5 l 2
 575.75 199.25 583 202.25 591.5 197.5 c 2
 609 188.25 l 2x7380
306 711 m 1
 306.1015625 711 l 1
 215.3515625 711 177.961914062 780.76953125 177.961914062 816.619140625 c 0
 177.961914062 826.619140625 183.171875 830.44921875 192.952148438 831.609375 c 0
 200.471679688 832.44921875 215.702148438 833.76953125 223.362304688 834.279296875 c 0
 235.171875 835.26953125 238.981445312 831.899414062 239.911132812 818.939453125 c 0
 243.010742188 782.329101562 266.690429688 759.329101562 306.05078125 759.329101562 c 0
 345.650390625 759.329101562 369.330078125 782.329101562 372.4296875 818.939453125 c 0
 373.109375 831.899414062 377.168945312 835.26953125 388.978515625 834.279296875 c 0
 396.388671875 833.76953125 411.869140625 832.44921875 419.139648438 831.609375 c 0
 428.919921875 830.44921875 434.129882812 826.619140625 434.129882812 816.619140625 c 0
 434.129882812 780.76953125 397 711 306 711 c 1
EndSplineSet
Substitution2: "'c2sc' Capitals to Small Capitals in Latin lookup 11 subtable" Ebreve.sc
AlternateSubs2: "'aalt' Access All Alternates in Latin lookup 0 subtable" Ebreve.sc
Position2: "'cpsp' Capital Spacing in Latin lookup 0 subtable" dx=5 dy=0 dh=10 dv=0
EndChar

StartChar: Ecaron
Encoding: 282 282 52
Width: 634
GlyphClass: 2
Flags: MW
HStem: 0 38<35.5 41 40 41 41 62.5 40 491> 0 47<269.75 340.5 340.5 405> 327.5 48.5<202.25 307 202.25 307> 613 47<202.25 372 202.25 202.25> 621 39<40 62> 651 20G<478.5 482>
VStem: 105 97.25<121 131 131 327.5 376 538 538 565.5> 376 37<263.5 268.5 268.5 288.5 435 441>
AnchorPoint: "Anchor-6" 506 0 basechar 0
AnchorPoint: "Anchor-5" 306 845 basechar 0
AnchorPoint: "Anchor-4" 314 0 basechar 0
LayerCount: 2
Fore
SplineSet
609 188.25 m 2x73
 618 184 618 179 614 170 c 2
 531 -4 l 2
 528.75 -10 525 -12 521 -12 c 0
 518 -12 515.75 -11.25 513 -9 c 2
 509 -4 l 2
 505.25 -0.75 502 0 491 0 c 2
 40 0 l 2
 31 0 26 4 26 13 c 2x73
 26 25 l 2
 26 33 32 38 40 38 c 2
 41 38 l 2
 84 38 105 65 105 121 c 2
 105 538 l 2
 105 593 84 621 40 621 c 0xab
 32 621 26 627 26 635 c 2
 26 646 l 2
 26 655 31 660 40 660 c 2
 450 660 l 2x73
 459 660 463 660.75 467 664 c 2
 472 669 l 2
 474 671 477 671 480 671 c 0
 484 671 488 669 491 664 c 2x67
 560 545 l 2
 562 542 563 539 563 537 c 0
 563 532 560 528.75 556 526 c 2
 536 514.5 l 2
 531 511.5 529 510.5 526 510.5 c 0
 522 510.5 519 513.5 516 518.5 c 2
 513 523.5 l 2
 470.25 594 440 613 372 613 c 2
 202.25 613 l 1
 202.25 376 l 1
 307 376 l 2
 352.5 376 376 396 376 435 c 2
 376 441 l 2
 376 450 380 454 389 454 c 2
 400 454 l 2
 409 454 413 450 413 441 c 2
 413 263.5 l 2
 413 254.5 409 250.5 400 250.5 c 2
 389 250.5 l 2
 380 250.5 376 254.5 376 263.5 c 2
 376 268.5 l 2
 376 308.5 353.5 327.5 307 327.5 c 2
 202.25 327.5 l 1
 202.25 131 l 2
 202.25 77 230.75 47 269.75 47 c 2
 340.5 47 l 2
 469.5 47 514 74.25 569.75 186.5 c 2
 572.75 192.5 l 2
 575.75 199.25 583 202.25 591.5 197.5 c 2
 609 188.25 l 2x73
306 787.049804688 m 1
 326.040039062 824.830078125 359.981445312 867.240234375 403.931640625 867.240234375 c 0
 427.061523438 867.240234375 437.8515625 844.879882812 437.8515625 819.439453125 c 0
 437.8515625 807.889648438 437.091796875 797.859375 428.611328125 794.01953125 c 0
 383.880859375 777.049804688 360.760742188 765.5 306.010742188 721.540039062 c 1
 251.260742188 765.5 228.130859375 777.049804688 183.400390625 794.01953125 c 0
 174.919921875 797.859375 174.16015625 807.889648438 174.16015625 819.439453125 c 0
 174.16015625 844.879882812 184.959960938 867.240234375 208.080078125 867.240234375 c 0
 252.030273438 867.240234375 285.950195312 824.830078125 306 787.049804688 c 1
EndSplineSet
Substitution2: "'c2sc' Capitals to Small Capitals in Latin lookup 11 subtable" Ecaron.sc
AlternateSubs2: "'aalt' Access All Alternates in Latin lookup 0 subtable" Ecaron.sc
Position2: "'cpsp' Capital Spacing in Latin lookup 0 subtable" dx=5 dy=0 dh=10 dv=0
EndChar

StartChar: uni1E1C
Encoding: 7708 7708 53
Width: 634
GlyphClass: 2
Flags: MW
HStem: -225 45.68 -84.42 38.43 -1.52588e-05 38 -1.52588e-05 47 327.5 48.5 613 47 621 39 651 20G 711 48.36
VStem: 105 97.25<121 131 131 327.5 376 538 538 565.5> 372.54 56.46 376 37<263.5 268.5 268.5 288.5 435 441>
AnchorPoint: "Anchor-6" 506 0 basechar 0
AnchorPoint: "Anchor-5" 306 820 basechar 0
AnchorPoint: "Anchor-4" 314 0 basechar 0
LayerCount: 2
Fore
SplineSet
609 188.25 m 2xdcd0
 618 184 617.990234375 179.0390625 613.990234375 170.0390625 c 2
 530.990234375 -3.9609375 l 2
 528.740234375 -9.9609375 524.990234375 -11.9609375 520.990234375 -11.9609375 c 0
 517.990234375 -11.9609375 515.740234375 -11.2109375 512.990234375 -8.9609375 c 2
 508.990234375 -3.9609375 l 2
 505.240234375 -0.7109375 501.990234375 0.0390625 490.990234375 0.0390625 c 2
 333.780273438 0.0390625 l 1
 289 -52.9609375 l 1
 302 -47.9609375 316 -45.9609375 330 -45.9609375 c 0
 376 -45.9609375 429 -71.9609375 429 -134.9609375 c 0
 429 -186.9609375 383 -224.9609375 315 -224.9609375 c 0
 288 -224.9609375 258 -219.9609375 227 -206.9609375 c 0
 210 -199.9609375 209 -193.010742188 209 -171.80078125 c 0
 209 -164.3203125 211.5 -159.3203125 216.48046875 -159.3203125 c 0
 220.23046875 -159.3203125 223.850585938 -160.850585938 226.4609375 -161.810546875 c 0
 252.670898438 -170.541015625 281.380859375 -179.271484375 312.590820312 -179.271484375 c 0
 350.041015625 -179.271484375 372.510742188 -163.041015625 372.510742188 -136.831054688 c 0
 372.510742188 -99.380859375 337.55078125 -84.4111328125 288.880859375 -84.4111328125 c 0
 273.920898438 -84.4111328125 252.690429688 -88.1611328125 240.220703125 -88.1611328125 c 0
 233.990234375 -88.1611328125 230.240234375 -84.4111328125 230.240234375 -79.4208984375 c 0
 230.240234375 -75.6708984375 229.830078125 -72.8505859375 232.740234375 -69.4404296875 c 2
 288.5703125 0 l 1
 40 0 l 2
 31 0 26 4 26 13 c 2xdce0
 26 25 l 2
 26 33 32 38 40 38 c 2
 41 38 l 2
 84 38 105 65 105 121 c 2
 105 538 l 2
 105 593 84 621 40 621 c 0xead0
 32 621 26 627 26 635 c 2
 26 646 l 2
 26 655 31 660 40 660 c 2
 450 660 l 2xdcd0
 459 660 463 660.75 467 664 c 2
 472 669 l 2
 474 671 477 671 480 671 c 0
 484 671 488 669 491 664 c 2xd9d0
 560 545 l 2
 562 542 563 539 563 537 c 0
 563 532 560 528.75 556 526 c 2
 536 514.5 l 2
 531 511.5 529 510.5 526 510.5 c 0
 522 510.5 519 513.5 516 518.5 c 2
 513 523.5 l 2
 470.25 594 440 613 372 613 c 2
 202.25 613 l 1
 202.25 376 l 1
 307 376 l 2
 352.5 376 376 396 376 435 c 2
 376 441 l 2
 376 450 380 454 389 454 c 2
 400 454 l 2
 409 454 413 450 413 441 c 2
 413 263.5 l 2
 413 254.5 409 250.5 400 250.5 c 2
 389 250.5 l 2
 380 250.5 376 254.5 376 263.5 c 2
 376 268.5 l 2
 376 308.5 353.5 327.5 307 327.5 c 2
 202.25 327.5 l 1
 202.25 131 l 2
 202.25 77 230.75 47 269.75 47 c 2
 340.5 47 l 2
 469.5 47 514 74.25 569.75 186.5 c 2
 572.75 192.5 l 2
 575.75 199.25 583 202.25 591.5 197.5 c 2
 609 188.25 l 2xdcd0
305.990234375 711.0390625 m 1
 306.091796875 711.0390625 l 1
 215.341796875 711.0390625 177.952148438 780.80859375 177.952148438 816.658203125 c 0
 177.952148438 826.658203125 183.162109375 830.48828125 192.942382812 831.6484375 c 0
 200.461914062 832.48828125 215.692382812 833.80859375 223.352539062 834.318359375 c 0
 235.162109375 835.30859375 238.971679688 831.938476562 239.901367188 818.978515625 c 0
 243.000976562 782.368164062 266.680664062 759.368164062 306.041015625 759.368164062 c 0
 345.640625 759.368164062 369.3203125 782.368164062 372.419921875 818.978515625 c 0
 373.099609375 831.938476562 377.159179688 835.30859375 388.96875 834.318359375 c 0
 396.37890625 833.80859375 411.859375 832.48828125 419.129882812 831.6484375 c 0
 428.91015625 830.48828125 434.120117188 826.658203125 434.120117188 816.658203125 c 0
 434.120117188 780.80859375 396.990234375 711.0390625 305.990234375 711.0390625 c 1
EndSplineSet
Substitution2: "'c2sc' Capitals to Small Capitals in Latin lookup 11 subtable" uni1E1C.sc
AlternateSubs2: "'aalt' Access All Alternates in Latin lookup 0 subtable" uni1E1C.sc
Position2: "'cpsp' Capital Spacing in Latin lookup 0 subtable" dx=5 dy=0 dh=10 dv=0
EndChar

StartChar: Ecircumflex
Encoding: 202 202 54
Width: 634
GlyphClass: 2
Flags: MW
HStem: 0 38<35.5 41 40 41 41 62.5 40 491> 0 47<269.75 340.5 340.5 405> 327.5 48.5<202.25 307 202.25 307> 613 47<202.25 372 202.25 202.25> 621 39<40 62> 651 20G<478.5 482>
VStem: 105 97.25<121 131 131 327.5 376 538 538 565.5> 376 37<263.5 268.5 268.5 288.5 435 441>
AnchorPoint: "Anchor-7" 306 759 basechar 0
AnchorPoint: "Anchor-6" 506 0 basechar 0
AnchorPoint: "Anchor-5" 306 816 basechar 0
AnchorPoint: "Anchor-4" 314 0 basechar 0
LayerCount: 2
Fore
SplineSet
609 188.25 m 2x73
 618 184 618 179 614 170 c 2
 531 -4 l 2
 528.75 -10 525 -12 521 -12 c 0
 518 -12 515.75 -11.25 513 -9 c 2
 509 -4 l 2
 505.25 -0.75 502 0 491 0 c 2
 40 0 l 2
 31 0 26 4 26 13 c 2x73
 26 25 l 2
 26 33 32 38 40 38 c 2
 41 38 l 2
 84 38 105 65 105 121 c 2
 105 538 l 2
 105 593 84 621 40 621 c 0xab
 32 621 26 627 26 635 c 2
 26 646 l 2
 26 655 31 660 40 660 c 2
 450 660 l 2x73
 459 660 463 660.75 467 664 c 2
 472 669 l 2
 474 671 477 671 480 671 c 0
 484 671 488 669 491 664 c 2x67
 560 545 l 2
 562 542 563 539 563 537 c 0
 563 532 560 528.75 556 526 c 2
 536 514.5 l 2
 531 511.5 529 510.5 526 510.5 c 0
 522 510.5 519 513.5 516 518.5 c 2
 513 523.5 l 2
 470.25 594 440 613 372 613 c 2
 202.25 613 l 1
 202.25 376 l 1
 307 376 l 2
 352.5 376 376 396 376 435 c 2
 376 441 l 2
 376 450 380 454 389 454 c 2
 400 454 l 2
 409 454 413 450 413 441 c 2
 413 263.5 l 2
 413 254.5 409 250.5 400 250.5 c 2
 389 250.5 l 2
 380 250.5 376 254.5 376 263.5 c 2
 376 268.5 l 2
 376 308.5 353.5 327.5 307 327.5 c 2
 202.25 327.5 l 1
 202.25 131 l 2
 202.25 77 230.75 47 269.75 47 c 2
 340.5 47 l 2
 469.5 47 514 74.25 569.75 186.5 c 2
 572.75 192.5 l 2
 575.75 199.25 583 202.25 591.5 197.5 c 2
 609 188.25 l 2x73
306 795.4296875 m 1
 285.950195312 757.649414062 252.008789062 715.249023438 208.05859375 715.249023438 c 0
 184.938476562 715.249023438 174.138671875 737.598632812 174.138671875 763.0390625 c 0
 174.138671875 774.588867188 174.8984375 784.619140625 183.37890625 788.46875 c 0
 228.109375 805.428710938 251.239257812 816.978515625 305.989257812 860.938476562 c 1
 360.739257812 816.978515625 383.859375 805.428710938 428.58984375 788.46875 c 0
 437.0703125 784.619140625 437.830078125 774.588867188 437.830078125 763.0390625 c 0
 437.830078125 737.598632812 427.040039062 715.249023438 403.91015625 715.249023438 c 0
 359.959960938 715.249023438 326.040039062 757.649414062 306 795.4296875 c 1
EndSplineSet
Substitution2: "'c2sc' Capitals to Small Capitals in Latin lookup 11 subtable" Ecircumflex.sc
AlternateSubs2: "'aalt' Access All Alternates in Latin lookup 0 subtable" Ecircumflex.sc
Position2: "'cpsp' Capital Spacing in Latin lookup 0 subtable" dx=5 dy=0 dh=10 dv=0
EndChar

StartChar: uni1EBE
Encoding: 7870 7870 55
Width: 634
GlyphClass: 2
Flags: MW
HStem: 0 38<35.5 41 40 41 41 62.5 40 491> 0 47<269.75 340.5 340.5 405> 327.5 48.5<202.25 307 202.25 307> 613 47<202.25 372 202.25 202.25> 621 39<40 62> 651 20G<478.5 482>
VStem: 105 97.25<121 131 131 327.5 376 538 538 565.5> 376 37<263.5 268.5 268.5 288.5 435 441>
AnchorPoint: "Anchor-7" 481 1006 basechar 0
AnchorPoint: "Anchor-6" 506 0 basechar 0
AnchorPoint: "Anchor-5" 306 816 basechar 0
AnchorPoint: "Anchor-4" 314 0 basechar 0
LayerCount: 2
Fore
SplineSet
609 188.25 m 2x73
 618 184 618 179 614 170 c 2
 531 -4 l 2
 528.75 -10 525 -12 521 -12 c 0
 518 -12 515.75 -11.25 513 -9 c 2
 509 -4 l 2
 505.25 -0.75 502 0 491 0 c 2
 40 0 l 2
 31 0 26 4 26 13 c 2x73
 26 25 l 2
 26 33 32 38 40 38 c 2
 41 38 l 2
 84 38 105 65 105 121 c 2
 105 538 l 2
 105 593 84 621 40 621 c 0xab
 32 621 26 627 26 635 c 2
 26 646 l 2
 26 655 31 660 40 660 c 2
 450 660 l 2x73
 459 660 463 660.75 467 664 c 2
 472 669 l 2
 474 671 477 671 480 671 c 0
 484 671 488 669 491 664 c 2x67
 560 545 l 2
 562 542 563 539 563 537 c 0
 563 532 560 528.75 556 526 c 2
 536 514.5 l 2
 531 511.5 529 510.5 526 510.5 c 0
 522 510.5 519 513.5 516 518.5 c 2
 513 523.5 l 2
 470.25 594 440 613 372 613 c 2
 202.25 613 l 1
 202.25 376 l 1
 307 376 l 2
 352.5 376 376 396 376 435 c 2
 376 441 l 2
 376 450 380 454 389 454 c 2
 400 454 l 2
 409 454 413 450 413 441 c 2
 413 263.5 l 2
 413 254.5 409 250.5 400 250.5 c 2
 389 250.5 l 2
 380 250.5 376 254.5 376 263.5 c 2
 376 268.5 l 2
 376 308.5 353.5 327.5 307 327.5 c 2
 202.25 327.5 l 1
 202.25 131 l 2
 202.25 77 230.75 47 269.75 47 c 2
 340.5 47 l 2
 469.5 47 514 74.25 569.75 186.5 c 2
 572.75 192.5 l 2
 575.75 199.25 583 202.25 591.5 197.5 c 2
 609 188.25 l 2x73
306 795.4296875 m 1
 285.950195312 757.649414062 252.008789062 715.249023438 208.05859375 715.249023438 c 0
 184.938476562 715.249023438 174.138671875 737.598632812 174.138671875 763.0390625 c 0
 174.138671875 774.588867188 174.8984375 784.619140625 183.37890625 788.46875 c 0
 228.109375 805.428710938 251.239257812 816.978515625 305.989257812 860.938476562 c 1
 360.739257812 816.978515625 383.859375 805.428710938 428.58984375 788.46875 c 0
 437.0703125 784.619140625 437.830078125 774.588867188 437.830078125 763.0390625 c 0
 437.830078125 737.598632812 427.040039062 715.249023438 403.91015625 715.249023438 c 0
 359.959960938 715.249023438 326.040039062 757.649414062 306 795.4296875 c 1
387.23828125 835.779296875 m 1
 438.8984375 900.189453125 451.138671875 922.227539062 473.258789062 972.477539062 c 0
 477.80859375 982.477539062 488.068359375 984.967773438 499.118164062 984.967773438 c 0
 528.1484375 984.967773438 542.868164062 970.658203125 542.868164062 945.448242188 c 0
 542.868164062 891.778320312 475.498046875 855.478515625 426.427734375 826.499023438 c 0
 422.877929688 824.499023438 419.208007812 822.94921875 416.087890625 823.149414062 c 0
 413.047851562 823.399414062 408.538085938 825.26953125 403.078125 827.989257812 c 2
 387.23828125 835.779296875 l 1
EndSplineSet
Substitution2: "'c2sc' Capitals to Small Capitals in Latin lookup 11 subtable" uni1EBE.sc
AlternateSubs2: "'aalt' Access All Alternates in Latin lookup 0 subtable" uni1EBE.sc
Position2: "'cpsp' Capital Spacing in Latin lookup 0 subtable" dx=5 dy=0 dh=10 dv=0
EndChar

StartChar: uni1EC6
Encoding: 7878 7878 56
Width: 634
GlyphClass: 2
Flags: MW
HStem: -181.21 126.57 0 38<35.5 41 40 41 41 62.5 40 491> 0 47<269.75 340.5 340.5 405> 327.5 48.5<202.25 307 202.25 307> 613 47<202.25 372 202.25 202.25> 621 39<40 62> 651 20G<478.5 482>
VStem: 105 97.25<121 131 131 327.5 376 538 538 565.5> 250.74 127.53 376 37<263.5 268.5 268.5 288.5 435 441>
AnchorPoint: "Anchor-7" 306 759 basechar 0
AnchorPoint: "Anchor-6" 506 0 basechar 0
AnchorPoint: "Anchor-5" 306 816 basechar 0
AnchorPoint: "Anchor-4" 314 0 basechar 0
LayerCount: 2
Fore
SplineSet
609 188.25 m 2x3940
 618 184 618 179 614 170 c 2
 531 -4 l 2
 528.75 -10 525 -12 521 -12 c 0
 518 -12 515.75 -11.25 513 -9 c 2
 509 -4 l 2
 505.25 -0.75 502 0 491 0 c 2
 40 0 l 2
 31 0 26 4 26 13 c 2x3940
 26 25 l 2
 26 33 32 38 40 38 c 2
 41 38 l 2
 84 38 105 65 105 121 c 2
 105 538 l 2
 105 593 84 621 40 621 c 0x5540
 32 621 26 627 26 635 c 2
 26 646 l 2
 26 655 31 660 40 660 c 2
 450 660 l 2x3940
 459 660 463 660.75 467 664 c 2
 472 669 l 2
 474 671 477 671 480 671 c 0
 484 671 488 669 491 664 c 2x3340
 560 545 l 2
 562 542 563 539 563 537 c 0
 563 532 560 528.75 556 526 c 2
 536 514.5 l 2
 531 511.5 529 510.5 526 510.5 c 0
 522 510.5 519 513.5 516 518.5 c 2
 513 523.5 l 2
 470.25 594 440 613 372 613 c 2
 202.25 613 l 1
 202.25 376 l 1
 307 376 l 2
 352.5 376 376 396 376 435 c 2
 376 441 l 2
 376 450 380 454 389 454 c 2
 400 454 l 2
 409 454 413 450 413 441 c 2
 413 263.5 l 2
 413 254.5 409 250.5 400 250.5 c 2
 389 250.5 l 2
 380 250.5 376 254.5 376 263.5 c 2
 376 268.5 l 2
 376 308.5 353.5 327.5 307 327.5 c 2
 202.25 327.5 l 1
 202.25 131 l 2
 202.25 77 230.75 47 269.75 47 c 2
 340.5 47 l 2
 469.5 47 514 74.25 569.75 186.5 c 2
 572.75 192.5 l 2
 575.75 199.25 583 202.25 591.5 197.5 c 2
 609 188.25 l 2x3940
314.01953125 -54.6396484375 m 0xb980
 329.349609375 -54.6396484375 341.819335938 -60.3896484375 357.149414062 -75.7197265625 c 0
 372.479492188 -91.0498046875 378.239257812 -102.559570312 378.239257812 -117.889648438 c 0
 378.239257812 -133.219726562 371.51953125 -145.6796875 357.149414062 -160.049804688 c 0
 341.819335938 -175.399414062 329.359375 -181.149414062 314.029296875 -181.149414062 c 0
 299.649414062 -181.149414062 288.149414062 -175.399414062 271.849609375 -160.049804688 c 0
 256.51953125 -145.6796875 250.76953125 -133.219726562 250.76953125 -117.889648438 c 0
 250.76953125 -102.559570312 256.51953125 -91.0498046875 271.849609375 -75.7197265625 c 0
 287.1796875 -60.3896484375 299.639648438 -54.6396484375 314.01953125 -54.6396484375 c 0xb980
306.01953125 795.440429688 m 1
 285.969726562 757.66015625 252.028320312 715.259765625 208.078125 715.259765625 c 0
 184.958007812 715.259765625 174.158203125 737.609375 174.158203125 763.049804688 c 0
 174.158203125 774.599609375 174.91796875 784.629882812 183.3984375 788.479492188 c 0
 228.12890625 805.439453125 251.258789062 816.989257812 306.008789062 860.94921875 c 1
 360.758789062 816.989257812 383.87890625 805.439453125 428.609375 788.479492188 c 0
 437.08984375 784.629882812 437.849609375 774.599609375 437.849609375 763.049804688 c 0
 437.849609375 737.609375 427.059570312 715.259765625 403.9296875 715.259765625 c 0
 359.979492188 715.259765625 326.059570312 757.66015625 306.01953125 795.440429688 c 1
EndSplineSet
Substitution2: "'c2sc' Capitals to Small Capitals in Latin lookup 11 subtable" uni1EC6.sc
AlternateSubs2: "'aalt' Access All Alternates in Latin lookup 0 subtable" uni1EC6.sc
Position2: "'cpsp' Capital Spacing in Latin lookup 0 subtable" dx=5 dy=0 dh=10 dv=0
EndChar

StartChar: uni1EC0
Encoding: 7872 7872 57
Width: 634
GlyphClass: 2
Flags: MW
HStem: 0 38<35.5 41 40 41 41 62.5 40 491> 0 47<269.75 340.5 340.5 405> 327.5 48.5<202.25 307 202.25 307> 613 47<202.25 372 202.25 202.25> 621 39<40 62> 651 20G<478.5 482>
VStem: 105 97.25<121 131 131 327.5 376 538 538 565.5> 376 37<263.5 268.5 268.5 288.5 435 441>
AnchorPoint: "Anchor-7" 137 1006 basechar 0
AnchorPoint: "Anchor-6" 506 0 basechar 0
AnchorPoint: "Anchor-5" 306 816 basechar 0
AnchorPoint: "Anchor-4" 314 0 basechar 0
LayerCount: 2
Fore
SplineSet
609 188.25 m 2x73
 618 184 618 179 614 170 c 2
 531 -4 l 2
 528.75 -10 525 -12 521 -12 c 0
 518 -12 515.75 -11.25 513 -9 c 2
 509 -4 l 2
 505.25 -0.75 502 0 491 0 c 2
 40 0 l 2
 31 0 26 4 26 13 c 2x73
 26 25 l 2
 26 33 32 38 40 38 c 2
 41 38 l 2
 84 38 105 65 105 121 c 2
 105 538 l 2
 105 593 84 621 40 621 c 0xab
 32 621 26 627 26 635 c 2
 26 646 l 2
 26 655 31 660 40 660 c 2
 450 660 l 2x73
 459 660 463 660.75 467 664 c 2
 472 669 l 2
 474 671 477 671 480 671 c 0
 484 671 488 669 491 664 c 2x67
 560 545 l 2
 562 542 563 539 563 537 c 0
 563 532 560 528.75 556 526 c 2
 536 514.5 l 2
 531 511.5 529 510.5 526 510.5 c 0
 522 510.5 519 513.5 516 518.5 c 2
 513 523.5 l 2
 470.25 594 440 613 372 613 c 2
 202.25 613 l 1
 202.25 376 l 1
 307 376 l 2
 352.5 376 376 396 376 435 c 2
 376 441 l 2
 376 450 380 454 389 454 c 2
 400 454 l 2
 409 454 413 450 413 441 c 2
 413 263.5 l 2
 413 254.5 409 250.5 400 250.5 c 2
 389 250.5 l 2
 380 250.5 376 254.5 376 263.5 c 2
 376 268.5 l 2
 376 308.5 353.5 327.5 307 327.5 c 2
 202.25 327.5 l 1
 202.25 131 l 2
 202.25 77 230.75 47 269.75 47 c 2
 340.5 47 l 2
 469.5 47 514 74.25 569.75 186.5 c 2
 572.75 192.5 l 2
 575.75 199.25 583 202.25 591.5 197.5 c 2
 609 188.25 l 2x73
306 795.4296875 m 1
 285.950195312 757.649414062 252.008789062 715.249023438 208.05859375 715.249023438 c 0
 184.938476562 715.249023438 174.138671875 737.598632812 174.138671875 763.0390625 c 0
 174.138671875 774.588867188 174.8984375 784.619140625 183.37890625 788.46875 c 0
 228.109375 805.428710938 251.239257812 816.978515625 305.989257812 860.938476562 c 1
 360.739257812 816.978515625 383.859375 805.428710938 428.58984375 788.46875 c 0
 437.0703125 784.619140625 437.830078125 774.588867188 437.830078125 763.0390625 c 0
 437.830078125 737.598632812 427.040039062 715.249023438 403.91015625 715.249023438 c 0
 359.959960938 715.249023438 326.040039062 757.649414062 306 795.4296875 c 1
215.538085938 827.989257812 m 2
 210.078125 825.26953125 205.569335938 823.41015625 202.51953125 823.16015625 c 0
 199.399414062 822.959960938 195.729492188 824.509765625 192.189453125 826.509765625 c 0
 143.119140625 855.490234375 75.7490234375 891.790039062 75.7490234375 945.459960938 c 0
 75.7490234375 970.669921875 90.458984375 984.979492188 119.499023438 984.979492188 c 0
 130.548828125 984.979492188 140.80859375 982.489257812 145.358398438 972.489257812 c 0
 167.478515625 922.239257812 179.728515625 900.189453125 231.368164062 835.779296875 c 1
 215.538085938 827.989257812 l 2
EndSplineSet
Substitution2: "'c2sc' Capitals to Small Capitals in Latin lookup 11 subtable" uni1EC0.sc
AlternateSubs2: "'aalt' Access All Alternates in Latin lookup 0 subtable" uni1EC0.sc
Position2: "'cpsp' Capital Spacing in Latin lookup 0 subtable" dx=5 dy=0 dh=10 dv=0
EndChar

StartChar: uni1EC2
Encoding: 7874 7874 58
Width: 634
GlyphClass: 2
Flags: MW
HStem: 0 38<35.5 41 40 41 41 62.5 40 491> 0 47<269.75 340.5 340.5 405> 327.5 48.5<202.25 307 202.25 307> 613 47<202.25 372 202.25 202.25> 621 39<40 62> 651 20G<478.5 482> 914 73.4 924.97 62.43
VStem: 105 97.25<121 131 131 327.5 376 538 538 565.5> 376 37<263.5 268.5 268.5 288.5 435 441> 411.78 52.97
AnchorPoint: "Anchor-7" 400 1053 basechar 0
AnchorPoint: "Anchor-6" 506 0 basechar 0
AnchorPoint: "Anchor-5" 306 816 basechar 0
AnchorPoint: "Anchor-4" 314 0 basechar 0
LayerCount: 2
Fore
SplineSet
609 188.25 m 2x70c0
 618 184 618 179 614 170 c 2
 531 -4 l 2
 528.75 -10 525 -12 521 -12 c 0
 518 -12 515.75 -11.25 513 -9 c 2
 509 -4 l 2
 505.25 -0.75 502 0 491 0 c 2
 40 0 l 2
 31 0 26 4 26 13 c 2x70c0
 26 25 l 2
 26 33 32 38 40 38 c 2
 41 38 l 2
 84 38 105 65 105 121 c 2
 105 538 l 2
 105 593 84 621 40 621 c 0xa8c0
 32 621 26 627 26 635 c 2
 26 646 l 2
 26 655 31 660 40 660 c 2
 450 660 l 2x70c0
 459 660 463 660.75 467 664 c 2
 472 669 l 2
 474 671 477 671 480 671 c 0
 484 671 488 669 491 664 c 2x64c0
 560 545 l 2
 562 542 563 539 563 537 c 0
 563 532 560 528.75 556 526 c 2
 536 514.5 l 2
 531 511.5 529 510.5 526 510.5 c 0
 522 510.5 519 513.5 516 518.5 c 2
 513 523.5 l 2
 470.25 594 440 613 372 613 c 2
 202.25 613 l 1
 202.25 376 l 1
 307 376 l 2
 352.5 376 376 396 376 435 c 2
 376 441 l 2
 376 450 380 454 389 454 c 2
 400 454 l 2
 409 454 413 450 413 441 c 2
 413 263.5 l 2
 413 254.5 409 250.5 400 250.5 c 2
 389 250.5 l 2
 380 250.5 376 254.5 376 263.5 c 2
 376 268.5 l 2
 376 308.5 353.5 327.5 307 327.5 c 2
 202.25 327.5 l 1
 202.25 131 l 2
 202.25 77 230.75 47 269.75 47 c 2
 340.5 47 l 2
 469.5 47 514 74.25 569.75 186.5 c 2
 572.75 192.5 l 2
 575.75 199.25 583 202.25 591.5 197.5 c 2
 609 188.25 l 2x70c0
306 795.4296875 m 1
 285.950195312 757.649414062 252.008789062 715.249023438 208.05859375 715.249023438 c 0
 184.938476562 715.249023438 174.138671875 737.598632812 174.138671875 763.0390625 c 0
 174.138671875 774.588867188 174.8984375 784.619140625 183.37890625 788.46875 c 0
 228.109375 805.428710938 251.239257812 816.978515625 305.989257812 860.938476562 c 1
 360.739257812 816.978515625 383.859375 805.428710938 428.58984375 788.46875 c 0
 437.0703125 784.619140625 437.830078125 774.588867188 437.830078125 763.0390625 c 0
 437.830078125 737.598632812 427.040039062 715.249023438 403.91015625 715.249023438 c 0
 359.959960938 715.249023438 326.040039062 757.649414062 306 795.4296875 c 1
427.348632812 826.529296875 m 0x72a0
 419.158203125 815.829101562 384.009765625 837.8203125 389.51953125 846.30078125 c 0
 398.969726562 861.55078125 411.739257812 875.9609375 411.739257812 896.690429688 c 0
 411.739257812 917.860351562 398.889648438 924.959960938 384.859375 924.959960938 c 0
 365.759765625 924.959960938 352.509765625 908.0703125 347.639648438 916.299804688 c 0x71a0
 339.9296875 929.389648438 329.609375 943.83984375 331.639648438 959.729492188 c 0
 332.739257812 969.779296875 362.739257812 987.359375 393.479492188 987.359375 c 0
 447.249023438 987.359375 464.71875 945.599609375 464.71875 913.619140625 c 0
 464.71875 886.7890625 450.848632812 856.609375 427.348632812 826.529296875 c 0x72a0
EndSplineSet
Substitution2: "'c2sc' Capitals to Small Capitals in Latin lookup 11 subtable" uni1EC2.sc
AlternateSubs2: "'aalt' Access All Alternates in Latin lookup 0 subtable" uni1EC2.sc
Position2: "'cpsp' Capital Spacing in Latin lookup 0 subtable" dx=5 dy=0 dh=10 dv=0
EndChar

StartChar: uni1EC4
Encoding: 7876 7876 59
Width: 634
GlyphClass: 2
Flags: MW
HStem: 0 38<35.5 41 40 41 41 62.5 40 491> 0 47<269.75 340.5 340.5 405> 327.5 48.5<202.25 307 202.25 307> 613 47<202.25 372 202.25 202.25> 621 39<40 62> 651 20G<478.5 482> 881.08 50.5 965.08 49.5
VStem: 105 97.25<121 131 131 327.5 376 538 538 565.5> 164.75 54.5 376 37<263.5 268.5 268.5 288.5 435 441> 392.75 54.5
AnchorPoint: "Anchor-7" 306 759 basechar 0
AnchorPoint: "Anchor-6" 506 0 basechar 0
AnchorPoint: "Anchor-5" 306 1001 basechar 0
AnchorPoint: "Anchor-4" 314 0 basechar 0
LayerCount: 2
Fore
SplineSet
609 188.25 m 2x73a0
 618 184 618 179 614 170 c 2
 531 -4 l 2
 528.75 -10 525 -12 521 -12 c 0
 518 -12 515.75 -11.25 513 -9 c 2
 509 -4 l 2
 505.25 -0.75 502 0 491 0 c 2
 40 0 l 2
 31 0 26 4 26 13 c 2x73a0
 26 25 l 2
 26 33 32 38 40 38 c 2
 41 38 l 2
 84 38 105 65 105 121 c 2
 105 538 l 2
 105 593 84 621 40 621 c 0xaba0
 32 621 26 627 26 635 c 2
 26 646 l 2
 26 655 31 660 40 660 c 2
 450 660 l 2x73a0
 459 660 463 660.75 467 664 c 2
 472 669 l 2
 474 671 477 671 480 671 c 0
 484 671 488 669 491 664 c 2x67a0
 560 545 l 2
 562 542 563 539 563 537 c 0
 563 532 560 528.75 556 526 c 2
 536 514.5 l 2
 531 511.5 529 510.5 526 510.5 c 0
 522 510.5 519 513.5 516 518.5 c 2
 513 523.5 l 2
 470.25 594 440 613 372 613 c 2
 202.25 613 l 1
 202.25 376 l 1
 307 376 l 2
 352.5 376 376 396 376 435 c 2
 376 441 l 2
 376 450 380 454 389 454 c 2
 400 454 l 2
 409 454 413 450 413 441 c 2
 413 263.5 l 2
 413 254.5 409 250.5 400 250.5 c 2
 389 250.5 l 2
 380 250.5 376 254.5 376 263.5 c 2
 376 268.5 l 2
 376 308.5 353.5 327.5 307 327.5 c 2
 202.25 327.5 l 1
 202.25 131 l 2
 202.25 77 230.75 47 269.75 47 c 2
 340.5 47 l 2
 469.5 47 514 74.25 569.75 186.5 c 2
 572.75 192.5 l 2
 575.75 199.25 583 202.25 591.5 197.5 c 2
 609 188.25 l 2x73a0
306 795.4296875 m 1
 285.950195312 757.649414062 252.008789062 715.249023438 208.05859375 715.249023438 c 0
 184.938476562 715.249023438 174.138671875 737.598632812 174.138671875 763.0390625 c 0
 174.138671875 774.588867188 174.8984375 784.619140625 183.37890625 788.46875 c 0
 228.109375 805.428710938 251.239257812 816.978515625 305.989257812 860.938476562 c 1
 360.739257812 816.978515625 383.859375 805.428710938 428.58984375 788.46875 c 0
 437.0703125 784.619140625 437.830078125 774.588867188 437.830078125 763.0390625 c 0
 437.830078125 737.598632812 427.040039062 715.249023438 403.91015625 715.249023438 c 0
 359.959960938 715.249023438 326.040039062 757.649414062 306 795.4296875 c 1
324.12890625 961.599609375 m 0
 338.428710938 939.5 349.8984375 931.578125 363.948242188 931.578125 c 0
 381.948242188 931.578125 392.698242188 945.858398438 392.698242188 964.318359375 c 0
 392.698242188 975.368164062 390.337890625 987.108398438 383.307617188 999.248046875 c 1
 392.047851562 1007.09765625 404.748046875 1015.53808594 415.948242188 1015.53808594 c 0
 429.638671875 1015.53808594 447.188476562 989.868164062 447.188476562 960.297851562 c 0
 447.188476562 910.927734375 411.668945312 881.057617188 373.94921875 881.057617188 c 0
 320.298828125 881.057617188 301.71875 910.177734375 288.048828125 933.607421875 c 0
 275.068359375 956.967773438 263.018554688 965.038085938 248.978515625 965.038085938 c 0
 230.978515625 965.038085938 219.228515625 948.84765625 219.228515625 931.297851562 c 0
 219.228515625 919.927734375 222.358398438 908.217773438 229.518554688 896.297851562 c 1
 220.749023438 888.48828125 207.928710938 880.068359375 195.98828125 880.068359375 c 0
 183.0078125 880.068359375 164.748046875 905.728515625 164.748046875 934.30859375 c 0
 164.748046875 984.588867188 201.16796875 1014.54882812 238.98828125 1014.54882812 c 0x7350
 291.73828125 1014.54882812 311.1484375 983.569335938 324.12890625 961.599609375 c 0
EndSplineSet
Substitution2: "'c2sc' Capitals to Small Capitals in Latin lookup 11 subtable" uni1EC4.sc
AlternateSubs2: "'aalt' Access All Alternates in Latin lookup 0 subtable" uni1EC4.sc
Position2: "'cpsp' Capital Spacing in Latin lookup 0 subtable" dx=5 dy=0 dh=10 dv=0
EndChar

StartChar: uni0204
Encoding: 516 516 60
Width: 634
GlyphClass: 2
Flags: MW
HStem: 0 38<35.5 41 40 41 41 62.5 40 491> 0 47<269.75 340.5 340.5 405> 327.5 48.5<202.25 307 202.25 307> 613 47<202.25 372 202.25 202.25> 621 39<40 62> 651 20G<478.5 482>
VStem: 105 97.25<121 131 131 327.5 376 538 538 565.5> 376 37<263.5 268.5 268.5 288.5 435 441>
AnchorPoint: "Anchor-6" 506 0 basechar 0
AnchorPoint: "Anchor-5" 306 899 basechar 0
AnchorPoint: "Anchor-4" 314 0 basechar 0
LayerCount: 2
Fore
SplineSet
609 188.25 m 2x73
 618 184 618 179 614 170 c 2
 531 -4 l 2
 528.75 -10 525 -12 521 -12 c 0
 518 -12 515.75 -11.25 513 -9 c 2
 509 -4 l 2
 505.25 -0.75 502 0 491 0 c 2
 40 0 l 2
 31 0 26 4 26 13 c 2x73
 26 25 l 2
 26 33 32 38 40 38 c 2
 41 38 l 2
 84 38 105 65 105 121 c 2
 105 538 l 2
 105 593 84 621 40 621 c 0xab
 32 621 26 627 26 635 c 2
 26 646 l 2
 26 655 31 660 40 660 c 2
 450 660 l 2x73
 459 660 463 660.75 467 664 c 2
 472 669 l 2
 474 671 477 671 480 671 c 0
 484 671 488 669 491 664 c 2x67
 560 545 l 2
 562 542 563 539 563 537 c 0
 563 532 560 528.75 556 526 c 2
 536 514.5 l 2
 531 511.5 529 510.5 526 510.5 c 0
 522 510.5 519 513.5 516 518.5 c 2
 513 523.5 l 2
 470.25 594 440 613 372 613 c 2
 202.25 613 l 1
 202.25 376 l 1
 307 376 l 2
 352.5 376 376 396 376 435 c 2
 376 441 l 2
 376 450 380 454 389 454 c 2
 400 454 l 2
 409 454 413 450 413 441 c 2
 413 263.5 l 2
 413 254.5 409 250.5 400 250.5 c 2
 389 250.5 l 2
 380 250.5 376 254.5 376 263.5 c 2
 376 268.5 l 2
 376 308.5 353.5 327.5 307 327.5 c 2
 202.25 327.5 l 1
 202.25 131 l 2
 202.25 77 230.75 47 269.75 47 c 2
 340.5 47 l 2
 469.5 47 514 74.25 569.75 186.5 c 2
 572.75 192.5 l 2
 575.75 199.25 583 202.25 591.5 197.5 c 2
 609 188.25 l 2x73
470.51953125 721.33984375 m 2
 465.049804688 718.629882812 460.53125 716.73828125 457.500976562 716.498046875 c 0
 454.37109375 716.288085938 450.701171875 717.84765625 447.151367188 719.828125 c 0
 398.1015625 748.807617188 330.731445312 785.127929688 330.731445312 838.788085938 c 0
 330.731445312 863.998046875 345.451171875 878.318359375 374.470703125 878.318359375 c 0
 385.530273438 878.318359375 395.799804688 875.838867188 400.349609375 865.829101562 c 0
 422.44921875 815.579101562 434.69921875 793.529296875 486.349609375 729.139648438 c 1
 470.51953125 721.33984375 l 2
297.880859375 721.318359375 m 2
 292.420898438 718.608398438 287.920898438 716.716796875 284.87109375 716.4765625 c 0
 281.750976562 716.266601562 278.081054688 717.826171875 274.53125 719.806640625 c 0
 225.4609375 748.786132812 158.100585938 785.106445312 158.100585938 838.766601562 c 0
 158.100585938 863.9765625 172.810546875 878.296875 201.840820312 878.296875 c 0
 212.900390625 878.296875 223.169921875 875.817382812 227.709960938 865.807617188 c 0
 249.830078125 815.557617188 262.0703125 793.5078125 313.73046875 729.118164062 c 1
 297.880859375 721.318359375 l 2
EndSplineSet
Substitution2: "'c2sc' Capitals to Small Capitals in Latin lookup 11 subtable" uni0204.sc
AlternateSubs2: "'aalt' Access All Alternates in Latin lookup 0 subtable" uni0204.sc
Position2: "'cpsp' Capital Spacing in Latin lookup 0 subtable" dx=5 dy=0 dh=10 dv=0
EndChar

StartChar: Edieresis
Encoding: 203 203 61
Width: 634
GlyphClass: 2
Flags: MW
HStem: 0 38<35.5 41 40 41 41 62.5 40 491> 0 47<269.75 340.5 340.5 405> 327.5 48.5<202.25 307 202.25 307> 613 47<202.25 372 202.25 202.25> 621 39<40 62> 651 20G<478.5 482> 721.71 126.58
VStem: 105 97.25<121 131 131 327.5 376 538 538 565.5> 140.14 127.53 345.14 127.53 376 37<263.5 268.5 268.5 288.5 435 441>
AnchorPoint: "Anchor-6" 506 0 basechar 0
AnchorPoint: "Anchor-5" 306 845 basechar 0
AnchorPoint: "Anchor-4" 314 0 basechar 0
LayerCount: 2
Fore
SplineSet
609 188.25 m 2x7120
 618 184 618 179 614 170 c 2
 531 -4 l 2
 528.75 -10 525 -12 521 -12 c 0
 518 -12 515.75 -11.25 513 -9 c 2
 509 -4 l 2
 505.25 -0.75 502 0 491 0 c 2
 40 0 l 2
 31 0 26 4 26 13 c 2x7120
 26 25 l 2
 26 33 32 38 40 38 c 2
 41 38 l 2
 84 38 105 65 105 121 c 2
 105 538 l 2
 105 593 84 621 40 621 c 0xa920
 32 621 26 627 26 635 c 2
 26 646 l 2
 26 655 31 660 40 660 c 2
 450 660 l 2x7120
 459 660 463 660.75 467 664 c 2
 472 669 l 2
 474 671 477 671 480 671 c 0
 484 671 488 669 491 664 c 2x6520
 560 545 l 2
 562 542 563 539 563 537 c 0
 563 532 560 528.75 556 526 c 2
 536 514.5 l 2
 531 511.5 529 510.5 526 510.5 c 0
 522 510.5 519 513.5 516 518.5 c 2
 513 523.5 l 2
 470.25 594 440 613 372 613 c 2
 202.25 613 l 1
 202.25 376 l 1
 307 376 l 2
 352.5 376 376 396 376 435 c 2
 376 441 l 2
 376 450 380 454 389 454 c 2
 400 454 l 2
 409 454 413 450 413 441 c 2
 413 263.5 l 2
 413 254.5 409 250.5 400 250.5 c 2
 389 250.5 l 2
 380 250.5 376 254.5 376 263.5 c 2
 376 268.5 l 2
 376 308.5 353.5 327.5 307 327.5 c 2
 202.25 327.5 l 1
 202.25 131 l 2
 202.25 77 230.75 47 269.75 47 c 2
 340.5 47 l 2
 469.5 47 514 74.25 569.75 186.5 c 2
 572.75 192.5 l 2
 575.75 199.25 583 202.25 591.5 197.5 c 2
 609 188.25 l 2x7120
203.419921875 848.280273438 m 0x72c0
 218.75 848.280273438 231.219726562 842.520507812 246.549804688 827.190429688 c 0
 261.879882812 811.860351562 267.639648438 800.360351562 267.639648438 785.030273438 c 0
 267.639648438 769.690429688 260.9296875 757.23046875 246.549804688 742.860351562 c 0
 231.219726562 727.530273438 218.759765625 721.770507812 203.4296875 721.770507812 c 0
 189.059570312 721.770507812 177.549804688 727.530273438 161.25 742.860351562 c 0
 145.919921875 757.23046875 140.169921875 769.690429688 140.169921875 785.030273438 c 0
 140.169921875 800.360351562 145.919921875 811.860351562 161.25 827.190429688 c 0
 176.580078125 842.520507812 189.049804688 848.280273438 203.419921875 848.280273438 c 0x72c0
408.4296875 848.280273438 m 0
 423.759765625 848.280273438 436.229492188 842.520507812 451.559570312 827.190429688 c 0
 466.889648438 811.860351562 472.649414062 800.360351562 472.649414062 785.030273438 c 0
 472.649414062 769.690429688 465.939453125 757.23046875 451.559570312 742.860351562 c 0
 436.229492188 727.530273438 423.76953125 721.770507812 408.439453125 721.770507812 c 0
 394.069335938 721.770507812 382.559570312 727.530273438 366.259765625 742.860351562 c 0
 350.9296875 757.23046875 345.1796875 769.690429688 345.1796875 785.030273438 c 0
 345.1796875 800.360351562 350.9296875 811.860351562 366.259765625 827.190429688 c 0
 381.58984375 842.520507812 394.059570312 848.280273438 408.4296875 848.280273438 c 0
EndSplineSet
Substitution2: "'c2sc' Capitals to Small Capitals in Latin lookup 11 subtable" Edieresis.sc
AlternateSubs2: "'aalt' Access All Alternates in Latin lookup 0 subtable" Edieresis.sc
Position2: "'cpsp' Capital Spacing in Latin lookup 0 subtable" dx=5 dy=0 dh=10 dv=0
EndChar

StartChar: Edotaccent
Encoding: 278 278 62
Width: 634
GlyphClass: 2
Flags: MW
HStem: 0 38<35.5 41 40 41 41 62.5 40 491> 0 47<269.75 340.5 340.5 405> 327.5 48.5<202.25 307 202.25 307> 613 47<202.25 372 202.25 202.25> 621 39<40 62> 651 20G<478.5 482> 721.71 126.58
VStem: 105 97.25<121 131 131 327.5 376 538 538 565.5> 242.74 127.53 376 37<263.5 268.5 268.5 288.5 435 441>
AnchorPoint: "Anchor-6" 506 0 basechar 0
AnchorPoint: "Anchor-5" 306 845 basechar 0
AnchorPoint: "Anchor-4" 314 0 basechar 0
LayerCount: 2
Fore
SplineSet
609 188.25 m 2x7140
 618 184 618 179 614 170 c 2
 531 -4 l 2
 528.75 -10 525 -12 521 -12 c 0
 518 -12 515.75 -11.25 513 -9 c 2
 509 -4 l 2
 505.25 -0.75 502 0 491 0 c 2
 40 0 l 2
 31 0 26 4 26 13 c 2x7140
 26 25 l 2
 26 33 32 38 40 38 c 2
 41 38 l 2
 84 38 105 65 105 121 c 2
 105 538 l 2
 105 593 84 621 40 621 c 0xa940
 32 621 26 627 26 635 c 2
 26 646 l 2
 26 655 31 660 40 660 c 2
 450 660 l 2x7140
 459 660 463 660.75 467 664 c 2
 472 669 l 2
 474 671 477 671 480 671 c 0
 484 671 488 669 491 664 c 2x6540
 560 545 l 2
 562 542 563 539 563 537 c 0
 563 532 560 528.75 556 526 c 2
 536 514.5 l 2
 531 511.5 529 510.5 526 510.5 c 0
 522 510.5 519 513.5 516 518.5 c 2
 513 523.5 l 2
 470.25 594 440 613 372 613 c 2
 202.25 613 l 1
 202.25 376 l 1
 307 376 l 2
 352.5 376 376 396 376 435 c 2
 376 441 l 2
 376 450 380 454 389 454 c 2
 400 454 l 2
 409 454 413 450 413 441 c 2
 413 263.5 l 2
 413 254.5 409 250.5 400 250.5 c 2
 389 250.5 l 2
 380 250.5 376 254.5 376 263.5 c 2
 376 268.5 l 2
 376 308.5 353.5 327.5 307 327.5 c 2
 202.25 327.5 l 1
 202.25 131 l 2
 202.25 77 230.75 47 269.75 47 c 2
 340.5 47 l 2
 469.5 47 514 74.25 569.75 186.5 c 2
 572.75 192.5 l 2
 575.75 199.25 583 202.25 591.5 197.5 c 2
 609 188.25 l 2x7140
306.01953125 848.280273438 m 0x7380
 321.349609375 848.280273438 333.819335938 842.520507812 349.149414062 827.190429688 c 0
 364.479492188 811.860351562 370.239257812 800.360351562 370.239257812 785.030273438 c 0
 370.239257812 769.690429688 363.51953125 757.23046875 349.149414062 742.860351562 c 0
 333.819335938 727.530273438 321.359375 721.770507812 306.029296875 721.770507812 c 0
 291.649414062 721.770507812 280.149414062 727.530273438 263.849609375 742.860351562 c 0
 248.51953125 757.23046875 242.76953125 769.690429688 242.76953125 785.030273438 c 0
 242.76953125 800.360351562 248.51953125 811.860351562 263.849609375 827.190429688 c 0
 279.1796875 842.520507812 291.639648438 848.280273438 306.01953125 848.280273438 c 0x7380
EndSplineSet
Substitution2: "'c2sc' Capitals to Small Capitals in Latin lookup 11 subtable" Edotaccent.sc
AlternateSubs2: "'aalt' Access All Alternates in Latin lookup 0 subtable" Edotaccent.sc
Position2: "'cpsp' Capital Spacing in Latin lookup 0 subtable" dx=5 dy=0 dh=10 dv=0
EndChar

StartChar: uni1EB8
Encoding: 7864 7864 63
Width: 634
GlyphClass: 2
Flags: MW
HStem: -181.21 126.57 0 38<35.5 41 40 41 41 62.5 40 491> 0 47<269.75 340.5 340.5 405> 327.5 48.5<202.25 307 202.25 307> 613 47<202.25 372 202.25 202.25> 621 39<40 62> 651 20G<478.5 482>
VStem: 105 97.25<121 131 131 327.5 376 538 538 565.5> 250.74 127.53 376 37<263.5 268.5 268.5 288.5 435 441>
AnchorPoint: "Anchor-6" 506 0 basechar 0
AnchorPoint: "Anchor-5" 306 660 basechar 0
AnchorPoint: "Anchor-4" 314 0 basechar 0
LayerCount: 2
Fore
SplineSet
609 188.25 m 2x3940
 618 184 618 179 614 170 c 2
 531 -4 l 2
 528.75 -10 525 -12 521 -12 c 0
 518 -12 515.75 -11.25 513 -9 c 2
 509 -4 l 2
 505.25 -0.75 502 0 491 0 c 2
 40 0 l 2
 31 0 26 4 26 13 c 2x3940
 26 25 l 2
 26 33 32 38 40 38 c 2
 41 38 l 2
 84 38 105 65 105 121 c 2
 105 538 l 2
 105 593 84 621 40 621 c 0x5540
 32 621 26 627 26 635 c 2
 26 646 l 2
 26 655 31 660 40 660 c 2
 450 660 l 2x3940
 459 660 463 660.75 467 664 c 2
 472 669 l 2
 474 671 477 671 480 671 c 0
 484 671 488 669 491 664 c 2x3340
 560 545 l 2
 562 542 563 539 563 537 c 0
 563 532 560 528.75 556 526 c 2
 536 514.5 l 2
 531 511.5 529 510.5 526 510.5 c 0
 522 510.5 519 513.5 516 518.5 c 2
 513 523.5 l 2
 470.25 594 440 613 372 613 c 2
 202.25 613 l 1
 202.25 376 l 1
 307 376 l 2
 352.5 376 376 396 376 435 c 2
 376 441 l 2
 376 450 380 454 389 454 c 2
 400 454 l 2
 409 454 413 450 413 441 c 2
 413 263.5 l 2
 413 254.5 409 250.5 400 250.5 c 2
 389 250.5 l 2
 380 250.5 376 254.5 376 263.5 c 2
 376 268.5 l 2
 376 308.5 353.5 327.5 307 327.5 c 2
 202.25 327.5 l 1
 202.25 131 l 2
 202.25 77 230.75 47 269.75 47 c 2
 340.5 47 l 2
 469.5 47 514 74.25 569.75 186.5 c 2
 572.75 192.5 l 2
 575.75 199.25 583 202.25 591.5 197.5 c 2
 609 188.25 l 2x3940
314.01953125 -54.6396484375 m 0xb980
 329.349609375 -54.6396484375 341.819335938 -60.3896484375 357.149414062 -75.7197265625 c 0
 372.479492188 -91.0498046875 378.239257812 -102.559570312 378.239257812 -117.889648438 c 0
 378.239257812 -133.219726562 371.51953125 -145.6796875 357.149414062 -160.049804688 c 0
 341.819335938 -175.399414062 329.359375 -181.149414062 314.029296875 -181.149414062 c 0
 299.649414062 -181.149414062 288.149414062 -175.399414062 271.849609375 -160.049804688 c 0
 256.51953125 -145.6796875 250.76953125 -133.219726562 250.76953125 -117.889648438 c 0
 250.76953125 -102.559570312 256.51953125 -91.0498046875 271.849609375 -75.7197265625 c 0
 287.1796875 -60.3896484375 299.639648438 -54.6396484375 314.01953125 -54.6396484375 c 0xb980
EndSplineSet
Substitution2: "'c2sc' Capitals to Small Capitals in Latin lookup 11 subtable" uni1EB8.sc
AlternateSubs2: "'aalt' Access All Alternates in Latin lookup 0 subtable" uni1EB8.sc
Position2: "'cpsp' Capital Spacing in Latin lookup 0 subtable" dx=5 dy=0 dh=10 dv=0
EndChar

StartChar: Egrave
Encoding: 200 200 64
Width: 634
GlyphClass: 2
Flags: MW
HStem: 0 38<35.5 41 40 41 41 62.5 40 491> 0 47<269.75 340.5 340.5 405> 327.5 48.5<202.25 307 202.25 307> 613 47<202.25 372 202.25 202.25> 621 39<40 62> 651 20G<478.5 482>
VStem: 105 97.25<121 131 131 327.5 376 538 538 565.5> 376 37<263.5 268.5 268.5 288.5 435 441>
AnchorPoint: "Anchor-6" 506 0 basechar 0
AnchorPoint: "Anchor-5" 281 899 basechar 0
AnchorPoint: "Anchor-4" 314 0 basechar 0
LayerCount: 2
Fore
SplineSet
609 188.25 m 2x73
 618 184 618 179 614 170 c 2
 531 -4 l 2
 528.75 -10 525 -12 521 -12 c 0
 518 -12 515.75 -11.25 513 -9 c 2
 509 -4 l 2
 505.25 -0.75 502 0 491 0 c 2
 40 0 l 2
 31 0 26 4 26 13 c 2x73
 26 25 l 2
 26 33 32 38 40 38 c 2
 41 38 l 2
 84 38 105 65 105 121 c 2
 105 538 l 2
 105 593 84 621 40 621 c 0xab
 32 621 26 627 26 635 c 2
 26 646 l 2
 26 655 31 660 40 660 c 2
 450 660 l 2x73
 459 660 463 660.75 467 664 c 2
 472 669 l 2
 474 671 477 671 480 671 c 0
 484 671 488 669 491 664 c 2x67
 560 545 l 2
 562 542 563 539 563 537 c 0
 563 532 560 528.75 556 526 c 2
 536 514.5 l 2
 531 511.5 529 510.5 526 510.5 c 0
 522 510.5 519 513.5 516 518.5 c 2
 513 523.5 l 2
 470.25 594 440 613 372 613 c 2
 202.25 613 l 1
 202.25 376 l 1
 307 376 l 2
 352.5 376 376 396 376 435 c 2
 376 441 l 2
 376 450 380 454 389 454 c 2
 400 454 l 2
 409 454 413 450 413 441 c 2
 413 263.5 l 2
 413 254.5 409 250.5 400 250.5 c 2
 389 250.5 l 2
 380 250.5 376 254.5 376 263.5 c 2
 376 268.5 l 2
 376 308.5 353.5 327.5 307 327.5 c 2
 202.25 327.5 l 1
 202.25 131 l 2
 202.25 77 230.75 47 269.75 47 c 2
 340.5 47 l 2
 469.5 47 514 74.25 569.75 186.5 c 2
 572.75 192.5 l 2
 575.75 199.25 583 202.25 591.5 197.5 c 2
 609 188.25 l 2x73
359.169921875 721.33984375 m 2
 353.709960938 718.629882812 349.1796875 716.73828125 346.149414062 716.498046875 c 0
 343.029296875 716.288085938 339.359375 717.84765625 335.809570312 719.828125 c 0
 286.75 748.807617188 219.389648438 785.127929688 219.389648438 838.788085938 c 0
 219.389648438 863.998046875 234.099609375 878.318359375 263.129882812 878.318359375 c 0
 274.1796875 878.318359375 284.459960938 875.838867188 289.009765625 865.829101562 c 0
 311.109375 815.579101562 323.359375 793.529296875 375.01953125 729.139648438 c 1
 359.169921875 721.33984375 l 2
EndSplineSet
Substitution2: "'c2sc' Capitals to Small Capitals in Latin lookup 11 subtable" Egrave.sc
AlternateSubs2: "'aalt' Access All Alternates in Latin lookup 0 subtable" Egrave.sc
Position2: "'cpsp' Capital Spacing in Latin lookup 0 subtable" dx=5 dy=0 dh=10 dv=0
EndChar

StartChar: uni1EBA
Encoding: 7866 7866 65
Width: 634
GlyphClass: 2
Flags: MW
HStem: 0 38<35.5 41 40 41 41 62.5 40 491> 0 47<269.75 340.5 340.5 405> 327.5 48.5<202.25 307 202.25 307> 613 47<202.25 372 202.25 202.25> 621 39<40 62> 651 20G<478.5 482> 717 163.75 818.32 62.43
VStem: 105 97.25<121 131 131 327.5 376 538 538 565.5> 318.28 52.97 376 37<263.5 268.5 268.5 288.5 435 441>
AnchorPoint: "Anchor-6" 506 0 basechar 0
AnchorPoint: "Anchor-5" 306 946 basechar 0
AnchorPoint: "Anchor-4" 314 0 basechar 0
LayerCount: 2
Fore
SplineSet
609 188.25 m 2x70a0
 618 184 618 179 614 170 c 2
 531 -4 l 2
 528.75 -10 525 -12 521 -12 c 0
 518 -12 515.75 -11.25 513 -9 c 2
 509 -4 l 2
 505.25 -0.75 502 0 491 0 c 2
 40 0 l 2
 31 0 26 4 26 13 c 2x70a0
 26 25 l 2
 26 33 32 38 40 38 c 2
 41 38 l 2
 84 38 105 65 105 121 c 2
 105 538 l 2
 105 593 84 621 40 621 c 0xa8a0
 32 621 26 627 26 635 c 2
 26 646 l 2
 26 655 31 660 40 660 c 2
 450 660 l 2x70a0
 459 660 463 660.75 467 664 c 2
 472 669 l 2
 474 671 477 671 480 671 c 0
 484 671 488 669 491 664 c 2x64a0
 560 545 l 2
 562 542 563 539 563 537 c 0
 563 532 560 528.75 556 526 c 2
 536 514.5 l 2
 531 511.5 529 510.5 526 510.5 c 0
 522 510.5 519 513.5 516 518.5 c 2
 513 523.5 l 2
 470.25 594 440 613 372 613 c 2
 202.25 613 l 1
 202.25 376 l 1
 307 376 l 2
 352.5 376 376 396 376 435 c 2
 376 441 l 2
 376 450 380 454 389 454 c 2
 400 454 l 2
 409 454 413 450 413 441 c 2
 413 263.5 l 2
 413 254.5 409 250.5 400 250.5 c 2
 389 250.5 l 2
 380 250.5 376 254.5 376 263.5 c 2
 376 268.5 l 2
 376 308.5 353.5 327.5 307 327.5 c 2
 202.25 327.5 l 1
 202.25 131 l 2
 202.25 77 230.75 47 269.75 47 c 2
 340.5 47 l 2
 469.5 47 514 74.25 569.75 186.5 c 2
 572.75 192.5 l 2
 575.75 199.25 583 202.25 591.5 197.5 c 2
 609 188.25 l 2x70a0
333.879882812 719.889648438 m 0x72c0
 325.689453125 709.1796875 290.541015625 731.1796875 296.05078125 739.66015625 c 0x72c0
 305.500976562 754.91015625 318.270507812 769.3203125 318.270507812 790.049804688 c 0
 318.270507812 811.209960938 305.420898438 818.3203125 291.390625 818.3203125 c 0
 272.291015625 818.3203125 259.041015625 801.440429688 254.170898438 809.650390625 c 0
 246.4609375 822.75 236.140625 837.190429688 238.170898438 853.080078125 c 0
 239.270507812 863.129882812 269.270507812 880.719726562 300.010742188 880.719726562 c 0
 353.780273438 880.719726562 371.25 838.950195312 371.25 806.98046875 c 0x71c0
 371.25 780.150390625 357.379882812 749.959960938 333.879882812 719.889648438 c 0x72c0
EndSplineSet
Substitution2: "'c2sc' Capitals to Small Capitals in Latin lookup 11 subtable" uni1EBA.sc
AlternateSubs2: "'aalt' Access All Alternates in Latin lookup 0 subtable" uni1EBA.sc
Position2: "'cpsp' Capital Spacing in Latin lookup 0 subtable" dx=5 dy=0 dh=10 dv=0
EndChar

StartChar: uni0206
Encoding: 518 518 66
Width: 634
GlyphClass: 2
Flags: MW
HStem: 0 38<35.5 41 40 41 41 62.5 40 491> 0 47<269.75 340.5 340.5 405> 327.5 48.5<202.25 307 202.25 307> 613 47<202.25 372 202.25 202.25> 621 39<40 62> 651 20G<478.5 482> 824.64 48.36
VStem: 105 97.25<121 131 131 327.5 376 538 538 565.5> 376 37<263.5 268.5 268.5 288.5 435 441>
AnchorPoint: "Anchor-6" 506 0 basechar 0
AnchorPoint: "Anchor-5" 306 899 basechar 0
AnchorPoint: "Anchor-4" 314 0 basechar 0
LayerCount: 2
Fore
SplineSet
609 188.25 m 2x7380
 618 184 618 179 614 170 c 2
 531 -4 l 2
 528.75 -10 525 -12 521 -12 c 0
 518 -12 515.75 -11.25 513 -9 c 2
 509 -4 l 2
 505.25 -0.75 502 0 491 0 c 2
 40 0 l 2
 31 0 26 4 26 13 c 2x7380
 26 25 l 2
 26 33 32 38 40 38 c 2
 41 38 l 2
 84 38 105 65 105 121 c 2
 105 538 l 2
 105 593 84 621 40 621 c 0xab80
 32 621 26 627 26 635 c 2
 26 646 l 2
 26 655 31 660 40 660 c 2
 450 660 l 2x7380
 459 660 463 660.75 467 664 c 2
 472 669 l 2
 474 671 477 671 480 671 c 0
 484 671 488 669 491 664 c 2x6780
 560 545 l 2
 562 542 563 539 563 537 c 0
 563 532 560 528.75 556 526 c 2
 536 514.5 l 2
 531 511.5 529 510.5 526 510.5 c 0
 522 510.5 519 513.5 516 518.5 c 2
 513 523.5 l 2
 470.25 594 440 613 372 613 c 2
 202.25 613 l 1
 202.25 376 l 1
 307 376 l 2
 352.5 376 376 396 376 435 c 2
 376 441 l 2
 376 450 380 454 389 454 c 2
 400 454 l 2
 409 454 413 450 413 441 c 2
 413 263.5 l 2
 413 254.5 409 250.5 400 250.5 c 2
 389 250.5 l 2
 380 250.5 376 254.5 376 263.5 c 2
 376 268.5 l 2
 376 308.5 353.5 327.5 307 327.5 c 2
 202.25 327.5 l 1
 202.25 131 l 2
 202.25 77 230.75 47 269.75 47 c 2
 340.5 47 l 2
 469.5 47 514 74.25 569.75 186.5 c 2
 572.75 192.5 l 2
 575.75 199.25 583 202.25 591.5 197.5 c 2
 609 188.25 l 2x7380
308 873 m 1
 307.897460938 873 l 1
 398.897460938 873 436.02734375 803.23046875 436.02734375 767.380859375 c 0
 436.02734375 757.380859375 430.817382812 753.55078125 421.037109375 752.390625 c 0
 413.767578125 751.55078125 398.287109375 750.23046875 390.876953125 749.720703125 c 0
 379.067382812 748.73046875 375.0078125 752.100585938 374.328125 765.060546875 c 0
 371.228515625 801.66015625 347.548828125 824.66015625 307.94921875 824.66015625 c 0
 268.588867188 824.66015625 244.909179688 801.66015625 241.809570312 765.060546875 c 0
 240.879882812 752.100585938 237.0703125 748.73046875 225.260742188 749.720703125 c 0
 217.600585938 750.23046875 202.370117188 751.55078125 194.850585938 752.390625 c 0
 185.0703125 753.55078125 179.860351562 757.380859375 179.860351562 767.380859375 c 0
 179.860351562 803.23046875 217.25 873 308 873 c 1
EndSplineSet
Substitution2: "'c2sc' Capitals to Small Capitals in Latin lookup 11 subtable" uni0206.sc
AlternateSubs2: "'aalt' Access All Alternates in Latin lookup 0 subtable" uni0206.sc
Position2: "'cpsp' Capital Spacing in Latin lookup 0 subtable" dx=5 dy=0 dh=10 dv=0
EndChar

StartChar: Emacron
Encoding: 274 274 67
Width: 634
GlyphClass: 2
Flags: MW
HStem: 0 38<35.5 41 40 41 41 62.5 40 491> 0 47<269.75 340.5 340.5 405> 327.5 48.5<202.25 307 202.25 307> 613 47<202.25 372 202.25 202.25> 621 39<40 62> 651 20G<478.5 482> 721 56.5<191 416.5 195.5 416.5>
VStem: 105 97.25<121 131 131 327.5 376 538 538 565.5> 376 37<263.5 268.5 268.5 288.5 435 441>
AnchorPoint: "Anchor-6" 506 0 basechar 0
AnchorPoint: "Anchor-5" 306 752 basechar 0
AnchorPoint: "Anchor-4" 314 0 basechar 0
LayerCount: 2
Fore
SplineSet
609 188.25 m 2x7380
 618 184 618 179 614 170 c 2
 531 -4 l 2
 528.75 -10 525 -12 521 -12 c 0
 518 -12 515.75 -11.25 513 -9 c 2
 509 -4 l 2
 505.25 -0.75 502 0 491 0 c 2
 40 0 l 2
 31 0 26 4 26 13 c 2x7380
 26 25 l 2
 26 33 32 38 40 38 c 2
 41 38 l 2
 84 38 105 65 105 121 c 2
 105 538 l 2
 105 593 84 621 40 621 c 0xab80
 32 621 26 627 26 635 c 2
 26 646 l 2
 26 655 31 660 40 660 c 2
 450 660 l 2x7380
 459 660 463 660.75 467 664 c 2
 472 669 l 2
 474 671 477 671 480 671 c 0
 484 671 488 669 491 664 c 2x6780
 560 545 l 2
 562 542 563 539 563 537 c 0
 563 532 560 528.75 556 526 c 2
 536 514.5 l 2
 531 511.5 529 510.5 526 510.5 c 0
 522 510.5 519 513.5 516 518.5 c 2
 513 523.5 l 2
 470.25 594 440 613 372 613 c 2
 202.25 613 l 1
 202.25 376 l 1
 307 376 l 2
 352.5 376 376 396 376 435 c 2
 376 441 l 2
 376 450 380 454 389 454 c 2
 400 454 l 2
 409 454 413 450 413 441 c 2
 413 263.5 l 2
 413 254.5 409 250.5 400 250.5 c 2
 389 250.5 l 2
 380 250.5 376 254.5 376 263.5 c 2
 376 268.5 l 2
 376 308.5 353.5 327.5 307 327.5 c 2
 202.25 327.5 l 1
 202.25 131 l 2
 202.25 77 230.75 47 269.75 47 c 2
 340.5 47 l 2
 469.5 47 514 74.25 569.75 186.5 c 2
 572.75 192.5 l 2
 575.75 199.25 583 202.25 591.5 197.5 c 2
 609 188.25 l 2x7380
429.5 734 m 2
 429.5 726 425.5 721 416.5 721 c 2
 195.5 721 l 2
 186.5 721 182.5 726 182.5 734 c 2
 182.5 764.5 l 2
 182.5 773.5 186.5 777.5 195.5 777.5 c 2
 416.5 777.5 l 2
 425.5 777.5 429.5 773.5 429.5 764.5 c 2
 429.5 734 l 2
EndSplineSet
Substitution2: "'c2sc' Capitals to Small Capitals in Latin lookup 11 subtable" Emacron.sc
AlternateSubs2: "'aalt' Access All Alternates in Latin lookup 0 subtable" Emacron.sc
Position2: "'cpsp' Capital Spacing in Latin lookup 0 subtable" dx=5 dy=0 dh=10 dv=0
EndChar

StartChar: uni1E16
Encoding: 7702 7702 68
Width: 634
GlyphClass: 2
Flags: MW
HStem: 0 38<35.5 41 40 41 41 62.5 40 491> 0 47<269.75 340.5 340.5 405> 327.5 48.5<202.25 307 202.25 307> 613 47<202.25 372 202.25 202.25> 621 39<40 62> 651 20G<478.5 482> 721 56.5<191 416.5 195.5 416.5>
VStem: 105 97.25<121 131 131 327.5 376 538 538 565.5> 376 37<263.5 268.5 268.5 288.5 435 441>
AnchorPoint: "Anchor-6" 506 0 basechar 0
AnchorPoint: "Anchor-5" 338 991 basechar 0
AnchorPoint: "Anchor-4" 314 0 basechar 0
LayerCount: 2
Fore
SplineSet
609 188.25 m 2x7380
 618 184 618 179 614 170 c 2
 531 -4 l 2
 528.75 -10 525 -12 521 -12 c 0
 518 -12 515.75 -11.25 513 -9 c 2
 509 -4 l 2
 505.25 -0.75 502 0 491 0 c 2
 40 0 l 2
 31 0 26 4 26 13 c 2x7380
 26 25 l 2
 26 33 32 38 40 38 c 2
 41 38 l 2
 84 38 105 65 105 121 c 2
 105 538 l 2
 105 593 84 621 40 621 c 0xab80
 32 621 26 627 26 635 c 2
 26 646 l 2
 26 655 31 660 40 660 c 2
 450 660 l 2x7380
 459 660 463 660.75 467 664 c 2
 472 669 l 2
 474 671 477 671 480 671 c 0
 484 671 488 669 491 664 c 2x6780
 560 545 l 2
 562 542 563 539 563 537 c 0
 563 532 560 528.75 556 526 c 2
 536 514.5 l 2
 531 511.5 529 510.5 526 510.5 c 0
 522 510.5 519 513.5 516 518.5 c 2
 513 523.5 l 2
 470.25 594 440 613 372 613 c 2
 202.25 613 l 1
 202.25 376 l 1
 307 376 l 2
 352.5 376 376 396 376 435 c 2
 376 441 l 2
 376 450 380 454 389 454 c 2
 400 454 l 2
 409 454 413 450 413 441 c 2
 413 263.5 l 2
 413 254.5 409 250.5 400 250.5 c 2
 389 250.5 l 2
 380 250.5 376 254.5 376 263.5 c 2
 376 268.5 l 2
 376 308.5 353.5 327.5 307 327.5 c 2
 202.25 327.5 l 1
 202.25 131 l 2
 202.25 77 230.75 47 269.75 47 c 2
 340.5 47 l 2
 469.5 47 514 74.25 569.75 186.5 c 2
 572.75 192.5 l 2
 575.75 199.25 583 202.25 591.5 197.5 c 2
 609 188.25 l 2x7380
429.5 734 m 2
 429.5 726 425.5 721 416.5 721 c 2
 195.5 721 l 2
 186.5 721 182.5 726 182.5 734 c 2
 182.5 764.5 l 2
 182.5 773.5 186.5 777.5 195.5 777.5 c 2
 416.5 777.5 l 2
 425.5 777.5 429.5 773.5 429.5 764.5 c 2
 429.5 734 l 2
243.990234375 821.209960938 m 1
 295.629882812 885.599609375 307.859375 907.671875 329.969726562 957.921875 c 0
 334.509765625 967.931640625 344.790039062 970.411132812 355.83984375 970.411132812 c 0
 384.870117188 970.411132812 399.580078125 956.090820312 399.580078125 930.880859375 c 0
 399.580078125 877.220703125 332.219726562 840.900390625 283.16015625 811.919921875 c 0
 279.610351562 809.939453125 275.940429688 808.379882812 272.8203125 808.5703125 c 0
 269.790039062 808.8203125 265.280273438 810.700195312 259.8203125 813.41015625 c 2
 243.990234375 821.209960938 l 1
EndSplineSet
Substitution2: "'c2sc' Capitals to Small Capitals in Latin lookup 11 subtable" uni1E16.sc
AlternateSubs2: "'aalt' Access All Alternates in Latin lookup 0 subtable" uni1E16.sc
Position2: "'cpsp' Capital Spacing in Latin lookup 0 subtable" dx=5 dy=0 dh=10 dv=0
EndChar

StartChar: uni1E14
Encoding: 7700 7700 69
Width: 634
GlyphClass: 2
Flags: MW
HStem: 0 38<35.5 41 40 41 41 62.5 40 491> 0 47<269.75 340.5 340.5 405> 327.5 48.5<202.25 307 202.25 307> 613 47<202.25 372 202.25 202.25> 621 39<40 62> 651 20G<478.5 482> 721 56.5<191 416.5 195.5 416.5>
VStem: 105 97.25<121 131 131 327.5 376 538 538 565.5> 376 37<263.5 268.5 268.5 288.5 435 441>
AnchorPoint: "Anchor-6" 506 0 basechar 0
AnchorPoint: "Anchor-5" 281 991 basechar 0
AnchorPoint: "Anchor-4" 314 0 basechar 0
LayerCount: 2
Fore
SplineSet
609 188.25 m 2x7380
 618 184 618 179 614 170 c 2
 531 -4 l 2
 528.75 -10 525 -12 521 -12 c 0
 518 -12 515.75 -11.25 513 -9 c 2
 509 -4 l 2
 505.25 -0.75 502 0 491 0 c 2
 40 0 l 2
 31 0 26 4 26 13 c 2x7380
 26 25 l 2
 26 33 32 38 40 38 c 2
 41 38 l 2
 84 38 105 65 105 121 c 2
 105 538 l 2
 105 593 84 621 40 621 c 0xab80
 32 621 26 627 26 635 c 2
 26 646 l 2
 26 655 31 660 40 660 c 2
 450 660 l 2x7380
 459 660 463 660.75 467 664 c 2
 472 669 l 2
 474 671 477 671 480 671 c 0
 484 671 488 669 491 664 c 2x6780
 560 545 l 2
 562 542 563 539 563 537 c 0
 563 532 560 528.75 556 526 c 2
 536 514.5 l 2
 531 511.5 529 510.5 526 510.5 c 0
 522 510.5 519 513.5 516 518.5 c 2
 513 523.5 l 2
 470.25 594 440 613 372 613 c 2
 202.25 613 l 1
 202.25 376 l 1
 307 376 l 2
 352.5 376 376 396 376 435 c 2
 376 441 l 2
 376 450 380 454 389 454 c 2
 400 454 l 2
 409 454 413 450 413 441 c 2
 413 263.5 l 2
 413 254.5 409 250.5 400 250.5 c 2
 389 250.5 l 2
 380 250.5 376 254.5 376 263.5 c 2
 376 268.5 l 2
 376 308.5 353.5 327.5 307 327.5 c 2
 202.25 327.5 l 1
 202.25 131 l 2
 202.25 77 230.75 47 269.75 47 c 2
 340.5 47 l 2
 469.5 47 514 74.25 569.75 186.5 c 2
 572.75 192.5 l 2
 575.75 199.25 583 202.25 591.5 197.5 c 2
 609 188.25 l 2x7380
429.5 734 m 2
 429.5 726 425.5 721 416.5 721 c 2
 195.5 721 l 2
 186.5 721 182.5 726 182.5 734 c 2
 182.5 764.5 l 2
 182.5 773.5 186.5 777.5 195.5 777.5 c 2
 416.5 777.5 l 2
 425.5 777.5 429.5 773.5 429.5 764.5 c 2
 429.5 734 l 2
359.169921875 813.41015625 m 2
 353.709960938 810.700195312 349.1796875 808.798828125 346.149414062 808.548828125 c 0
 343.029296875 808.358398438 339.359375 809.91796875 335.809570312 811.8984375 c 0
 286.75 840.87890625 219.389648438 877.19921875 219.389648438 930.859375 c 0
 219.389648438 956.069335938 234.099609375 970.389648438 263.129882812 970.389648438 c 0
 274.1796875 970.389648438 284.459960938 967.909179688 289.009765625 957.899414062 c 0
 311.109375 907.649414062 323.359375 885.599609375 375.01953125 821.209960938 c 1
 359.169921875 813.41015625 l 2
EndSplineSet
Substitution2: "'c2sc' Capitals to Small Capitals in Latin lookup 11 subtable" uni1E14.sc
AlternateSubs2: "'aalt' Access All Alternates in Latin lookup 0 subtable" uni1E14.sc
Position2: "'cpsp' Capital Spacing in Latin lookup 0 subtable" dx=5 dy=0 dh=10 dv=0
EndChar

StartChar: Eogonek
Encoding: 280 280 70
Width: 634
GlyphClass: 2
Flags: MW
HStem: -12 21G
AnchorPoint: "Anchor-6" 506 0 basechar 0
AnchorPoint: "Anchor-5" 306 660 basechar 0
AnchorPoint: "Anchor-4" 314 0 basechar 0
LayerCount: 2
Fore
SplineSet
609 188.25 m 2
 618 184 618 179.000976562 614 170.000976562 c 2
 531 -3.9990234375 l 2
 528.75 -9.9990234375 525 -11.9990234375 521 -11.9990234375 c 0
 518 -11.9990234375 515.75 -11.2490234375 513 -8.9990234375 c 2
 509 -3.9990234375 l 2
 506.669921875 -1.9794921875 504.530273438 -0.9296875 500.610351562 -0.419921875 c 0
 476.590820312 -3.240234375 392.560546875 -21.740234375 392.560546875 -97.0205078125 c 0
 392.560546875 -149.4609375 424.530273438 -174.100585938 482.080078125 -174.100585938 c 0
 523 -174.100585938 559 -147.000976562 568 -147.000976562 c 0
 572 -147.000976562 576 -151.000976562 576 -158.000976562 c 2
 576 -178.000976562 l 2
 576 -184.000976562 574 -189.000976562 569 -192.000976562 c 0
 536 -212.000976562 503 -223.000976562 473 -223.000976562 c 0
 377 -223.000976562 334 -161.000976562 334 -107.000976562 c 0
 334 -55.060546875 365.450195312 -21.150390625 400.799804688 0 c 1
 40 0 l 2
 31 0 26 4 26 13 c 2
 26 25 l 2
 26 33 32 38 40 38 c 2
 41 38 l 2
 84 38 105 65 105 121 c 2
 105 538 l 2
 105 593 84 621 40 621 c 0
 32 621 26 627 26 635 c 2
 26 646 l 2
 26 655 31 660 40 660 c 2
 450 660 l 2
 459 660 463 660.75 467 664 c 2
 472 669 l 2
 474 671 477 671 480 671 c 0
 484 671 488 669 491 664 c 2
 560 545 l 2
 562 542 563 539 563 537 c 0
 563 532 560 528.75 556 526 c 2
 536 514.5 l 2
 531 511.5 529 510.5 526 510.5 c 0
 522 510.5 519 513.5 516 518.5 c 2
 513 523.5 l 2
 470.25 594 440 613 372 613 c 2
 202.25 613 l 1
 202.25 376 l 1
 307 376 l 2
 352.5 376 376 396 376 435 c 2
 376 441 l 2
 376 450 380 454 389 454 c 2
 400 454 l 2
 409 454 413 450 413 441 c 2
 413 263.5 l 2
 413 254.5 409 250.5 400 250.5 c 2
 389 250.5 l 2
 380 250.5 376 254.5 376 263.5 c 2
 376 268.5 l 2
 376 308.5 353.5 327.5 307 327.5 c 2
 202.25 327.5 l 1
 202.25 131 l 2
 202.25 77 230.75 47 269.75 47 c 2
 340.5 47 l 2
 469.5 47 514 74.25 569.75 186.5 c 2
 572.75 192.5 l 2
 575.75 199.25 583 202.25 591.5 197.5 c 2
 609 188.25 l 2
EndSplineSet
Substitution2: "'c2sc' Capitals to Small Capitals in Latin lookup 11 subtable" Eogonek.sc
AlternateSubs2: "'aalt' Access All Alternates in Latin lookup 0 subtable" Eogonek.sc
Position2: "'cpsp' Capital Spacing in Latin lookup 0 subtable" dx=5 dy=0 dh=10 dv=0
EndChar

StartChar: uni1EBC
Encoding: 7868 7868 71
Width: 634
GlyphClass: 2
Flags: MW
HStem: 0 38<35.5 41 40 41 41 62.5 40 491> 0 47<269.75 340.5 340.5 405> 327.5 48.5<202.25 307 202.25 307> 613 47<202.25 372 202.25 202.25> 621 39<40 62> 651 20G<478.5 482> 724.75 50.5 808.75 49.5
VStem: 105 97.25<121 131 131 327.5 376 538 538 565.5> 164.75 54.5 376 37<263.5 268.5 268.5 288.5 435 441> 392.75 54.5
AnchorPoint: "Anchor-6" 506 0 basechar 0
AnchorPoint: "Anchor-5" 306 845 basechar 0
AnchorPoint: "Anchor-4" 314 0 basechar 0
LayerCount: 2
Fore
SplineSet
609 188.25 m 2x70a0
 618 184 618 179 614 170 c 2
 531 -4 l 2
 528.75 -10 525 -12 521 -12 c 0
 518 -12 515.75 -11.25 513 -9 c 2
 509 -4 l 2
 505.25 -0.75 502 0 491 0 c 2
 40 0 l 2
 31 0 26 4 26 13 c 2x70a0
 26 25 l 2
 26 33 32 38 40 38 c 2
 41 38 l 2
 84 38 105 65 105 121 c 2
 105 538 l 2
 105 593 84 621 40 621 c 0xa8a0
 32 621 26 627 26 635 c 2
 26 646 l 2
 26 655 31 660 40 660 c 2
 450 660 l 2x70a0
 459 660 463 660.75 467 664 c 2
 472 669 l 2
 474 671 477 671 480 671 c 0
 484 671 488 669 491 664 c 2x64a0
 560 545 l 2
 562 542 563 539 563 537 c 0
 563 532 560 528.75 556 526 c 2
 536 514.5 l 2
 531 511.5 529 510.5 526 510.5 c 0
 522 510.5 519 513.5 516 518.5 c 2
 513 523.5 l 2
 470.25 594 440 613 372 613 c 2
 202.25 613 l 1
 202.25 376 l 1
 307 376 l 2
 352.5 376 376 396 376 435 c 2
 376 441 l 2
 376 450 380 454 389 454 c 2
 400 454 l 2
 409 454 413 450 413 441 c 2
 413 263.5 l 2
 413 254.5 409 250.5 400 250.5 c 2
 389 250.5 l 2
 380 250.5 376 254.5 376 263.5 c 2
 376 268.5 l 2
 376 308.5 353.5 327.5 307 327.5 c 2
 202.25 327.5 l 1
 202.25 131 l 2
 202.25 77 230.75 47 269.75 47 c 2
 340.5 47 l 2
 469.5 47 514 74.25 569.75 186.5 c 2
 572.75 192.5 l 2
 575.75 199.25 583 202.25 591.5 197.5 c 2
 609 188.25 l 2x70a0
324.16015625 805.280273438 m 0x7350
 338.459960938 783.180664062 349.9296875 775.259765625 363.979492188 775.259765625 c 0
 381.979492188 775.259765625 392.729492188 789.540039062 392.729492188 808 c 0
 392.729492188 819.049804688 390.369140625 830.780273438 383.338867188 842.930664062 c 1
 392.079101562 850.770507812 404.779296875 859.220703125 415.979492188 859.220703125 c 0
 429.669921875 859.220703125 447.219726562 833.55078125 447.219726562 803.98046875 c 0
 447.219726562 754.600585938 411.700195312 724.740234375 373.98046875 724.740234375 c 0
 320.330078125 724.740234375 301.75 753.850585938 288.080078125 777.291015625 c 0
 275.099609375 800.640625 263.049804688 808.720703125 249.009765625 808.720703125 c 0
 231.009765625 808.720703125 219.259765625 792.520507812 219.259765625 774.98046875 c 0
 219.259765625 763.610351562 222.389648438 751.890625 229.549804688 739.98046875 c 1
 220.780273438 732.16015625 207.959960938 723.75 196.01953125 723.75 c 0
 183.0390625 723.75 164.779296875 749.400390625 164.779296875 777.990234375 c 0
 164.779296875 828.270507812 201.19921875 858.23046875 239.01953125 858.23046875 c 0
 291.76953125 858.23046875 311.1796875 827.240234375 324.16015625 805.280273438 c 0x7350
EndSplineSet
Substitution2: "'c2sc' Capitals to Small Capitals in Latin lookup 11 subtable" uni1EBC.sc
AlternateSubs2: "'aalt' Access All Alternates in Latin lookup 0 subtable" uni1EBC.sc
Position2: "'cpsp' Capital Spacing in Latin lookup 0 subtable" dx=5 dy=0 dh=10 dv=0
EndChar

StartChar: uni018F
Encoding: 399 399 72
Width: 686
GlyphClass: 1
Flags: MW
HStem: -11 40.5 425.7 20G 627.75 43.25
VStem: 62.71 98.75 530.21 113.5
LayerCount: 2
Fore
SplineSet
318.700195312 -11 m 0
 125.200195312 -11 62.69140625 146.0390625 62.69140625 201.2890625 c 0
 62.69140625 215.008789062 64.5810546875 222.178710938 75.380859375 227.568359375 c 2
 513.331054688 445.71875 l 1
 483.55078125 557.909179688 415.571289062 627.758789062 312.931640625 627.758789062 c 0
 173.181640625 627.758789062 107.821289062 538.71875 78.37109375 451.489257812 c 0
 75.640625 443.94921875 71.0703125 442.869140625 65.7001953125 445.01953125 c 2
 47.4501953125 451.76953125 l 2
 41.7197265625 453.94921875 40.279296875 456.479492188 42.509765625 463.189453125 c 0
 77.7197265625 564.669921875 161.700195312 671 323.950195312 671 c 0
 527.700195312 671 643.700195312 526.5 643.700195312 337.5 c 0
 643.700195312 190.5 564.950195312 -11 318.700195312 -11 c 0
320.44140625 29.5390625 m 0
 467.44140625 29.5390625 530.171875 190.029296875 530.171875 300.779296875 c 0
 530.171875 336.239257812 527.471679688 369.76953125 522.412109375 400.649414062 c 1
 162.33203125 212.399414062 l 1
 161.921875 206.569335938 161.452148438 199.418945312 161.452148438 193.0390625 c 0
 161.452148438 119.0390625 206.301757812 29.5390625 320.44140625 29.5390625 c 0
EndSplineSet
Substitution2: "'c2sc' Capitals to Small Capitals in Latin lookup 11 subtable" uni018F.sc
AlternateSubs2: "'aalt' Access All Alternates in Latin lookup 0 subtable" uni018F.sc
Position2: "'cpsp' Capital Spacing in Latin lookup 0 subtable" dx=5 dy=0 dh=10 dv=0
EndChar

StartChar: F
Encoding: 70 70 73
Width: 576
GlyphClass: 1
Flags: MW
HStem: 0 38<35.5 41 40 41 41 62.5 261.25 268.25> 319.5 47.5<202.25 301.75 202.25 301.75> 425 20G<398.75 409.75 409.75 414.25> 613 47<202.25 334.75 202.25 202.25> 621 39<40 62> 651 20G<473.25 476.75>
VStem: 105 97.25<121 319.5 367 538 538 565.5> 385.75 37<254.5 260.5 260.5 280 426 432>
LayerCount: 2
Fore
SplineSet
202.25 121 m 2xf3
 202.25 69 222.25 38 261.25 38 c 2
 268.25 38 l 2
 276.25 38 281.25 33 281.25 25 c 2
 281.25 13 l 2
 281.25 5 276.25 0 268.25 0 c 2
 40 0 l 2
 31 0 26 4 26 13 c 2
 26 25 l 2
 26 33 32 38 40 38 c 2
 41 38 l 2
 84 38 105 65 105 121 c 2
 105 538 l 2
 105 593 84 621 40 621 c 0xeb
 32 621 26 627 26 635 c 2
 26 646 l 2
 26 655 31 660 40 660 c 2
 444.75 660 l 2xf3
 453.75 660 457.75 661 461.75 664 c 2
 466.75 669 l 2
 468.75 671 471.75 671 474.75 671 c 0
 478.75 671 482.75 669 485.75 664 c 2xe7
 554.75 545 l 2
 556.75 542 557.75 539 557.75 537 c 0
 557.75 532 554.75 529 550.75 526 c 2
 530.75 514.5 l 2
 525.75 511.5 523.75 510.5 520.75 510.5 c 0
 516.75 510.5 512.75 513.5 510.75 518.5 c 2
 507.75 523.5 l 2
 465 594 416.75 613 334.75 613 c 2
 202.25 613 l 1
 202.25 367 l 1
 301.75 367 l 2
 363.75 367 385.75 387 385.75 426 c 2
 385.75 432 l 2
 385.75 441 389.75 445 398.75 445 c 2
 409.75 445 l 2
 418.75 445 422.75 441 422.75 432 c 2
 422.75 254.5 l 2
 422.75 245.5 418.75 241.5 409.75 241.5 c 2
 398.75 241.5 l 2
 389.75 241.5 385.75 245.5 385.75 254.5 c 2
 385.75 260.5 l 2
 385.75 299.5 364.75 319.5 301.75 319.5 c 2
 202.25 319.5 l 1
 202.25 121 l 2xf3
EndSplineSet
Substitution2: "'ss04' Style Set 4 in Latin lookup 33 subtable" u1F155
Substitution2: "'ss03' Style Set 3 in Latin lookup 31 subtable" uni24BB
Substitution2: "'c2sc' Capitals to Small Capitals in Latin lookup 11 subtable" F.sc
AlternateSubs2: "'aalt' Access All Alternates in Latin lookup 0 subtable" F.sc uni24BB u1F155
Position2: "'cpsp' Capital Spacing in Latin lookup 0 subtable" dx=5 dy=0 dh=10 dv=0
EndChar

StartChar: G
Encoding: 71 71 74
Width: 679
GlyphClass: 2
Flags: MW
HStem: -11 43.75<289.5 390.5 289.5 416> 290 37<412 649 416 423 633.5 642 642 649> 631 40<283.625 407.25>
VStem: 31 113.25<268 397> 513.25 96.75<472.75 496.25 472.75 518.25> 517 102<150 188 188 238>
AnchorPoint: "Anchor-5" 352 660 basechar 0
AnchorPoint: "Anchor-4" 348 0 basechar 0
LayerCount: 2
Fore
SplineSet
144.25 360.5 m 0xf4
 144.25 175.5 218.5 32.75 360.5 32.75 c 0
 420.5 32.75 517 62 517 126.5 c 2
 517 188 l 2
 517 288 468 290 423 290 c 2
 416 290 l 2
 408 290 403 294 403 303 c 2
 403 314 l 2
 403 323 408 327 416 327 c 2
 649 327 l 2
 657 327 662 322 662 314 c 2
 662 303 l 2
 662 294 657 290 649 290 c 2
 642 290 l 2
 625 290 619 281 619 261 c 2
 619 150 l 1xf4
 578 56 483 -11 349 -11 c 0
 152 -11 31 135 31 323 c 0
 31 471 103 671 356 671 c 0
 568 671 610 514.75 610 477.75 c 0
 610 467.75 605 463 595 460.75 c 2
 537.25 443.75 l 2
 532.25 442.5 527.25 440.75 522.25 440.75 c 0
 516.25 440.75 511.25 440.75 511.25 448.75 c 0
 511.25 454.75 513.25 462.75 513.25 477.75 c 0xf8
 513.25 558.75 460.5 631 354 631 c 0
 213.25 631 144.25 481.25 144.25 360.5 c 0xf4
EndSplineSet
Substitution2: "'ss04' Style Set 4 in Latin lookup 33 subtable" u1F156
Substitution2: "'ss03' Style Set 3 in Latin lookup 31 subtable" uni24BC
Substitution2: "'c2sc' Capitals to Small Capitals in Latin lookup 11 subtable" G.sc
AlternateSubs2: "'aalt' Access All Alternates in Latin lookup 0 subtable" G.sc uni24BC u1F156
Position2: "'cpsp' Capital Spacing in Latin lookup 0 subtable" dx=5 dy=0 dh=10 dv=0
EndChar

StartChar: Gbreve
Encoding: 286 286 75
Width: 679
GlyphClass: 2
Flags: MW
HStem: -11 43.75<289.5 390.5 289.5 416> 290 37<412 649 416 423 633.5 642 642 649> 631 40<283.625 407.25> 711 48.36
VStem: 31 113.25<268 397> 513.25 96.75<472.75 496.25 472.75 518.25> 517 102<150 188 188 238>
AnchorPoint: "Anchor-5" 352 820 basechar 0
AnchorPoint: "Anchor-4" 348 0 basechar 0
LayerCount: 2
Fore
SplineSet
144.25 360.5 m 0xfa
 144.25 175.5 218.5 32.75 360.5 32.75 c 0
 420.5 32.75 517 62 517 126.5 c 2
 517 188 l 2
 517 288 468 290 423 290 c 2
 416 290 l 2
 408 290 403 294 403 303 c 2
 403 314 l 2
 403 323 408 327 416 327 c 2
 649 327 l 2
 657 327 662 322 662 314 c 2
 662 303 l 2
 662 294 657 290 649 290 c 2
 642 290 l 2
 625 290 619 281 619 261 c 2
 619 150 l 1xfa
 578 56 483 -11 349 -11 c 0
 152 -11 31 135 31 323 c 0
 31 471 103 671 356 671 c 0
 568 671 610 514.75 610 477.75 c 0
 610 467.75 605 463 595 460.75 c 2
 537.25 443.75 l 2
 532.25 442.5 527.25 440.75 522.25 440.75 c 0
 516.25 440.75 511.25 440.75 511.25 448.75 c 0
 511.25 454.75 513.25 462.75 513.25 477.75 c 0xfc
 513.25 558.75 460.5 631 354 631 c 0
 213.25 631 144.25 481.25 144.25 360.5 c 0xfa
352 711 m 1
 352.1015625 711 l 1
 261.3515625 711 223.961914062 780.76953125 223.961914062 816.619140625 c 0
 223.961914062 826.619140625 229.171875 830.44921875 238.952148438 831.609375 c 0
 246.471679688 832.44921875 261.702148438 833.76953125 269.362304688 834.279296875 c 0
 281.171875 835.26953125 284.981445312 831.899414062 285.911132812 818.939453125 c 0
 289.010742188 782.329101562 312.690429688 759.329101562 352.05078125 759.329101562 c 0
 391.650390625 759.329101562 415.330078125 782.329101562 418.4296875 818.939453125 c 0
 419.109375 831.899414062 423.168945312 835.26953125 434.978515625 834.279296875 c 0
 442.388671875 833.76953125 457.869140625 832.44921875 465.139648438 831.609375 c 0
 474.919921875 830.44921875 480.129882812 826.619140625 480.129882812 816.619140625 c 0
 480.129882812 780.76953125 443 711 352 711 c 1
EndSplineSet
Substitution2: "'c2sc' Capitals to Small Capitals in Latin lookup 11 subtable" Gbreve.sc
AlternateSubs2: "'aalt' Access All Alternates in Latin lookup 0 subtable" Gbreve.sc
Position2: "'cpsp' Capital Spacing in Latin lookup 0 subtable" dx=5 dy=0 dh=10 dv=0
EndChar

StartChar: Gcaron
Encoding: 486 486 76
Width: 679
GlyphClass: 2
Flags: MW
HStem: -11 43.75<289.5 390.5 289.5 416> 290 37<412 649 416 423 633.5 642 642 649> 631 40<283.625 407.25>
VStem: 31 113.25<268 397> 513.25 96.75<472.75 496.25 472.75 518.25> 517 102<150 188 188 238>
AnchorPoint: "Anchor-5" 352 845 basechar 0
AnchorPoint: "Anchor-4" 348 0 basechar 0
LayerCount: 2
Fore
SplineSet
144.25 360.5 m 0xf4
 144.25 175.5 218.5 32.75 360.5 32.75 c 0
 420.5 32.75 517 62 517 126.5 c 2
 517 188 l 2
 517 288 468 290 423 290 c 2
 416 290 l 2
 408 290 403 294 403 303 c 2
 403 314 l 2
 403 323 408 327 416 327 c 2
 649 327 l 2
 657 327 662 322 662 314 c 2
 662 303 l 2
 662 294 657 290 649 290 c 2
 642 290 l 2
 625 290 619 281 619 261 c 2
 619 150 l 1xf4
 578 56 483 -11 349 -11 c 0
 152 -11 31 135 31 323 c 0
 31 471 103 671 356 671 c 0
 568 671 610 514.75 610 477.75 c 0
 610 467.75 605 463 595 460.75 c 2
 537.25 443.75 l 2
 532.25 442.5 527.25 440.75 522.25 440.75 c 0
 516.25 440.75 511.25 440.75 511.25 448.75 c 0
 511.25 454.75 513.25 462.75 513.25 477.75 c 0xf8
 513.25 558.75 460.5 631 354 631 c 0
 213.25 631 144.25 481.25 144.25 360.5 c 0xf4
352 787.049804688 m 1
 372.040039062 824.830078125 405.981445312 867.240234375 449.931640625 867.240234375 c 0
 473.061523438 867.240234375 483.8515625 844.879882812 483.8515625 819.439453125 c 0
 483.8515625 807.889648438 483.091796875 797.859375 474.611328125 794.01953125 c 0
 429.880859375 777.049804688 406.760742188 765.5 352.010742188 721.540039062 c 1
 297.260742188 765.5 274.130859375 777.049804688 229.400390625 794.01953125 c 0
 220.919921875 797.859375 220.16015625 807.889648438 220.16015625 819.439453125 c 0
 220.16015625 844.879882812 230.959960938 867.240234375 254.080078125 867.240234375 c 0
 298.030273438 867.240234375 331.950195312 824.830078125 352 787.049804688 c 1
EndSplineSet
Substitution2: "'c2sc' Capitals to Small Capitals in Latin lookup 11 subtable" Gcaron.sc
AlternateSubs2: "'aalt' Access All Alternates in Latin lookup 0 subtable" Gcaron.sc
Position2: "'cpsp' Capital Spacing in Latin lookup 0 subtable" dx=5 dy=0 dh=10 dv=0
EndChar

StartChar: Gcircumflex
Encoding: 284 284 77
Width: 679
GlyphClass: 2
Flags: MW
HStem: -11 43.75<289.5 390.5 289.5 416> 290 37<412 649 416 423 633.5 642 642 649> 631 40<283.625 407.25>
VStem: 31 113.25<268 397> 513.25 96.75<472.75 496.25 472.75 518.25> 517 102<150 188 188 238>
AnchorPoint: "Anchor-7" 352 759 basechar 0
AnchorPoint: "Anchor-5" 352 816 basechar 0
AnchorPoint: "Anchor-4" 348 0 basechar 0
LayerCount: 2
Fore
SplineSet
144.25 360.5 m 0xf4
 144.25 175.5 218.5 32.75 360.5 32.75 c 0
 420.5 32.75 517 62 517 126.5 c 2
 517 188 l 2
 517 288 468 290 423 290 c 2
 416 290 l 2
 408 290 403 294 403 303 c 2
 403 314 l 2
 403 323 408 327 416 327 c 2
 649 327 l 2
 657 327 662 322 662 314 c 2
 662 303 l 2
 662 294 657 290 649 290 c 2
 642 290 l 2
 625 290 619 281 619 261 c 2
 619 150 l 1xf4
 578 56 483 -11 349 -11 c 0
 152 -11 31 135 31 323 c 0
 31 471 103 671 356 671 c 0
 568 671 610 514.75 610 477.75 c 0
 610 467.75 605 463 595 460.75 c 2
 537.25 443.75 l 2
 532.25 442.5 527.25 440.75 522.25 440.75 c 0
 516.25 440.75 511.25 440.75 511.25 448.75 c 0
 511.25 454.75 513.25 462.75 513.25 477.75 c 0xf8
 513.25 558.75 460.5 631 354 631 c 0
 213.25 631 144.25 481.25 144.25 360.5 c 0xf4
352 795.4296875 m 1
 331.950195312 757.649414062 298.008789062 715.249023438 254.05859375 715.249023438 c 0
 230.938476562 715.249023438 220.138671875 737.598632812 220.138671875 763.0390625 c 0
 220.138671875 774.588867188 220.8984375 784.619140625 229.37890625 788.46875 c 0
 274.109375 805.428710938 297.239257812 816.978515625 351.989257812 860.938476562 c 1
 406.739257812 816.978515625 429.859375 805.428710938 474.58984375 788.46875 c 0
 483.0703125 784.619140625 483.830078125 774.588867188 483.830078125 763.0390625 c 0
 483.830078125 737.598632812 473.040039062 715.249023438 449.91015625 715.249023438 c 0
 405.959960938 715.249023438 372.040039062 757.649414062 352 795.4296875 c 1
EndSplineSet
Substitution2: "'c2sc' Capitals to Small Capitals in Latin lookup 11 subtable" Gcircumflex.sc
AlternateSubs2: "'aalt' Access All Alternates in Latin lookup 0 subtable" Gcircumflex.sc
Position2: "'cpsp' Capital Spacing in Latin lookup 0 subtable" dx=5 dy=0 dh=10 dv=0
EndChar

StartChar: uni0122
Encoding: 290 290 78
Width: 679
GlyphClass: 2
Flags: MW
HStem: -11 43.75<289.5 390.5 289.5 416> 290 37<412 649 416 423 633.5 642 642 649> 631 40<283.625 407.25>
VStem: 31 113.25<268 397> 330.14 71.03 513.25 96.75<472.75 496.25 472.75 518.25> 517 102<150 188 188 238>
AnchorPoint: "Anchor-5" 352 660 basechar 0
AnchorPoint: "Anchor-4" 348 0 basechar 0
LayerCount: 2
Fore
SplineSet
144.25 360.5 m 0xf2
 144.25 175.5 218.5 32.75 360.5 32.75 c 0
 420.5 32.75 517 62 517 126.5 c 2
 517 188 l 2
 517 288 468 290 423 290 c 2
 416 290 l 2
 408 290 403 294 403 303 c 2
 403 314 l 2
 403 323 408 327 416 327 c 2
 649 327 l 2
 657 327 662 322 662 314 c 2
 662 303 l 2
 662 294 657 290 649 290 c 2
 642 290 l 2
 625 290 619 281 619 261 c 2
 619 150 l 1xf2
 578 56 483 -11 349 -11 c 0
 152 -11 31 135 31 323 c 0
 31 471 103 671 356 671 c 0
 568 671 610 514.75 610 477.75 c 0
 610 467.75 605 463 595 460.75 c 2
 537.25 443.75 l 2
 532.25 442.5 527.25 440.75 522.25 440.75 c 0
 516.25 440.75 511.25 440.75 511.25 448.75 c 0
 511.25 454.75 513.25 462.75 513.25 477.75 c 0xf4
 513.25 558.75 460.5 631 354 631 c 0
 213.25 631 144.25 481.25 144.25 360.5 c 0xf2
389.900390625 -80.0400390625 m 2xfa
 396.830078125 -86.9599609375 401.169921875 -96.4501953125 401.169921875 -110.299804688 c 0
 401.169921875 -115.490234375 400.299804688 -120.680664062 399.450195312 -126.750976562 c 0
 390.790039062 -170.05078125 321.490234375 -229.810546875 308.510742188 -229.810546875 c 0
 305.05078125 -229.810546875 302.451171875 -228.080078125 286.87109375 -221.16015625 c 1
 313.720703125 -200.379882812 330.170898438 -173.530273438 330.170898438 -156.209960938 c 0
 330.170898438 -151.889648438 328.440429688 -147.559570312 324.98046875 -144.099609375 c 2
 303.340820312 -122.439453125 l 2
 297.28125 -115.51953125 293.821289062 -108.599609375 293.821289062 -101.6796875 c 0
 293.821289062 -94.759765625 297.28125 -86.9599609375 303.340820312 -80.0400390625 c 2
 324.98046875 -58.3798828125 l 2
 332.780273438 -51.4697265625 339.700195312 -48.009765625 346.620117188 -48.009765625 c 0
 353.540039062 -48.009765625 360.459960938 -51.4697265625 368.25 -58.3798828125 c 2
 389.900390625 -80.0400390625 l 2xfa
EndSplineSet
Substitution2: "'c2sc' Capitals to Small Capitals in Latin lookup 11 subtable" uni0122.sc
AlternateSubs2: "'aalt' Access All Alternates in Latin lookup 0 subtable" uni0122.sc
Position2: "'cpsp' Capital Spacing in Latin lookup 0 subtable" dx=5 dy=0 dh=10 dv=0
EndChar

StartChar: Gdotaccent
Encoding: 288 288 79
Width: 679
GlyphClass: 2
Flags: MW
HStem: -11 43.75<289.5 390.5 289.5 416> 290 37<412 649 416 423 633.5 642 642 649> 631 40<283.625 407.25> 721.71 126.58
VStem: 31 113.25<268 397> 288.73 127.54 513.25 96.75 517 102
AnchorPoint: "Anchor-5" 352 845 basechar 0
AnchorPoint: "Anchor-4" 348 0 basechar 0
LayerCount: 2
Fore
SplineSet
144.25 360.5 m 0xe9
 144.25 175.5 218.5 32.75 360.5 32.75 c 0
 420.5 32.75 517 62 517 126.5 c 2
 517 188 l 2
 517 288 468 290 423 290 c 2
 416 290 l 2
 408 290 403 294 403 303 c 2
 403 314 l 2
 403 323 408 327 416 327 c 2
 649 327 l 2
 657 327 662 322 662 314 c 2
 662 303 l 2
 662 294 657 290 649 290 c 2
 642 290 l 2
 625 290 619 281 619 261 c 2
 619 150 l 1xe9
 578 56 483 -11 349 -11 c 0
 152 -11 31 135 31 323 c 0
 31 471 103 671 356 671 c 0
 568 671 610 514.75 610 477.75 c 0
 610 467.75 605 463 595 460.75 c 2
 537.25 443.75 l 2
 532.25 442.5 527.25 440.75 522.25 440.75 c 0
 516.25 440.75 511.25 440.75 511.25 448.75 c 0
 511.25 454.75 513.25 462.75 513.25 477.75 c 0xea
 513.25 558.75 460.5 631 354 631 c 0
 213.25 631 144.25 481.25 144.25 360.5 c 0xe9
352.009765625 848.280273438 m 0xfd
 367.33984375 848.280273438 379.809570312 842.520507812 395.139648438 827.190429688 c 0
 410.469726562 811.860351562 416.229492188 800.360351562 416.229492188 785.030273438 c 0
 416.229492188 769.690429688 409.509765625 757.23046875 395.139648438 742.860351562 c 0
 379.809570312 727.530273438 367.349609375 721.770507812 352.01953125 721.770507812 c 0
 337.639648438 721.770507812 326.139648438 727.530273438 309.83984375 742.860351562 c 0
 294.509765625 757.23046875 288.75 769.690429688 288.75 785.030273438 c 0
 288.75 800.360351562 294.509765625 811.860351562 309.83984375 827.190429688 c 0
 325.169921875 842.520507812 337.629882812 848.280273438 352.009765625 848.280273438 c 0xfd
EndSplineSet
Substitution2: "'c2sc' Capitals to Small Capitals in Latin lookup 11 subtable" Gdotaccent.sc
AlternateSubs2: "'aalt' Access All Alternates in Latin lookup 0 subtable" Gdotaccent.sc
Position2: "'cpsp' Capital Spacing in Latin lookup 0 subtable" dx=5 dy=0 dh=10 dv=0
EndChar

StartChar: uni1E20
Encoding: 7712 7712 80
Width: 679
GlyphClass: 2
Flags: MW
HStem: -11 43.75<289.5 390.5 289.5 416> 290 37<412 649 416 423 633.5 642 642 649> 631 40<283.625 407.25> 721 56.5<237 462.5 241.5 462.5>
VStem: 31 113.25<268 397> 513.25 96.75<472.75 496.25 472.75 518.25> 517 102<150 188 188 238>
AnchorPoint: "Anchor-5" 352 752 basechar 0
AnchorPoint: "Anchor-4" 348 0 basechar 0
LayerCount: 2
Fore
SplineSet
144.25 360.5 m 0xfa
 144.25 175.5 218.5 32.75 360.5 32.75 c 0
 420.5 32.75 517 62 517 126.5 c 2
 517 188 l 2
 517 288 468 290 423 290 c 2
 416 290 l 2
 408 290 403 294 403 303 c 2
 403 314 l 2
 403 323 408 327 416 327 c 2
 649 327 l 2
 657 327 662 322 662 314 c 2
 662 303 l 2
 662 294 657 290 649 290 c 2
 642 290 l 2
 625 290 619 281 619 261 c 2
 619 150 l 1xfa
 578 56 483 -11 349 -11 c 0
 152 -11 31 135 31 323 c 0
 31 471 103 671 356 671 c 0
 568 671 610 514.75 610 477.75 c 0
 610 467.75 605 463 595 460.75 c 2
 537.25 443.75 l 2
 532.25 442.5 527.25 440.75 522.25 440.75 c 0
 516.25 440.75 511.25 440.75 511.25 448.75 c 0
 511.25 454.75 513.25 462.75 513.25 477.75 c 0xfc
 513.25 558.75 460.5 631 354 631 c 0
 213.25 631 144.25 481.25 144.25 360.5 c 0xfa
475.5 734 m 2
 475.5 726 471.5 721 462.5 721 c 2
 241.5 721 l 2
 232.5 721 228.5 726 228.5 734 c 2
 228.5 764.5 l 2
 228.5 773.5 232.5 777.5 241.5 777.5 c 2
 462.5 777.5 l 2
 471.5 777.5 475.5 773.5 475.5 764.5 c 2
 475.5 734 l 2
EndSplineSet
Substitution2: "'c2sc' Capitals to Small Capitals in Latin lookup 11 subtable" uni1E20.sc
AlternateSubs2: "'aalt' Access All Alternates in Latin lookup 0 subtable" uni1E20.sc
Position2: "'cpsp' Capital Spacing in Latin lookup 0 subtable" dx=5 dy=0 dh=10 dv=0
EndChar

StartChar: H
Encoding: 72 72 81
Width: 726
GlyphClass: 2
Flags: MW
HStem: 0 38<35.5 45 40 45 45 67.5 260.5 266.5 459 465 465 487.5 681.25 687.25> 319 45<201.5 525 201.5 525> 622 38<35.5 266.5 40 45 238.5 260.5 260.5 266.5 459 465 658.75 681.25 681.25 687.25>
VStem: 104 97.5<121 319 364 539> 525 97.25<121 319 319 319 364 539>
AnchorPoint: "Anchor-5" 364 660 basechar 0
AnchorPoint: "Anchor-4" 364 0 basechar 0
LayerCount: 2
Fore
SplineSet
622.25 121 m 2
 622.25 75 636.25 38 681.25 38 c 2
 687.25 38 l 2
 695.25 38 700.25 33 700.25 25 c 2
 700.25 13 l 2
 700.25 4 695.25 0 687.25 0 c 2
 459 0 l 2
 451 0 446 4 446 13 c 2
 446 25 l 2
 446 33 451 38 459 38 c 2
 465 38 l 2
 510 38 525 75 525 121 c 2
 525 319 l 1
 201.5 319 l 1
 201.5 121 l 2
 201.5 75 216.5 38 260.5 38 c 2
 266.5 38 l 2
 275.5 38 279.5 33 279.5 25 c 2
 279.5 13 l 2
 279.5 4 275.5 0 266.5 0 c 2
 40 0 l 2
 31 0 26 4 26 13 c 2
 26 25 l 2
 26 33 31 38 40 38 c 2
 45 38 l 2
 90 38 104 75 104 121 c 2
 104 539 l 2
 104 585 90 622 45 622 c 2
 40 622 l 2
 31 622 26 627 26 635 c 2
 26 647 l 2
 26 656 31 660 40 660 c 2
 266.5 660 l 2
 275.5 660 279.5 656 279.5 647 c 2
 279.5 635 l 2
 279.5 627 275.5 622 266.5 622 c 2
 260.5 622 l 2
 216.5 622 201.5 585 201.5 539 c 2
 201.5 364 l 1
 525 364 l 1
 525 539 l 2
 525 585 510 622 465 622 c 2
 459 622 l 2
 451 622 446 627 446 635 c 2
 446 647 l 2
 446 656 451 660 459 660 c 2
 687.25 660 l 2
 695.25 660 700.25 656 700.25 647 c 2
 700.25 635 l 2
 700.25 627 695.25 622 687.25 622 c 2
 681.25 622 l 2
 636.25 622 622.25 585 622.25 539 c 2
 622.25 121 l 2
EndSplineSet
Substitution2: "'ss04' Style Set 4 in Latin lookup 33 subtable" u1F157
Substitution2: "'ss03' Style Set 3 in Latin lookup 31 subtable" uni24BD
Substitution2: "'c2sc' Capitals to Small Capitals in Latin lookup 11 subtable" H.sc
AlternateSubs2: "'aalt' Access All Alternates in Latin lookup 0 subtable" H.sc uni24BD u1F157
Position2: "'cpsp' Capital Spacing in Latin lookup 0 subtable" dx=5 dy=0 dh=10 dv=0
EndChar

